/* XPM */
static char * tree_xpm[] = {
"64 64 133 2",
"  	c #4D9262",
". 	c #31582C",
"+ 	c #27611D",
"@ 	c #3A4F3C",
"# 	c #363B3A",
"$ 	c #438233",
"% 	c #2F7021",
"& 	c #4C9061",
"* 	c #4A8D5E",
"= 	c #4D925E",
"- 	c #4E8E3E",
"; 	c #458258",
"> 	c #589747",
", 	c #448056",
"' 	c #48875B",
") 	c #4A8C5E",
"! 	c #4C9262",
"~ 	c #5C9B5F",
"{ 	c #589960",
"] 	c #519461",
"^ 	c #70A959",
"/ 	c #69A35B",
"( 	c #6BA55A",
"_ 	c #629F5D",
": 	c #4D9161",
"< 	c #4B8E5F",
"[ 	c #4C9161",
"} 	c #468559",
"| 	c #47875A",
"1 	c #48895C",
"2 	c #498C5E",
"3 	c #448156",
"4 	c #448357",
"5 	c #458559",
"6 	c #488A5C",
"7 	c #4B8F60",
"8 	c #428055",
"9 	c #438156",
"0 	c #47885B",
"a 	c #498A5D",
"b 	c #4A8D5F",
"c 	c #4C905D",
"d 	c #417D54",
"e 	c #427E54",
"f 	c #458358",
"g 	c #46865A",
"h 	c #4B8F5C",
"i 	c #4E8450",
"j 	c #417D53",
"k 	c #417E54",
"l 	c #427F55",
"m 	c #438056",
"n 	c #498B5D",
"o 	c #4B8E5B",
"p 	c #4D9162",
"q 	c #5F904B",
"r 	c #60904B",
"s 	c #407D54",
"t 	c #427F54",
"u 	c #448257",
"v 	c #5E904B",
"w 	c #4D8350",
"x 	c #4D8450",
"y 	c #4E8551",
"z 	c #313133",
"A 	c #407C52",
"B 	c #3F7C52",
"C 	c #4A8251",
"D 	c #598C4D",
"E 	c #5A8C4D",
"F 	c #4B8452",
"G 	c #417C53",
"H 	c #323133",
"I 	c #584639",
"J 	c #407C53",
"K 	c #5F914B",
"L 	c #457F53",
"M 	c #4A8352",
"N 	c #468154",
"O 	c #4B8352",
"P 	c #5A8C4E",
"Q 	c #5A8D4E",
"R 	c #468659",
"S 	c #458458",
"T 	c #7A6233",
"U 	c #8B803F",
"V 	c #386B47",
"W 	c #458054",
"X 	c #4C8553",
"Y 	c #468255",
"Z 	c #47875B",
"` 	c #B1A35A",
" .	c #386C48",
"..	c #438055",
"+.	c #437649",
"@.	c #396E49",
"#.	c #4B8A5A",
"$.	c #45794B",
"%.	c #3B704B",
"&.	c #48885B",
"*.	c #4C9060",
"=.	c #54935C",
"-.	c #649B56",
";.	c #568548",
">.	c #3C724C",
",.	c #4A9262",
"'.	c #4B9262",
").	c #4B9162",
"!.	c #4A9061",
"~.	c #54955D",
"{.	c #649F58",
"].	c #66A057",
"^.	c #4E824C",
"/.	c #3A744E",
"(.	c #45885B",
"_.	c #46895C",
":.	c #468A5C",
"<.	c #478A5D",
"[.	c #478B5D",
"}.	c #478C5D",
"|.	c #488C5E",
"1.	c #488D5F",
"2.	c #498E5F",
"3.	c #498F60",
"4.	c #4B925E",
"5.	c #589860",
"6.	c #619D5C",
"7.	c #69A258",
"8.	c #68A158",
"9.	c #5F9A5A",
"0.	c #487E4F",
"a.	c #3E764F",
"b.	c #498C5D",
"                                                    . . + + . . . @ @ #                                                         ",
"                                              + + $ + % $ % % $ % % + + . @ @ #       & * * &                             =     ",
"                                          + + % $ % $ - - $ $ % $ % % % + . . . @ #   * ; ; *                             =     ",
"                                      + . % > % > $ - > > - > $ $ $ % % % + . @ @ @ # # , , ' ) &                         =     ",
"                                + + + . % $ % - $ - > > > > - - $ - $ % $ % + . + + @ # # # # ; *                         =     ",
"                              + % % . + $ % - $ $ - - > > - > - > $ % $ % % + . + + + @ # . . @ *                         =     ",
"                          + + % $ % % % + $ > - $ - > > > > - > - - - $ % % + + % % % + @ # . . @ #                       =     ",
"                        + % $ - $ + % % % > - $ % $ - - > > > - - - $ $ $ % + % $ $ % % + @ @ + + . @                     =     ",
"                      + % > > $ % % + % $ - > - $ % $ % - > - - - $ $ $ $ % % % $ $ $ % + + @ @ . + . @                   =     ",
"                      + - > - $ % $ % $ - > > - $ + % $ - - $ - $ - $ $ % + % % % $ % $ % + . # @ . @ @                   =     ",
"                    + % > - > % $ % % $ > > > > $ % $ - - $ $ $ $ $ $ % % % $ $ % % $ % % + @ + . + . @ #                 =     ",
"                    + % - $ $ % % $ % $ > > > > - $ > - > - - $ $ % % $ % $ - $ % $ % % + . + + . + + . . #               =     ",
"                  . + . $ $ % % $ $ $ - $ > - > > - - > - - $ $ $ $ $ - - - $ - $ % % + + + . + @ + + + . # #             =     ",
"                  . . % % % $ $ % $ > - % $ > - - $ $ - - $ % $ $ $ % $ $ - - $ % % + . + + + . . . + + . @ #             =     ",
"                  . + + % $ - $ + - - > $ % $ $ % $ - - - - $ % % $ % % + $ % % $ % % % + % + . + . + + + @ # #           =     ",
"                . + % % $ - > $ + - > > > $ % % $ - - > - $ - $ $ % $ % % % $ $ % % $ $ % + % + + + . @ . . @ # #         =     ",
"                + % % $ $ > - $ % $ > > - $ $ $ - - > - > - - - $ $ % + % $ % - - $ $ % % % + + + % + . @ . # @ #         =     ",
"                + % $ % - > > - $ % $ > > $ % $ - > - > > > > > - $ $ % % % - > $ $ % + % + . + % % % + . @ # . @         =     ",
"              + % % $ $ > > > > - $ % - > - $ % $ - > > > > > - > $ % % + % % $ $ % + % + . . % % % % % + . @ + . @       =     ",
"            + % % + % $ > > - $ $ % $ - - - - % + $ $ - > > - > $ $ % % . + % % + + + + + . + % % % % + + . . . + @ #     =     ",
"          + % - % + % % $ > - $ % + % $ > - > $ % % $ $ % $ $ % $ % % + . . + + % + % % % + . + % % % % + . . . + . #     =     ",
"          + $ $ % % + % % $ - % $ % % $ - > > > - $ % + % % % % % % + + % + . % % % % $ % % % + + % + % + . @ . + + @ #   =     ",
"        . % - $ + % % + + % $ $ - $ $ % $ - > - > > - $ % $ % $ % % % % % + % % % % $ $ - $ % % + + % + + . @ @ . . @ #   =     ",
"        . % - % + % + % % $ - - $ $ % % $ $ - > - $ % % $ - - $ $ $ % $ $ $ $ % $ $ $ > $ - $ % % + + + + . # @ @ . @ #   =     ",
"        . % $ % % % + % $ - > > - $ $ % % $ $ $ % $ $ - - > > - - $ $ % $ $ % $ % $ - - > $ $ % $ % . + . @ # @ . @ @ #   =     ",
"        . % % + % $ + % $ > > > > > - $ $ % $ $ $ $ > > - - > > > $ $ $ $ $ $ % $ - - > - $ % $ % % . . . . @ @ @ @ # #   =     ",
"      + $ + % + + $ % % $ - > > > - > - $ $ $ $ $ - > > > - > - > - $ $ % $ % % $ $ % $ % % $ $ % + + . + . @ # @ @ # #   =     ",
"!     + $ + + + % $ $ + % - - > - > $ % $ $ % $ - > - > - $ - > - $ % $ % $ % % % % $ % % $ $ % + + . . + . @ @ # # @ #   =     ",
"      + $ % . + $ - $ $ % $ - - - $ % $ - $ $ $ $ - - - - $ - $ $ $ $ % + % % + % % % % $ % % + % . + + + # . . @ @ # # # =     ",
"~ { ] + % % . % - > - $ $ % $ $ % $ $ - > - - $ $ % $ $ $ $ $ $ % $ % + % % + . + % % + % + + % . + . + . @ . . . @ # @ # =     ",
"^ / . @ % % + $ > > > - $ $ - $ % % - > - > > - $ $ % $ % $ $ % % % + % + + . @ . + + + + + . + . . + . @ . + . . # . @ @ #     ",
"^ ( . @ + % % $ > > > - - $ - - % + - > > > - > - $ $ % % % % % % % % % + . + + + % % . . . + . . + . . . + % . . @ . @ @ # {   ",
"~ _ . @ + $ % % $ > - > - $ - $ $ % $ - > - > - - - $ $ % % + + % % % $ % $ % % + $ $ % . . . . + . @ . + % + + . @ . @ @ # / / ",
"~ _ . + . $ % % $ - > - > - $ - - $ % $ - $ - > - $ % $ $ % $ % % $ $ $ $ % $ % $ $ $ $ + @ . . @ . + + % % + + @ . @ . @ # / / ",
"^ ( . + . % % + % $ - - $ % - > - % $ % + % $ - $ % - - - $ - - $ - > > $ $ % % % $ % % + . @ # @ + + % + + + @ @ . @ . @ # {   ",
"^ / . + . % $ + % % $ $ % $ > > $ - - > - $ % % + % $ > > > - $ - > - > > - $ % + % + + . @ # @ . % % + % + . @ . . @ . @ #     ",
"~ { @ . + + % + + % % $ $ - > - - - > > > - $ $ % $ $ $ > - - $ $ - > - $ $ % % + + + . @ @ . @ . + % % + + . . + . @ # @ #     ",
"    @ . + @ + % + + % % % $ - - - > > > > - $ - $ % % % $ $ $ + + % $ $ $ % + . . . . + + . . . + + + + + . . + + @ @ @ # =     ",
"!     @ . + . + % % $ % $ % $ - $ > - > - $ - > - $ % $ % % + % $ $ $ $ % $ % % . @ + % % % % + + . . . . @ + . . . @ @ # =     ",
"      # @ . @ + + % $ $ $ $ % $ $ $ - - $ - > - - - $ $ - $ - $ $ - > - $ % % % % . + % $ $ % % % + . @ @ . . . @ @ @ #   =     ",
"        # # . . + + % $ $ % % % $ % $ % $ - - $ - $ % - - - $ - - - > - > $ % $ % + % $ > - % $ % . + . # @ @ @ @ @ # #   =     ",
"          @ @ . + + + % % % + % + % % $ % $ $ $ $ $ $ $ - $ - > > - - - - - $ % $ + $ > - $ % % + + . . @ @ . @ # @ #     =     ",
"            # @ . + . . . % + + . + % % % % $ % % $ % $ $ $ $ - - $ - $ $ $ % $ + + % + $ % + + + . . @ @ # @ @ # #       =     ",
"              # @ . + + . . + + . + + % + % % + % % + % $ % $ $ $ % $ % % % % + + + + % % + . . . + @ . # # @ # # # :     =     ",
"              # # @ . + @ + . . . . + + + + + % + . + + % % % $ % $ % + % % + + + . + + + . . . + . . @ # # # # # ) < [   =     ",
"                # # # . + + + + + . . . . + + + . + + . + . $ % % % % + + + % + @ . @ . . + . @ @ @ @ @ # @ # } | 1 2 < : =     ",
"                  # @ @ . . . + + . . @ @ . . . + + % + + . + + % + + + + . . @ . @ # @ @ . . @ @ @ @ # @ # 3 4 5 | 6 ) 7 =     ",
"                  # @ # @ @ . . . @ . . @ . + + % % + + . + + + + . + . . @ @ . . + . @ @ # # @ # @ @ @ @ # 8 9 4 } 0 a b c     ",
"                    # . . . @ # # # @ . . . . + + + . . . . + + . . . . @ . . + + . . . @ @ # # @ @ @ @ # d e 8 3 f g 1 2 h     ",
"                      < @ . . . . @ @ @ . @ . . . . @ @ . . . . @ @ # # @ @ . . . . . @ @ @ @ # @ @ # # i j k l m 4 } 0 n o     ",
"                    p < n @ # . . . . . . @ . @ @ # # @ @ @ . . . . @ . . @ @ @ . . @ @ # @ @ # # # q r i j s t m u 5 0 n o p   ",
"                      < n 0 @ # # @ . . . @ @ @ . . @ # @ . . . . . @ @ . . @ # @ @ @ @ # # # v w x q r i j k l m 4 } 0 n o     ",
"                      7 2 1 g f 3 @ # # @ # @ # @ @ # # # @ @ . . @ . . @ @ @ # # @ @ # # w q q x x q q y d k 8 3 f g 1 2 h     ",
"                      & b a 0 } 4 9 8 t # # # # # # # # z # # # @ @ @ @ # @ # # # # A B A x r q i C D E F t 8 9 4 } 0 a b c     ",
"                        7 ) 6 | 5 4 3 m l e e d j j j G H I I I I I I H G G G G G G G J G i K K y L M F N m 3 4 5 | 6 ) 7 =     ",
"                        : < 2 1 | } f u 9 m l l e e k d H I I I I I I H G G G G j j j j j O P Q F l l m 9 u f } | 1 2 < : =     ",
"                          [ < ) 6 0 R S f u 3 m m 8 H H H T U U T I I H H H V k k e e e t W X X Y m 9 u f S R 0 6 ) < [   =     ",
"                            : 7 * n 1 Z R 5 S 4 u H I U T U ` U U T I I I I H  .l 8 ..m m m 9 3 u 4 S 5 R Z 1 n * 7 :     =     ",
"                                & < 2 a 1 0 g R 5 +.H I U ` ` U U T U T I H @.3 3 u u u 4 4 f S 5 R g 0 1 a 2 < &         =     ",
"                                  [ 7 b ) n 6 #.$.H T U ` ` U ` U T T ` U I H %.S S S 5 } R g | 0 &.6 n ) b 7 [           =     ",
"                                      [ *.< * =.-.;.H T T U T ` T T I I I H >.g g | | 0 0 &.1 6 n 2 * < 7 [               =     ",
",.,.,.'.'.'.'.! ! ! ! ! ! '.'.'.'.! ! ! ! ).!.~.{.].^.H H H I T T I H H H /.(._._._.:.<.[.}.|.1.2.3.!.).'.,.,.,.,.'.'.'.'.4.'.  ",
"                                              ] 5.6.7.8.9.0.H H H H a.a.n n n n b.2 ) * b < 7 & p                         =     ",
"                                                                                                                                "};
