/* XPM */
static char * bomb_xpm[] = {
"32 32 5 1",
" 	c None",
".	c #E4A570",
"+	c #252B43",
"@	c #3A4467",
"#	c #8B9BB5",
"                                ",
"                                ",
"                                ",
"                ...             ",
"               .....            ",
"               ..  .            ",
"               ..               ",
"               ..               ",
"             ++@+++             ",
"             ++#+++             ",
"             ++@+++             ",
"           ++++++++++           ",
"         ++++++++++++++         ",
"        ++++++++++++++++        ",
"       +++++@++++++++++++       ",
"       ++++@#@+++++++++++       ",
"      ++++@###@+++++++++++      ",
"      +++++@#@++++++++++++      ",
"     +++++++@++++++++++++++     ",
"     ++++++++++++++++++++++     ",
"     ++++++++++++++++++++@+     ",
"     ++++++++++++++++++++@+     ",
"     ++++++++++++++++++++@+     ",
"     +++++++++++++++++++@++     ",
"      ++++++++++++++++++@+      ",
"      +++++++++++++++++@++      ",
"       ++++++++++++++++@+       ",
"       ++++++++++++++@@++       ",
"        ++++++++++++@@++        ",
"         +++++++++@@+++         ",
"           ++++@@@+++           ",
"             ++++++             "};
