/* XPM */
static char * bomb_empty_xpm[] = {
"64 64 344 2",
"  	c #4D3C2D",
". 	c #534231",
"+ 	c #594634",
"@ 	c #5B4935",
"# 	c #5E4C38",
"$ 	c #5B4936",
"% 	c #524030",
"& 	c #4F3D2E",
"* 	c #4A3829",
"= 	c #3B2C1B",
"- 	c #6E5838",
"; 	c #967C53",
"> 	c #A48F62",
", 	c #958159",
"' 	c #856E4B",
") 	c #91794E",
"! 	c #735F3A",
"~ 	c #3F301E",
"{ 	c #564331",
"] 	c #634D37",
"^ 	c #6E553A",
"/ 	c #7D603F",
"( 	c #816440",
"_ 	c #806440",
": 	c #644E39",
"< 	c #584533",
"[ 	c #40311F",
"} 	c #6E5837",
"| 	c #95815A",
"1 	c #856F4B",
"2 	c #3B2D1B",
"3 	c #4A3929",
"4 	c #4E3E2E",
"5 	c #63533C",
"6 	c #64533C",
"7 	c #5E4B35",
"8 	c #5B4934",
"9 	c #564333",
"0 	c #4F3E2E",
"a 	c #634E3B",
"b 	c #7A6149",
"c 	c #7D654A",
"d 	c #7E654A",
"e 	c #755E44",
"f 	c #53402D",
"g 	c #443423",
"h 	c #3F2F1F",
"i 	c #392B18",
"j 	c #83724D",
"k 	c #A49062",
"l 	c #8B7651",
"m 	c #968259",
"n 	c #93784E",
"o 	c #6B5332",
"p 	c #382917",
"q 	c #443323",
"r 	c #513E2D",
"s 	c #594533",
"t 	c #5F4A35",
"u 	c #604B35",
"v 	c #5F4935",
"w 	c #5A4633",
"x 	c #574433",
"y 	c #4F3D2D",
"z 	c #3D2F1D",
"A 	c #372816",
"B 	c #3F3020",
"C 	c #7A6248",
"D 	c #7A6148",
"E 	c #785F47",
"F 	c #624D3A",
"G 	c #644F3C",
"H 	c #7D644A",
"I 	c #89764E",
"J 	c #8A774E",
"K 	c #7F6D47",
"L 	c #504128",
"M 	c #372917",
"N 	c #342614",
"O 	c #352815",
"P 	c #7C6945",
"Q 	c #978056",
"R 	c #6E5839",
"S 	c #756341",
"T 	c #8A774F",
"U 	c #806643",
"V 	c #5F482D",
"W 	c #332512",
"X 	c #342615",
"Y 	c #3D2E1E",
"Z 	c #413223",
"` 	c #413123",
" .	c #403123",
"..	c #423324",
"+.	c #3E2E1F",
"@.	c #382A18",
"#.	c #352715",
"$.	c #8A764E",
"%.	c #89744D",
"&.	c #8D794F",
"*.	c #847149",
"=.	c #5E4E31",
"-.	c #4D3F25",
";.	c #4C3E25",
">.	c #4E3F26",
",.	c #6B5434",
"'.	c #795D3A",
").	c #624A2B",
"!.	c #543F23",
"~.	c #574228",
"{.	c #624B32",
"].	c #5B472E",
"^.	c #4D3F26",
"/.	c #4C3F25",
"(.	c #4E3F25",
"_.	c #5A472E",
":.	c #8C794E",
"<.	c #644F3B",
"[.	c #7E644B",
"}.	c #8B784E",
"|.	c #9B8354",
"1.	c #998153",
"2.	c #907A4E",
"3.	c #8E774C",
"4.	c #8E784C",
"5.	c #8D774B",
"6.	c #725D3A",
"7.	c #5B4529",
"8.	c #785C3B",
"9.	c #634C32",
"0.	c #4C3A23",
"a.	c #6F5C39",
"b.	c #8E774B",
"c.	c #8D784B",
"d.	c #8C774B",
"e.	c #715D39",
"f.	c #5A4529",
"g.	c #6E5C39",
"h.	c #9A8353",
"i.	c #9C8454",
"j.	c #75623D",
"k.	c #57482D",
"l.	c #957F55",
"m.	c #9A8156",
"n.	c #7E6843",
"o.	c #4D3D24",
"p.	c #76633D",
"q.	c #9A8253",
"r.	c #907A4D",
"s.	c #695735",
"t.	c #5C4E32",
"u.	c #9D8A5E",
"v.	c #A48D5F",
"w.	c #887148",
"x.	c #514226",
"y.	c #6A5836",
"z.	c #8F794C",
"A.	c #8F784C",
"B.	c #524031",
"C.	c #5D4936",
"D.	c #473625",
"E.	c #312413",
"F.	c #503F26",
"G.	c #886F48",
"H.	c #8B704A",
"I.	c #715A3B",
"J.	c #45351F",
"K.	c #332515",
"L.	c #3D2E1D",
"M.	c #3E2F1D",
"N.	c #322414",
"O.	c #322514",
"P.	c #463625",
"Q.	c #B5A270",
"R.	c #A29063",
"S.	c #80714C",
"T.	c #5D4B31",
"U.	c #43321F",
"V.	c #59492F",
"W.	c #947E54",
"X.	c #988055",
"Y.	c #7D6742",
"Z.	c #4D3D26",
"`.	c #37291B",
" +	c #443424",
".+	c #513D28",
"++	c #54402A",
"@+	c #544029",
"#+	c #35271A",
"$+	c #58482F",
"%+	c #392A1C",
"&+	c #50422D",
"*+	c #7F704C",
"=+	c #A29163",
"-+	c #998252",
";+	c #917A4D",
">+	c #715D3A",
",+	c #523F27",
"'+	c #6C5337",
")+	c #644C32",
"!+	c #6E5B3C",
"~+	c #A18C60",
"{+	c #A68F5F",
"]+	c #8F774C",
"^+	c #665133",
"/+	c #58432E",
"(+	c #644D36",
"_+	c #70573A",
":+	c #745A3C",
"<+	c #74593C",
"[+	c #57422D",
"}+	c #55412D",
"|+	c #53402F",
"1+	c #443522",
"2+	c #917B4E",
"3+	c #665534",
"4+	c #5C482E",
"5+	c #806340",
"6+	c #836540",
"7+	c #846742",
"8+	c #90744C",
"9+	c #91754C",
"0+	c #8B6E46",
"a+	c #80633F",
"b+	c #826441",
"c+	c #856642",
"d+	c #856742",
"e+	c #80623F",
"f+	c #8C6E46",
"g+	c #826540",
"h+	c #755A3B",
"i+	c #654E36",
"j+	c #4F3F2A",
"k+	c #534327",
"l+	c #544428",
"m+	c #614A2E",
"n+	c #7B5F40",
"o+	c #7A5F40",
"p+	c #795E3F",
"q+	c #73583B",
"r+	c #72573A",
"s+	c #6C5339",
"t+	c #624C36",
"u+	c #614B36",
"v+	c #4D3B27",
"w+	c #302210",
"x+	c #654D30",
"y+	c #7D6140",
"z+	c #69523B",
"A+	c #604C39",
"B+	c #5F4A38",
"C+	c #564433",
"D+	c #534131",
"E+	c #544132",
"F+	c #544131",
"G+	c #534031",
"H+	c #584433",
"I+	c #644E36",
"J+	c #523F29",
"K+	c #302310",
"L+	c #68513B",
"M+	c #5B4735",
"N+	c #554233",
"O+	c #544233",
"P+	c #513F30",
"Q+	c #513F31",
"R+	c #574332",
"S+	c #2F220F",
"T+	c #534428",
"U+	c #4E3C2B",
"V+	c #5F4A39",
"W+	c #554333",
"X+	c #503E2F",
"Y+	c #49382A",
"Z+	c #463627",
"`+	c #473627",
" @	c #493828",
".@	c #493829",
"+@	c #4B3A2A",
"@@	c #5C4836",
"#@	c #4C3B2A",
"$@	c #5D4937",
"%@	c #4B3A2B",
"&@	c #3E2F20",
"*@	c #3C2D1E",
"=@	c #403021",
"-@	c #433323",
";@	c #483727",
">@	c #544232",
",@	c #514031",
"'@	c #433324",
")@	c #A59466",
"!@	c #5E5135",
"~@	c #453525",
"{@	c #4E3C2D",
"]@	c #4E3D2E",
"^@	c #5E4937",
"/@	c #5A4736",
"(@	c #5C4735",
"_@	c #72593D",
":@	c #695139",
"<@	c #503F31",
"[@	c #816340",
"}@	c #614B35",
"|@	c #503F30",
"1@	c #664F39",
"2@	c #836542",
"3@	c #755A3C",
"4@	c #71583E",
"5@	c #7E6140",
"6@	c #685038",
"7@	c #534328",
"8@	c #665433",
"9@	c #493922",
"0@	c #413121",
"a@	c #4C3B2B",
"b@	c #524327",
"c@	c #6E5B38",
"d@	c #3D2E1A",
"e@	c #705D39",
"f@	c #493A22",
"g@	c #917A4E",
"h@	c #8F794D",
"i@	c #816D45",
"j@	c #4B3D25",
"k@	c #2D2112",
"l@	c #2D2113",
"m@	c #8F784D",
"n@	c #927B4F",
"o@	c #67573A",
"p@	c #534531",
"q@	c #50422F",
"r@	c #3B3025",
"s@	c #322821",
"t@	c #554731",
"u@	c #534530",
"v@	c #624D3C",
"w@	c #624D3D",
"x@	c #634E3D",
"y@	c #584537",
"z@	c #4D3C30",
"A@	c #B4A170",
"B@	c #B4A16F",
"C@	c #B3A16F",
"  . + @ # # # $ % & * = - ; > , ' ) ! ~ { ] ^ / ( _ _ _ _ _ _ _ _ _ _ _ _ _ _ ( / ^ : < [ } ; > | 1 ) ! 2 3 & 4 5 5 6 6 7 8 9   ",
"0 a b c d c c e f g h i j k l m > n o p q r s t u u u u u u u u u u u u u u u u v w x y z j k l m > n o A B g q C C C C D E F 0 ",
"0 G H I J J J K L M N O P Q R S T U V W X Y Z `  . . . . . . . . . . . . . . . .` Z ..+.@.P Q R S T U V W #.M M $.$.$.$.%.H G 0 ",
"0 G H J &.&.&.*.=.-.;.>.,.'.).!.~.{.].-.-.-.^.^.^.^.^.^.^.^.^.^.^.^.^.-.-.-.-.-.-.-.-./.(.,.'.).!.~.{._.-./.-.-.:.:.:.:.$.H <.0 ",
"  a [.}.|.|.|.1.2.3.4.5.6.7.'.8.9.0.a.5.4.3.3.3.3.3.3.3.3.3.3.3.3.3.3.3.b.b.b.b.b.b.b.c.d.e.f.'.8.9.0.g.d.c.5.5.h.h.h.h.}.[.a   ",
"  a [.}.i.i.i.i.i.i.i.i.j.k.l.m.n.o.p.i.i.i.i.i.i.i.i.i.i.i.i.i.i.i.i.i.i.i.i.i.i.i.i.i.i.j.k.l.m.n.o.p.i.i.i.i.i.i.i.i.}.[.a   ",
"  a [.}.i.i.i.i.i.i.q.r.s.t.u.v.w.x.y.b.z.A.A.A.A.A.A.A.A.A.A.A.A.A.A.A.A.A.A.A.A.A.A.z.b.s.t.u.v.w.x.y.r.q.i.i.i.i.i.i.}.[.a   ",
"  B.B.a a a a a a a C.D.E.F.G.H.I.J.K.L.M.M.M.M.M.M.M.M.M.M.M.M.M.M.M.M.M.M.M.M.M.M.M.M.L.N.F.G.H.I.J.O.P.C.a a a a a a a B.B.  ",
"  [.}.i.Q.Q.Q.Q.Q.R.S.T.U.V.W.X.Y.Z.`. +.+++@+@+@+@+@+@+@+@+@+@+@+@+@+@+@+@+@+@+@+@+++.+ +#+$+W.X.Y.Z.%+&+*+=+Q.Q.Q.Q.Q.i.}.[.  ",
"  a [.}.i.i.i.-+;+>+,+'+)+!+~+{+]+^+/+(+_+:+<+<+<+<+<+<+<+<+<+<+<+<+<+<+<+<+<+<+<+<+:+_+(+[+!+~+{+]+^+}+|+1+a.b.i.i.i.i.}.[.a   ",
"  a [.}.i.i.i.2+3+4+'+5+6+7+8+9+0+6+a+b+c+d+d+d+d+d+d+d+d+d+d+d+d+d+d+d+d+d+d+d+d+d+d+c+b+e+7+8+9+f+g+h+i+|+j+k+i.i.i.i.}.[.a   ",
"  a [.}.i.i.i.A.l+m+/ n+o+p+q+r+q+<+:+<+<+<+<+<+<+<+<+<+<+<+<+<+<+<+<+<+<+<+<+<+<+<+<+<+<+:+<+r+r+q+<+s+t+u+v+w+i.i.i.i.}.[.a   ",
"  a [.}.i.i.i.A.l+x+y+z+A+B+C+D+E+E+E+E+E+E+E+E+E+E+E+E+E+E+E+E+E+E+E+E+E+E+E+E+E+E+E+E+E+E+E+E+E+E+F+G+H+I+J+K+i.i.i.i.}.[.a   ",
"  a [.}.i.i.i.A.l+}+L+M+N+O+B.P+Q+Q+Q+Q+Q+Q+Q+Q+Q+Q+Q+Q+Q+Q+Q+Q+Q+Q+Q+Q+Q+Q+Q+Q+Q+Q+Q+Q+Q+Q+Q+Q+Q+Q+B.B.D+R+D.S+i.i.i.i.}.[.a   ",
"  a [.}.i.i.i.A.T+U+V+W+B.X+Y+Z+`+ @.@.@.@.@.@.@.@.@.@.@.@.@.@.@.@.@.@.@.@.@.@.@.@.@.@.@.@.@.@.@ @+@X+B.B.P+..S+i.i.i.i.}.[.a   ",
"  B.B.a a a a @@L.#@$@W+X+%@&@*@=@-@ + + + + + + + + + + + + + + + + + + + + + + + + + + + + + +q ;@% >@B.,@'@S+a a a a a B.B.  ",
"  [.}.i.Q.Q.Q.)@!@~@>@G+Y+&@h `+{@& & & & & & & & & & & & & & & & & & & & & & & & & & & & & & & ]@G+^@/@B.Q+'@S+Q.Q.Q.Q.i.}.[.  ",
"  a [.}.i.i.i.A.T+'@P+B.Z+*@`+& B.B.B.B.B.B.B.B.B.B.B.B.B.B.B.B.B.B.B.B.B.B.B.B.B.B.B.B.B.B.B.B.Q+(@_@:@D+P+'@S+i.i.i.i.}.[.a   ",
"  a [.}.i.i.i.A.T+'@B.B.`+=@{@B.B.B.B.B.B.B.B.B.B.B.B.B.B.B.B.B.B.B.B.B.B.B.B.B.B.B.B.B.B.B.B.B.<@u [@<+E+P+'@S+i.i.i.i.}.[.a   ",
"  a [.}.i.i.i.A.T+'@B.B. @-@& B.B.B.B.B.B.B.B.B.B.B.B.B.B.B.B.B.B.B.B.B.B.B.B.B.B.B.B.B.B.B.B.B.<@}@b+:+E+P+'@S+i.i.i.i.}.[.a   ",
"  a [.}.i.i.i.A.T+'@B.B..@ +& B.B.B.B.B.B.B.B.B.B.B.B.B.B.B.B.B.B.B.B.B.B.B.B.B.B.B.B.B.B.B.B.B.<@}@b+:+E+P+'@S+i.i.i.i.}.[.a   ",
"  a [.}.i.i.i.A.T+'@B.B..@ +& B.B.B.B.B.B.B.B.B.B.B.B.B.B.B.B.B.B.B.B.B.B.B.B.B.B.B.B.B.B.B.B.B.<@}@b+:+E+P+'@S+i.i.i.i.}.[.a   ",
"  a [.}.i.i.i.A.T+'@B.B..@ +& B.B.B.B.B.B.B.B.B.B.B.B.B.B.B.B.B.B.B.B.B.B.B.B.B.B.B.B.B.B.B.B.B.<@}@b+:+E+P+'@S+i.i.i.i.}.[.a   ",
"  B.B.a a a a @@L.'@B.B..@ +& B.B.B.B.B.B.B.B.B.B.B.B.B.B.B.B.B.B.B.B.B.B.B.B.B.B.B.B.B.B.B.B.B.<@}@b+:+E+P+'@S+a a a a a B.B.  ",
"  [.}.i.Q.Q.Q.)@!@'@B.B..@ +& B.B.B.B.B.B.B.B.B.B.B.B.B.B.B.B.B.B.B.B.B.B.B.B.B.B.B.B.B.B.B.B.B.<@}@b+:+E+P+'@S+Q.Q.Q.Q.i.}.[.  ",
"  a [.}.i.i.i.A.T+'@B.B..@ +& B.B.B.B.B.B.B.B.B.B.B.B.B.B.B.B.B.B.B.B.B.B.B.B.B.B.B.B.B.B.B.B.B.<@}@b+:+E+P+'@S+i.i.i.i.}.[.a   ",
"  a [.}.i.i.i.A.T+'@B.B..@ +& B.B.B.B.B.B.B.B.B.B.B.B.B.B.B.B.B.B.B.B.B.B.B.B.B.B.B.B.B.B.B.B.B.<@}@b+:+E+P+'@S+i.i.i.i.}.[.a   ",
"  a [.}.i.i.i.A.T+'@B.B..@ +& B.B.B.B.B.B.B.B.B.B.B.B.B.B.B.B.B.B.B.B.B.B.B.B.B.B.B.B.B.B.B.B.B.<@}@b+:+E+P+'@S+i.i.i.i.}.[.a   ",
"  a [.}.i.i.i.A.T+'@B.B..@ +& B.B.B.B.B.B.B.B.B.B.B.B.B.B.B.B.B.B.B.B.B.B.B.B.B.B.B.B.B.B.B.B.B.<@}@b+:+E+P+'@S+i.i.i.i.}.[.a   ",
"  a [.}.i.i.i.A.T+'@B.B..@ +& B.B.B.B.B.B.B.B.B.B.B.B.B.B.B.B.B.B.B.B.B.B.B.B.B.B.B.B.B.B.B.B.B.<@}@b+:+E+P+'@S+i.i.i.i.}.[.a   ",
"  a [.}.i.i.i.A.T+'@B.B..@ +& B.B.B.B.B.B.B.B.B.B.B.B.B.B.B.B.B.B.B.B.B.B.B.B.B.B.B.B.B.B.B.B.B.<@}@b+:+E+P+'@S+i.i.i.i.}.[.a   ",
"  B.B.a a a a @@L.'@B.B..@ +& B.B.B.B.B.B.B.B.B.B.B.B.B.B.B.B.B.B.B.B.B.B.B.B.B.B.B.B.B.B.B.B.B.<@}@b+:+E+P+'@S+a a a a a B.B.  ",
"  [.}.i.Q.Q.Q.)@!@'@B.B..@ +& B.B.B.B.B.B.B.B.B.B.B.B.B.B.B.B.B.B.B.B.B.B.B.B.B.B.B.B.B.B.B.B.B.<@}@b+:+E+P+'@S+Q.Q.Q.Q.i.}.[.  ",
"  a [.}.i.i.i.A.T+'@B.B..@ +& B.B.B.B.B.B.B.B.B.B.B.B.B.B.B.B.B.B.B.B.B.B.B.B.B.B.B.B.B.B.B.B.B.<@}@b+:+E+P+'@S+i.i.i.i.}.[.a   ",
"  a [.}.i.i.i.A.T+'@B.B..@ +& B.B.B.B.B.B.B.B.B.B.B.B.B.B.B.B.B.B.B.B.B.B.B.B.B.B.B.B.B.B.B.B.B.<@}@b+:+E+P+'@S+i.i.i.i.}.[.a   ",
"  a [.}.i.i.i.A.T+'@B.B..@ +& B.B.B.B.B.B.B.B.B.B.B.B.B.B.B.B.B.B.B.B.B.B.B.B.B.B.B.B.B.B.B.B.B.<@}@b+:+E+P+'@S+i.i.i.i.}.[.a   ",
"  a [.}.i.i.i.A.T+'@B.B..@ +& B.B.B.B.B.B.B.B.B.B.B.B.B.B.B.B.B.B.B.B.B.B.B.B.B.B.B.B.B.B.B.B.B.|@}@b+:+E+P+'@S+i.i.i.i.}.[.a   ",
"  a [.}.i.i.i.A.T+'@B.B..@ +& B.B.B.B.B.B.B.B.B.B.B.B.B.B.B.B.B.B.B.B.B.B.B.B.B.B.B.B.B.B.B.B.B.<@u+b+:+E+P+'@S+i.i.i.i.}.[.a   ",
"  a [.}.i.i.i.A.T+'@B.B. @q ]@Q+<@<@<@<@<@<@<@<@<@<@<@<@<@<@<@<@<@<@<@<@<@<@<@<@<@<@<@<@<@<@|@<@O+1@2@3@E+P+'@S+i.i.i.i.}.[.a   ",
"  B.B.a a a a @@L.'@B.B.+@;@G+(@u }@}@}@}@}@}@}@}@}@}@}@}@}@}@}@}@}@}@}@}@}@}@}@}@}@}@}@}@}@}@u+1@4@5@^ D+Q+'@S+a a a a a B.B.  ",
"  [.}.i.Q.Q.Q.)@!@'@P+B.X+% ^@_@[@b+b+b+b+b+b+b+b+b+b+b+b+b+b+b+b+b+b+b+b+b+b+b+b+b+b+b+b+b+b+b+2@5@6@< B.P+'@S+Q.Q.Q.Q.i.}.[.  ",
"  a [.}.i.i.i.A.7@Y %@P+B.>@/@:@<+:+:+:+:+:+:+:+:+:+:+:+:+:+:+:+:+:+:+:+:+:+:+:+:+:+:+:+:+:+:+:+3@^ < Q+P+%@Y S+i.i.i.i.}.[.a   ",
"  a [.}.i.i.i.2+8@9@0@a@P+B.B.D+E+E+E+E+E+E+E+E+E+E+E+E+E+E+E+E+E+E+E+E+E+E+E+E+E+E+E+E+E+E+E+E+E+D+B.P+a@0@9@b@i.i.i.i.}.[.a   ",
"  a [.}.i.i.i.-+;+c@d@0@%@P+,@P+P+P+P+P+P+P+P+P+P+P+P+P+P+P+P+P+P+P+P+P+P+P+P+P+P+P+P+P+P+P+P+P+P+Q+P+%@0@d@c@b.i.i.i.i.}.[.a   ",
"  a [.}.i.i.i.i.i.b.e@f@Y -@'@'@'@'@'@'@'@'@'@'@'@'@'@'@'@'@'@'@'@'@'@'@'@'@'@'@'@'@'@'@'@'@'@'@'@'@-@Y f@e@b.i.i.i.i.i.}.[.a   ",
"  a [.}.i.i.i.q.g@h@i@j@k@l@l@l@l@l@l@l@l@l@l@l@l@l@l@l@l@l@l@l@l@l@l@l@l@l@l@l@l@l@l@l@l@l@l@l@l@l@l@k@j@i@h@m@i.i.i.i.}.[.a   ",
"  a [.}.i.i.i.n@o@p@q@r@s@s@s@s@s@s@s@s@s@s@s@s@s@s@s@s@s@s@s@s@s@s@s@s@s@s@s@s@s@s@s@s@s@s@s@s@s@s@s@s@r@q@t@u@i.i.i.i.}.[.a   ",
"  B.B.a a a a a v@w@w@w@x@w@w@x@w@w@x@w@w@x@w@w@x@w@w@x@w@w@x@w@w@x@w@w@x@w@w@x@w@w@x@w@w@x@w@w@x@w@w@x@w@w@y@z@a a a a a B.B.  ",
"  [.}.i.Q.Q.Q.Q.A@A@A@A@A@A@A@A@A@A@A@A@A@A@A@A@A@A@A@A@A@A@A@A@A@A@A@A@A@A@A@A@A@A@A@A@A@A@A@A@A@A@A@A@A@B@B@C@Q.Q.Q.Q.i.}.[.  ",
"  a [.}.i.i.i.i.i.i.i.i.i.i.i.i.i.i.i.i.i.i.i.i.i.i.i.i.i.i.i.i.i.i.i.i.i.i.i.i.i.i.i.i.i.i.i.i.i.i.i.i.i.i.i.i.i.i.i.i.}.[.a   ",
"  a [.}.i.i.i.i.i.i.i.i.i.i.i.i.i.i.i.i.i.i.i.i.i.i.i.i.i.i.i.i.i.i.i.i.i.i.i.i.i.i.i.i.i.i.i.i.i.i.i.i.i.i.i.i.i.i.i.i.}.[.a   ",
"  a [.}.i.i.i.i.i.i.i.i.i.i.i.i.i.i.i.i.i.i.i.i.i.i.i.i.i.i.i.i.i.i.i.i.i.i.i.i.i.i.i.i.i.i.i.i.i.i.i.i.i.i.i.i.i.i.i.i.}.[.a   ",
"  a [.}.i.i.i.i.i.i.i.i.i.i.i.i.i.i.i.i.i.i.i.i.i.i.i.i.i.i.i.i.i.i.i.i.i.i.i.i.i.i.i.i.i.i.i.i.i.i.i.i.i.i.i.i.i.i.i.i.}.[.a   ",
"  a [.}.i.i.i.i.i.i.i.i.i.i.i.i.i.i.i.i.i.i.i.i.i.i.i.i.i.i.i.i.i.i.i.i.i.i.i.i.i.i.i.i.i.i.i.i.i.i.i.i.i.i.i.i.i.i.i.i.}.[.a   ",
"  a [.}.i.i.i.i.i.i.i.i.i.i.i.i.i.i.i.i.i.i.i.i.i.i.i.i.i.i.i.i.i.i.i.i.i.i.i.i.i.i.i.i.i.i.i.i.i.i.i.i.i.i.i.i.i.i.i.i.}.[.a   ",
"B.B.B.a a a a a a a a a a a a a a a a a a a a a a a a a a a a a a a a a a a a a a a a a a a a a a a a a a a a a a a a a a B.B.B.",
"  [.}.i.Q.Q.Q.Q.Q.Q.Q.Q.Q.Q.Q.Q.Q.Q.Q.Q.Q.Q.Q.Q.Q.Q.Q.Q.Q.Q.Q.Q.Q.Q.Q.Q.Q.Q.Q.Q.Q.Q.Q.Q.Q.Q.Q.Q.Q.Q.Q.Q.Q.Q.Q.Q.Q.Q.Q.Q.i.}.[.  ",
"  a [.}.i.i.i.i.i.i.i.i.i.i.i.i.i.i.i.i.i.i.i.i.i.i.i.i.i.i.i.i.i.i.i.i.i.i.i.i.i.i.i.i.i.i.i.i.i.i.i.i.i.i.i.i.i.i.i.i.}.[.a   ",
"  a [.}.i.i.i.i.i.i.i.i.i.i.i.i.i.i.i.i.i.i.i.i.i.i.i.i.i.i.i.i.i.i.i.i.i.i.i.i.i.i.i.i.i.i.i.i.i.i.i.i.i.i.i.i.i.i.i.i.}.[.a   ",
"  a [.}.i.i.i.i.i.i.i.i.i.i.i.i.i.i.i.i.i.i.i.i.i.i.i.i.i.i.i.i.i.i.i.i.i.i.i.i.i.i.i.i.i.i.i.i.i.i.i.i.i.i.i.i.i.i.i.i.}.[.a   ",
"  a [.}.}.}.}.}.}.}.}.}.}.}.}.}.}.}.}.}.}.}.}.}.}.}.}.}.}.}.}.}.}.}.}.}.}.}.}.}.}.}.}.}.}.}.}.}.}.}.}.}.}.}.}.}.}.}.}.}.}.[.a   ",
"  a [.}.}.}.}.}.}.}.}.}.}.}.}.}.}.}.}.}.}.}.}.}.}.}.}.}.}.}.}.}.}.}.}.}.}.}.}.}.}.}.}.}.}.}.}.}.}.}.}.}.}.}.}.}.}.}.}.}.}.[.a   ",
"  a [.[.[.[.[.[.[.[.[.[.[.[.[.[.[.[.[.[.[.[.[.[.[.[.[.[.[.[.[.[.[.[.[.[.[.[.[.[.[.[.[.[.[.[.[.[.[.[.[.[.[.[.[.[.[.[.[.[.[.[.a   ",
"                                                                                                                                "};
