/* XPM */
static char *_e928cc5599e49c8aad42dbc1b6acb08[] = {
/* columns rows colors chars-per-pixel */
"64 64 29 1 ",
"  c grey12",
". c #330303",
"X c #440606",
"o c #490606",
"O c #4C0707",
"+ c #520808",
"@ c #670D0D",
"# c #720F0F",
"$ c #7A1111",
"% c #7F1212",
"& c #811313",
"* c #851414",
"= c #8E1616",
"- c #951717",
"; c #971818",
": c #9B1919",
"> c #9D1919",
", c #A61B1B",
"< c #AD1D1D",
"1 c #B01D1D",
"2 c #B51E1E",
"3 c #BF2121",
"4 c #C02121",
"5 c #C52222",
"6 c #C92323",
"7 c #C68217",
"8 c #F5C533",
"9 c #F7FF74",
"0 c white",
/* pixels */
"                                                                ",
"                                                                ",
"                ..                                              ",
"    ++          @@                                              ",
" o=>:*### oooo  ##                                              ",
"    ,,<##=====  ##                                              ",
"     o:  o      ##                                              ",
"      >         ##  o##   o==      ooOX              ..oo       ",
"      =&        ##>>=##    #&     >==;%              <<1:       ",
"      #-        #,,   >    o=    >1            =,    >          ",
"      ##        #,o   =o    >    =&>=          o=    >          ",
"      ##        --    =,    >      o:-#        o=    >== o      ",
"                ##    ,#    =o       -#         >     oo>=      ",
"                      o              @=         >        >      ",
"                                 ooo=:=         >       =>      ",
"                                 ===:o          =o  >=#-:o      ",
"                                                     o#-        ",
"                                ...                             ",
"                               .....                            ",
"                               ..  .                            ",
"                               ..                               ",
"                               ..                               ",
"                             ++@+++                             ",
"                             ++#+++                             ",
"                             ++@+++                             ",
"                           ++++++++++                           ",
"                         ++++++++++++++                         ",
"                        ++++++++++++++++                        ",
"                       +++++@++++++++++++                       ",
"                       ++++@#@+++++++++++                       ",
"                      ++++@###@+++++++++++                      ",
"                      +++++@#@++++++++++++                      ",
"                     +++++++@++++++++++++++                     ",
"                     ++++++++++++++++++++++                     ",
"                     ++++++++++++++++++++@+                     ",
"                     ++++++++++++++++++++@+                     ",
"                     ++++++++++++++++++++@+                     ",
"                     +++++++++++++++++++@++                     ",
"                      ++++++++++++++++++@+                      ",
"                      +++++++++++++++++@++                      ",
"                       ++++++++++++++++@+                       ",
"                        ++++++++++++@@++                        ",
"                         +++++++++@@+++                         ",
"                           ++++@@@+++                           ",
"                             ++++++                             "; 
"                                                                ",
"           >>                                                   ",
"         =:4;o           #                                      ",
"       &=o&,2            #                                      ",
"       ,o ##=o           =o                                     ",
"     o=   ,&=&           =o                          @$         ",
"      >   , #-           =o                          @$         ",
"     o= #== ##           ,&               o          o=         ",
"     o=>#o  ##           ##@=>>=o         =  &==  oo  >         ",
"            ::           #1=   ::#    5:  > =& ,:===  >         ",
"            ::           --     =& #:=-&  >=,  &<  1# =o #      ",
"                         --     o= -& ##  #1   @1  ## =@=#=     ",
"                         #6@     >o=  ,&  ::   <:  o= :3  ::    ",
"                         &2>o  o=>o=  :o  ,&   &=   > &,   :o   ",
"                         o= =>>,& o=1==   ,&        > ,&   =o   ",
"                                  o=#o     >        > ,=:oo:o   ",
"                                                    >   ====    ",
"                                                                ",
"                                                                "
};
