/* XPM */
static char * bomb2_xpm[] = {
"64 64 54 1",
" 	c None",
".	c #E4A570",
"+	c #E5A670",
"@	c #C18D6A",
"#	c #C9936B",
"$	c #C99268",
"%	c #C18C64",
"&	c #252B43",
"*	c #212942",
"=	c #544652",
"-	c #786063",
";	c #846764",
">	c #826259",
",	c #74584F",
"'	c #514148",
")	c #222A43",
"!	c #242A42",
"~	c #39415A",
"{	c #505A76",
"]	c #232941",
"^	c #495369",
"/	c #6B7A93",
"(	c #455269",
"_	c #1E2843",
":	c #202841",
"<	c #4A536A",
"[	c #6D7B94",
"}	c #2A314C",
"|	c #323A59",
"1	c #262D46",
"2	c #282F4A",
"3	c #262C45",
"4	c #252B44",
"5	c #3B435F",
"6	c #4F5A76",
"7	c #505B78",
"8	c #6F7D97",
"9	c #6A7792",
"0	c #8190AA",
"a	c #8898B2",
"b	c #272D46",
"c	c #2A314B",
"d	c #252B42",
"e	c #2C334F",
"f	c #353F5F",
"g	c #353E5F",
"h	c #363F5F",
"i	c #2E3653",
"j	c #333C5B",
"k	c #2B334E",
"l	c #2F3754",
"m	c #303856",
"n	c #374062",
"o	c #394365",
"                                                                ",
"                                                                ",
"                                                                ",
"                                                                ",
"                                                                ",
"                                                                ",
"                                ......                          ",
"                                ......                          ",
"                              ..........                        ",
"                              ..........                        ",
"                              ....    ..                        ",
"                              ....    ..                        ",
"                              ....                              ",
"                              ++++                              ",
"                              ....                              ",
"                              @#$%                              ",
"                          &*&=-;>,'&)&                          ",
"                          &!&~{{~&!&&&                          ",
"                          &]&^//(_:&&&                          ",
"                          &]&<[[<&]&&&                          ",
"                          &!&~{{~&!&&&                          ",
"                          &&&}||}&&&&&                          ",
"                      &&&&&&&1221&&&&&&&&&                      ",
"                      &&&&&&&&&&&&&&&&&&&&                      ",
"                  &&&&&&&&&&&&&&&&&&&&&&&&&&&&                  ",
"                  &&&&&&&&&&&&&&&&&&&&&&&&&&&&                  ",
"                &&&&&&&&&&&&&&&&&&&&&&&&&&&&&&&&                ",
"                &&&&&&&3223&&&&&&&&&&&&&&&&&&&&&                ",
"              &&&&&&&&&}||}&&&&&&&&&&&&&&&&&&&&&&&              ",
"              &&&&&&&42566524&&&&&&&&&&&&&&&&&&&&&              ",
"              &&&&&&&2|7887|2&&&&&&&&&&&&&&&&&&&&&              ",
"              &&&&&3}57900975}3&&&&&&&&&&&&&&&&&&&              ",
"            &&&&&&&2|680aa086|2&&&&&&&&&&&&&&&&&&&&&            ",
"            &&&&&&&2|680aa086|2&&&&&&&&&&&&&&&&&&&&&            ",
"            &&&&&&&3}57900975}3&&&&&&&&&&&&&&&&&&&&&            ",
"            &&&&&&&&&2|7887|2&&&&&&&&&&&&&&&&&&&&&&&            ",
"          &&&&&&&&&&&42566524&&&&&&&&&&&&&&&&&&&&&&&&&          ",
"          &&&&&&&&&&&&&}||}&&&&&&&&&&&&&&&&&&&&&&&&&&&          ",
"          &&&&&&&&&&&&&3223&&&&&&&&&&&&&&&&&&&&&&&&&&&          ",
"          &&&&&&&&&&&&&&&&&&&&&&&&&&&&&&&&&&&&&&&b}cb&          ",
"          &&&&&&&&&&&&&&&&&&&&&&&&&&&&&&&&&&&&&&&}||}&          ",
"          &&&&&&&&&&&&&&&&&&&&&&&&&&&&&&&&&&&&&d&efge&          ",
"          &&&&&&&&&&&&&&&&&&&&&&&&&&&&&&&&&&&&&d&ehfe&          ",
"          &&&&&&&&&&&&&&&&&&&&&&&&&&&&&&&&&&&&&d&effe&          ",
"          &&&&&&&&&&&&&&&&&&&&&&&&&&&&&&&&&&&&&d&efge&          ",
"          &&&&&&&&&&&&&&&&&&&&&&&&&&&&&&&&&&&&&b}ij|}&          ",
"          &&&&&&&&&&&&&&&&&&&&&&&&&&&&&&&&&&&&&}|jicb&          ",
"          &&&&&&&&&&&&&&&&&&&&&&&&&&&&&&&&&&&d&efhe&d&          ",
"            &&&&&&&&&&&&&&&&&&&&&&&&&&&&&&&&&d&ehfe&            ",
"            &&&&&&&&&&&&&&&&&&&&&&&&&&&&&&&&&b}ij|}&            ",
"            &&&&&&&&&&&&&&&&&&&&&&&&&&&&&&&&&}|jicb&            ",
"            &&&&&&&&&&&&&&&&&&&&&&&&&&&&&&&!defhe&d&            ",
"              &&&&&&&&&&&&&&&&&&&&&&&&&&&&&d&ehfe&              ",
"              &&&&&&&&&&&&&&&&&&&&&&&&&&&bckelj|}&              ",
"              &&&&&&&&&&&&&&&&&&&&&&&&&&&}|fhjicb&              ",
"              &&&&&&&&&&&&&&&&&&&&&&&dd1}mnon|c&&&              ",
"                &&&&&&&&&&&&&&&&&&&&&&&c|nonm}1&                ",
"                &&&&&&&&&&&&&&&ddddb}eeijhf|c&&&                ",
"                  &&&&&&&&&&&&&&&&&}|fhjiekcb&                  ",
"                  &&&&&&&&&&&b}eeeeijhf|c&&&&&                  ",
"                      &&&&&&&}|fhffjiee}bd                      ",
"                      &&&&&&&}|fhhf|}&&&&&                      ",
"                          &&&b}eeee}bd                          ",
"                          &&&&&&&&&&&&                          "};
