/* XPM */
static char * bomb_full_xpm[] = {
"64 64 437 2",
"  	c #4D3C2D",
". 	c #534231",
"+ 	c #594634",
"@ 	c #5B4935",
"# 	c #5E4C38",
"$ 	c #5B4936",
"% 	c #524030",
"& 	c #4F3D2E",
"* 	c #4A3829",
"= 	c #3B2C1B",
"- 	c #6E5838",
"; 	c #967C53",
"> 	c #A48F62",
", 	c #958159",
"' 	c #856E4B",
") 	c #91794E",
"! 	c #735F3A",
"~ 	c #3F301E",
"{ 	c #564331",
"] 	c #634D37",
"^ 	c #6E553A",
"/ 	c #7D603F",
"( 	c #816440",
"_ 	c #806440",
": 	c #644E39",
"< 	c #584533",
"[ 	c #40311F",
"} 	c #6E5837",
"| 	c #95815A",
"1 	c #856F4B",
"2 	c #3B2D1B",
"3 	c #4A3929",
"4 	c #4E3E2E",
"5 	c #63533C",
"6 	c #64533C",
"7 	c #5E4B35",
"8 	c #5B4934",
"9 	c #564333",
"0 	c #4F3E2E",
"a 	c #634E3B",
"b 	c #7A6149",
"c 	c #7D654A",
"d 	c #7E654A",
"e 	c #755E44",
"f 	c #53402D",
"g 	c #443423",
"h 	c #3F2F1F",
"i 	c #392B18",
"j 	c #83724D",
"k 	c #A49062",
"l 	c #8B7651",
"m 	c #968259",
"n 	c #93784E",
"o 	c #6B5332",
"p 	c #382917",
"q 	c #443323",
"r 	c #513E2D",
"s 	c #594533",
"t 	c #5F4A35",
"u 	c #604B35",
"v 	c #5F4935",
"w 	c #5A4633",
"x 	c #574433",
"y 	c #4F3D2D",
"z 	c #3D2F1D",
"A 	c #372816",
"B 	c #3F3020",
"C 	c #7A6248",
"D 	c #7A6148",
"E 	c #785F47",
"F 	c #624D3A",
"G 	c #644F3C",
"H 	c #7D644A",
"I 	c #89764E",
"J 	c #8A774E",
"K 	c #7F6D47",
"L 	c #504128",
"M 	c #372917",
"N 	c #342614",
"O 	c #352815",
"P 	c #7C6945",
"Q 	c #978056",
"R 	c #6E5839",
"S 	c #756341",
"T 	c #8A774F",
"U 	c #806643",
"V 	c #5F482D",
"W 	c #332512",
"X 	c #342615",
"Y 	c #3D2E1E",
"Z 	c #413223",
"` 	c #413123",
" .	c #403123",
"..	c #423324",
"+.	c #3E2E1F",
"@.	c #382A18",
"#.	c #352715",
"$.	c #8A764E",
"%.	c #89744D",
"&.	c #8D794F",
"*.	c #847149",
"=.	c #5E4E31",
"-.	c #4D3F25",
";.	c #4C3E25",
">.	c #4E3F26",
",.	c #6B5434",
"'.	c #795D3A",
").	c #624A2B",
"!.	c #543F23",
"~.	c #574228",
"{.	c #624B32",
"].	c #5B472E",
"^.	c #4D3F26",
"/.	c #4C3F25",
"(.	c #4E3F25",
"_.	c #5A472E",
":.	c #8C794E",
"<.	c #644F3B",
"[.	c #7E644B",
"}.	c #8B784E",
"|.	c #9B8354",
"1.	c #998153",
"2.	c #907A4E",
"3.	c #8E774C",
"4.	c #8E784C",
"5.	c #8D774B",
"6.	c #725D3A",
"7.	c #5B4529",
"8.	c #785C3B",
"9.	c #634C32",
"0.	c #4C3A23",
"a.	c #6F5C39",
"b.	c #8E774B",
"c.	c #8D784B",
"d.	c #8C774B",
"e.	c #715D39",
"f.	c #5A4529",
"g.	c #6E5C39",
"h.	c #9A8353",
"i.	c #9C8454",
"j.	c #75623D",
"k.	c #57482D",
"l.	c #957F55",
"m.	c #9A8156",
"n.	c #7E6843",
"o.	c #4D3D24",
"p.	c #76633D",
"q.	c #9A8253",
"r.	c #907A4D",
"s.	c #695735",
"t.	c #5C4E32",
"u.	c #9D8A5E",
"v.	c #A48D5F",
"w.	c #887148",
"x.	c #514226",
"y.	c #6A5836",
"z.	c #8F794C",
"A.	c #8F784C",
"B.	c #524031",
"C.	c #5D4936",
"D.	c #473625",
"E.	c #312413",
"F.	c #503F26",
"G.	c #886F48",
"H.	c #8B704A",
"I.	c #715A3B",
"J.	c #45351F",
"K.	c #332515",
"L.	c #3D2E1D",
"M.	c #3E2F1D",
"N.	c #322414",
"O.	c #322514",
"P.	c #463625",
"Q.	c #B5A270",
"R.	c #A29063",
"S.	c #80714C",
"T.	c #5D4B31",
"U.	c #43321F",
"V.	c #59492F",
"W.	c #947E54",
"X.	c #988055",
"Y.	c #7D6742",
"Z.	c #4D3D26",
"`.	c #37291B",
" +	c #443424",
".+	c #513D28",
"++	c #54402A",
"@+	c #544029",
"#+	c #35271A",
"$+	c #58482F",
"%+	c #392A1C",
"&+	c #50422D",
"*+	c #7F704C",
"=+	c #A29163",
"-+	c #998252",
";+	c #917A4D",
">+	c #715D3A",
",+	c #523F27",
"'+	c #6C5337",
")+	c #644C32",
"!+	c #6E5B3C",
"~+	c #A18C60",
"{+	c #A68F5F",
"]+	c #8F774C",
"^+	c #665133",
"/+	c #58432E",
"(+	c #644D36",
"_+	c #70573A",
":+	c #745A3C",
"<+	c #74593C",
"[+	c #57422D",
"}+	c #55412D",
"|+	c #53402F",
"1+	c #443522",
"2+	c #917B4E",
"3+	c #665534",
"4+	c #5C482E",
"5+	c #806340",
"6+	c #836540",
"7+	c #846742",
"8+	c #90744C",
"9+	c #91754C",
"0+	c #8B6E46",
"a+	c #80633F",
"b+	c #826441",
"c+	c #856642",
"d+	c #856742",
"e+	c #80623F",
"f+	c #8C6E46",
"g+	c #826540",
"h+	c #755A3B",
"i+	c #654E36",
"j+	c #4F3F2A",
"k+	c #534327",
"l+	c #544428",
"m+	c #614A2E",
"n+	c #7B5F40",
"o+	c #7A5F40",
"p+	c #795E3F",
"q+	c #73583B",
"r+	c #72573A",
"s+	c #6C5339",
"t+	c #624C36",
"u+	c #614B36",
"v+	c #4D3B27",
"w+	c #302210",
"x+	c #654D30",
"y+	c #7D6140",
"z+	c #69523B",
"A+	c #604C39",
"B+	c #5F4A38",
"C+	c #564433",
"D+	c #534131",
"E+	c #544132",
"F+	c #544131",
"G+	c #534031",
"H+	c #584433",
"I+	c #644E36",
"J+	c #523F29",
"K+	c #302310",
"L+	c #68513B",
"M+	c #5B4735",
"N+	c #554233",
"O+	c #544233",
"P+	c #513F30",
"Q+	c #513F31",
"R+	c #574332",
"S+	c #2F220F",
"T+	c #534428",
"U+	c #4E3C2B",
"V+	c #5F4A39",
"W+	c #554333",
"X+	c #503E2F",
"Y+	c #49382A",
"Z+	c #463627",
"`+	c #473627",
" @	c #493828",
".@	c #493829",
"+@	c #4B3A2A",
"@@	c #5C4836",
"#@	c #4C3B2A",
"$@	c #5D4937",
"%@	c #4B3A2B",
"&@	c #3E2F20",
"*@	c #3C2D1E",
"=@	c #403021",
"-@	c #433323",
";@	c #483727",
">@	c #544232",
",@	c #514031",
"'@	c #433324",
")@	c #A59466",
"!@	c #5E5135",
"~@	c #453525",
"{@	c #4E3C2D",
"]@	c #503E2E",
"^@	c #B6845A",
"/@	c #B9865C",
"(@	c #866244",
"_@	c #4E3D2E",
":@	c #5E4937",
"<@	c #5A4736",
"[@	c #C48E61",
"}@	c #E4A570",
"|@	c #DA9E6B",
"1@	c #7B5B41",
"2@	c #5C4735",
"3@	c #72593D",
"4@	c #695139",
"5@	c #D69B69",
"6@	c #D69B6A",
"7@	c #5E4835",
"8@	c #B7855B",
"9@	c #815F43",
"0@	c #503F31",
"a@	c #816340",
"b@	c #614B35",
"c@	c #4B3C35",
"d@	c #3D353A",
"e@	c #9F7763",
"f@	c #9E7459",
"g@	c #433839",
"h@	c #222840",
"i@	c #6F7E98",
"j@	c #242F49",
"k@	c #252B43",
"l@	c #503F32",
"m@	c #42373A",
"n@	c #242A42",
"o@	c #424C6A",
"p@	c #272D45",
"q@	c #4D3D34",
"r@	c #493B36",
"s@	c #272C43",
"t@	c #262B43",
"u@	c #4C3D35",
"v@	c #2E2F41",
"w@	c #252B42",
"x@	c #2F2F41",
"y@	c #282E48",
"z@	c #2D3452",
"A@	c #483B37",
"B@	c #282E47",
"C@	c #525E7A",
"D@	c #6D7B95",
"E@	c #2D3450",
"F@	c #4F3E33",
"G@	c #3E4766",
"H@	c #8292AC",
"I@	c #8898B2",
"J@	c #596581",
"K@	c #443939",
"L@	c #262C44",
"M@	c #48526E",
"N@	c #626E89",
"O@	c #272E4A",
"P@	c #282C42",
"Q@	c #262C46",
"R@	c #29304C",
"S@	c #2A2D42",
"T@	c #252A42",
"U@	c #323B5A",
"V@	c #2B2F46",
"W@	c #353E5F",
"X@	c #2C3047",
"Y@	c #292C42",
"Z@	c #282F49",
"`@	c #333C5B",
" #	c #3F363B",
".#	c #313A58",
"+#	c #2C344F",
"@#	c #2A314C",
"##	c #272D46",
"$#	c #463A38",
"%#	c #2D3451",
"&#	c #303856",
"*#	c #463937",
"=#	c #2B2D42",
"-#	c #2A314B",
";#	c #394265",
">#	c #323B59",
",#	c #2B2D41",
"'#	c #503F30",
")#	c #493B37",
"!#	c #2C2E41",
"~#	c #292F49",
"{#	c #303855",
"]#	c #313957",
"^#	c #2C2D41",
"/#	c #483B36",
"(#	c #343D5D",
"_#	c #323A59",
":#	c #2E3652",
"<#	c #433838",
"[#	c #664F39",
"}#	c #836542",
"|#	c #755A3C",
"1#	c #5B4737",
"2#	c #4A3D3D",
"3#	c #29304A",
"4#	c #4A3D3C",
"5#	c #71583E",
"6#	c #7E6140",
"7#	c #685038",
"8#	c #534328",
"9#	c #665433",
"0#	c #493922",
"a#	c #413121",
"b#	c #4C3B2B",
"c#	c #524327",
"d#	c #6E5B38",
"e#	c #3D2E1A",
"f#	c #705D39",
"g#	c #493A22",
"h#	c #917A4E",
"i#	c #8F794D",
"j#	c #816D45",
"k#	c #4B3D25",
"l#	c #2D2112",
"m#	c #2D2113",
"n#	c #8F784D",
"o#	c #927B4F",
"p#	c #67573A",
"q#	c #534531",
"r#	c #50422F",
"s#	c #3B3025",
"t#	c #322821",
"u#	c #554731",
"v#	c #534530",
"w#	c #624D3C",
"x#	c #624D3D",
"y#	c #634E3D",
"z#	c #584537",
"A#	c #4D3C30",
"B#	c #B4A170",
"C#	c #B4A16F",
"D#	c #B3A16F",
"  . + @ # # # $ % & * = - ; > , ' ) ! ~ { ] ^ / ( _ _ _ _ _ _ _ _ _ _ _ _ _ _ ( / ^ : < [ } ; > | 1 ) ! 2 3 & 4 5 5 6 6 7 8 9   ",
"0 a b c d c c e f g h i j k l m > n o p q r s t u u u u u u u u u u u u u u u u v w x y z j k l m > n o A B g q C C C C D E F 0 ",
"0 G H I J J J K L M N O P Q R S T U V W X Y Z `  . . . . . . . . . . . . . . . .` Z ..+.@.P Q R S T U V W #.M M $.$.$.$.%.H G 0 ",
"0 G H J &.&.&.*.=.-.;.>.,.'.).!.~.{.].-.-.-.^.^.^.^.^.^.^.^.^.^.^.^.^.-.-.-.-.-.-.-.-./.(.,.'.).!.~.{._.-./.-.-.:.:.:.:.$.H <.0 ",
"  a [.}.|.|.|.1.2.3.4.5.6.7.'.8.9.0.a.5.4.3.3.3.3.3.3.3.3.3.3.3.3.3.3.3.b.b.b.b.b.b.b.c.d.e.f.'.8.9.0.g.d.c.5.5.h.h.h.h.}.[.a   ",
"  a [.}.i.i.i.i.i.i.i.i.j.k.l.m.n.o.p.i.i.i.i.i.i.i.i.i.i.i.i.i.i.i.i.i.i.i.i.i.i.i.i.i.i.j.k.l.m.n.o.p.i.i.i.i.i.i.i.i.}.[.a   ",
"  a [.}.i.i.i.i.i.i.q.r.s.t.u.v.w.x.y.b.z.A.A.A.A.A.A.A.A.A.A.A.A.A.A.A.A.A.A.A.A.A.A.z.b.s.t.u.v.w.x.y.r.q.i.i.i.i.i.i.}.[.a   ",
"  B.B.a a a a a a a C.D.E.F.G.H.I.J.K.L.M.M.M.M.M.M.M.M.M.M.M.M.M.M.M.M.M.M.M.M.M.M.M.M.L.N.F.G.H.I.J.O.P.C.a a a a a a a B.B.  ",
"  [.}.i.Q.Q.Q.Q.Q.R.S.T.U.V.W.X.Y.Z.`. +.+++@+@+@+@+@+@+@+@+@+@+@+@+@+@+@+@+@+@+@+@+++.+ +#+$+W.X.Y.Z.%+&+*+=+Q.Q.Q.Q.Q.i.}.[.  ",
"  a [.}.i.i.i.-+;+>+,+'+)+!+~+{+]+^+/+(+_+:+<+<+<+<+<+<+<+<+<+<+<+<+<+<+<+<+<+<+<+<+:+_+(+[+!+~+{+]+^+}+|+1+a.b.i.i.i.i.}.[.a   ",
"  a [.}.i.i.i.2+3+4+'+5+6+7+8+9+0+6+a+b+c+d+d+d+d+d+d+d+d+d+d+d+d+d+d+d+d+d+d+d+d+d+d+c+b+e+7+8+9+f+g+h+i+|+j+k+i.i.i.i.}.[.a   ",
"  a [.}.i.i.i.A.l+m+/ n+o+p+q+r+q+<+:+<+<+<+<+<+<+<+<+<+<+<+<+<+<+<+<+<+<+<+<+<+<+<+<+<+<+:+<+r+r+q+<+s+t+u+v+w+i.i.i.i.}.[.a   ",
"  a [.}.i.i.i.A.l+x+y+z+A+B+C+D+E+E+E+E+E+E+E+E+E+E+E+E+E+E+E+E+E+E+E+E+E+E+E+E+E+E+E+E+E+E+E+E+E+E+F+G+H+I+J+K+i.i.i.i.}.[.a   ",
"  a [.}.i.i.i.A.l+}+L+M+N+O+B.P+Q+Q+Q+Q+Q+Q+Q+Q+Q+Q+Q+Q+Q+Q+Q+Q+Q+Q+Q+Q+Q+Q+Q+Q+Q+Q+Q+Q+Q+Q+Q+Q+Q+Q+B.B.D+R+D.S+i.i.i.i.}.[.a   ",
"  a [.}.i.i.i.A.T+U+V+W+B.X+Y+Z+`+ @.@.@.@.@.@.@.@.@.@.@.@.@.@.@.@.@.@.@.@.@.@.@.@.@.@.@.@.@.@.@ @+@X+B.B.P+..S+i.i.i.i.}.[.a   ",
"  B.B.a a a a @@L.#@$@W+X+%@&@*@=@-@ + + + + + + + + + + + + + + + + + + + + + + + + + + + + + +q ;@% >@B.,@'@S+a a a a a B.B.  ",
"  [.}.i.Q.Q.Q.)@!@~@>@G+Y+&@h `+{@& & & & & & & & & & & & & ]@^@/@(@& & & & & & & & & & & & & & _@G+:@<@B.Q+'@S+Q.Q.Q.Q.i.}.[.  ",
"  a [.}.i.i.i.A.T+'@P+B.Z+*@`+& B.B.B.B.B.B.B.B.B.B.B.B.B.B.[@}@}@|@1@B.B.B.B.B.B.B.B.B.B.B.B.B.Q+2@3@4@D+P+'@S+i.i.i.i.}.[.a   ",
"  a [.}.i.i.i.A.T+'@B.B.`+=@{@B.B.B.B.B.B.B.B.B.B.B.B.B.B.B.5@6@7@8@9@B.B.B.B.B.B.B.B.B.B.B.B.B.0@u a@<+E+P+'@S+i.i.i.i.}.[.a   ",
"  a [.}.i.i.i.A.T+'@B.B. @-@& B.B.B.B.B.B.B.B.B.B.B.B.B.B.B.5@5@B.B.B.B.B.B.B.B.B.B.B.B.B.B.B.B.0@b@b+:+E+P+'@S+i.i.i.i.}.[.a   ",
"  a [.}.i.i.i.A.T+'@B.B..@ +& B.B.B.B.B.B.B.B.B.B.B.B.B.c@d@e@f@d@c@B.B.B.B.B.B.B.B.B.B.B.B.B.B.0@b@b+:+E+P+'@S+i.i.i.i.}.[.a   ",
"  a [.}.i.i.i.A.T+'@B.B..@ +& B.B.B.B.B.B.B.B.B.B.B.B.B.g@h@i@j@k@g@B.B.B.B.B.B.B.B.B.B.B.B.B.B.0@b@b+:+E+P+'@S+i.i.i.i.}.[.a   ",
"  a [.}.i.i.i.A.T+'@B.B..@ +& B.B.B.B.B.B.B.B.B.B.B.B.l@m@n@o@p@k@m@l@B.B.B.B.B.B.B.B.B.B.B.B.B.0@b@b+:+E+P+'@S+i.i.i.i.}.[.a   ",
"  B.B.a a a a @@L.'@B.B..@ +& B.B.B.B.B.B.B.B.B.B.q@r@s@t@k@k@k@k@t@s@r@q@B.B.B.B.B.B.B.B.B.B.B.0@b@b+:+E+P+'@S+a a a a a B.B.  ",
"  [.}.i.Q.Q.Q.)@!@'@B.B..@ +& B.B.B.B.B.B.B.B.B.u@v@k@k@w@k@k@k@k@k@k@k@v@u@B.B.B.B.B.B.B.B.B.B.0@b@b+:+E+P+'@S+Q.Q.Q.Q.i.}.[.  ",
"  a [.}.i.i.i.A.T+'@B.B..@ +& B.B.B.B.B.B.B.B.u@x@k@k@y@z@w@k@k@k@k@k@k@k@x@u@B.B.B.B.B.B.B.B.B.0@b@b+:+E+P+'@S+i.i.i.i.}.[.a   ",
"  a [.}.i.i.i.A.T+'@B.B..@ +& B.B.B.B.B.B.B.B.A@k@k@B@C@D@E@k@k@k@k@k@k@k@k@A@B.B.B.B.B.B.B.B.B.0@b@b+:+E+P+'@S+i.i.i.i.}.[.a   ",
"  a [.}.i.i.i.A.T+'@B.B..@ +& B.B.B.B.B.B.B.F@s@k@k@G@H@I@J@y@k@k@k@k@k@k@k@s@F@B.B.B.B.B.B.B.B.0@b@b+:+E+P+'@S+i.i.i.i.}.[.a   ",
"  a [.}.i.i.i.A.T+'@B.B..@ +& B.B.B.B.B.B.B.K@k@k@k@L@M@N@O@k@k@k@k@k@k@k@k@k@K@B.B.B.B.B.B.B.B.0@b@b+:+E+P+'@S+i.i.i.i.}.[.a   ",
"  a [.}.i.i.i.A.T+'@B.B..@ +& B.B.B.B.B.B.B.P@k@k@k@k@Q@R@w@k@k@k@k@k@k@k@k@w@P@B.B.B.B.B.B.B.B.0@b@b+:+E+P+'@S+i.i.i.i.}.[.a   ",
"  a [.}.i.i.i.A.T+'@B.B..@ +& B.B.B.B.B.B.B.S@k@k@k@k@k@k@k@k@k@k@k@k@k@k@T@U@V@B.B.B.B.B.B.B.B.0@b@b+:+E+P+'@S+i.i.i.i.}.[.a   ",
"  B.B.a a a a @@L.'@B.B..@ +& B.B.B.B.B.B.B.S@k@k@k@k@k@k@k@k@k@k@k@k@k@k@n@W@X@B.B.B.B.B.B.B.B.0@b@b+:+E+P+'@S+a a a a a B.B.  ",
"  [.}.i.Q.Q.Q.)@!@'@B.B..@ +& B.B.B.B.B.B.B.Y@k@k@k@k@k@k@k@k@k@k@k@k@k@k@Z@`@V@B.B.B.B.B.B.B.B.0@b@b+:+E+P+'@S+Q.Q.Q.Q.i.}.[.  ",
"  a [.}.i.i.i.A.T+'@B.B..@ +& B.B.B.B.B.B.B. #k@k@k@k@k@k@k@k@k@k@k@k@k@T@.#+# #B.B.B.B.B.B.B.B.0@b@b+:+E+P+'@S+i.i.i.i.}.[.a   ",
"  a [.}.i.i.i.A.T+'@B.B..@ +& B.B.B.B.B.B.B.F@k@k@k@k@k@k@k@k@k@k@k@k@k@@#.###F@B.B.B.B.B.B.B.B.0@b@b+:+E+P+'@S+i.i.i.i.}.[.a   ",
"  a [.}.i.i.i.A.T+'@B.B..@ +& B.B.B.B.B.B.B.B.$#k@k@k@k@k@k@k@k@k@k@k@##%#&#*#B.B.B.B.B.B.B.B.B.0@b@b+:+E+P+'@S+i.i.i.i.}.[.a   ",
"  a [.}.i.i.i.A.T+'@B.B..@ +& B.B.B.B.B.B.B.B.c@=#k@k@k@k@k@k@k@k@w@-#;#>#,#c@B.B.B.B.B.B.B.B.B.'#b@b+:+E+P+'@S+i.i.i.i.}.[.a   ",
"  a [.}.i.i.i.A.T+'@B.B..@ +& B.B.B.B.B.B.B.B.B.)#!#k@k@k@k@T@n@~#{#>#]#^#)#B.B.B.B.B.B.B.B.B.B.0@u+b+:+E+P+'@S+i.i.i.i.}.[.a   ",
"  a [.}.i.i.i.A.T+'@B.B. @q _@Q+0@0@0@0@0@0@0@0@0@/#g@k@k@k@>#(#_#:###<#/#0@0@0@0@0@0@0@0@0@'#0@O+[#}#|#E+P+'@S+i.i.i.i.}.[.a   ",
"  B.B.a a a a @@L.'@B.B.+@;@G+2@u b@b@b@b@b@b@b@b@b@b@1#2#k@Z@3#y@4#1#b@b@b@b@b@b@b@b@b@b@b@b@u+[#5#6#^ D+Q+'@S+a a a a a B.B.  ",
"  [.}.i.Q.Q.Q.)@!@'@P+B.X+% :@3@a@b+b+b+b+b+b+b+b+b+b+b+b+b+b+b+b+b+b+b+b+b+b+b+b+b+b+b+b+b+b+b+}#6#7#< B.P+'@S+Q.Q.Q.Q.i.}.[.  ",
"  a [.}.i.i.i.A.8#Y %@P+B.>@<@4@<+:+:+:+:+:+:+:+:+:+:+:+:+:+:+:+:+:+:+:+:+:+:+:+:+:+:+:+:+:+:+:+|#^ < Q+P+%@Y S+i.i.i.i.}.[.a   ",
"  a [.}.i.i.i.2+9#0#a#b#P+B.B.D+E+E+E+E+E+E+E+E+E+E+E+E+E+E+E+E+E+E+E+E+E+E+E+E+E+E+E+E+E+E+E+E+E+D+B.P+b#a#0#c#i.i.i.i.}.[.a   ",
"  a [.}.i.i.i.-+;+d#e#a#%@P+,@P+P+P+P+P+P+P+P+P+P+P+P+P+P+P+P+P+P+P+P+P+P+P+P+P+P+P+P+P+P+P+P+P+P+Q+P+%@a#e#d#b.i.i.i.i.}.[.a   ",
"  a [.}.i.i.i.i.i.b.f#g#Y -@'@'@'@'@'@'@'@'@'@'@'@'@'@'@'@'@'@'@'@'@'@'@'@'@'@'@'@'@'@'@'@'@'@'@'@'@-@Y g#f#b.i.i.i.i.i.}.[.a   ",
"  a [.}.i.i.i.q.h#i#j#k#l#m#m#m#m#m#m#m#m#m#m#m#m#m#m#m#m#m#m#m#m#m#m#m#m#m#m#m#m#m#m#m#m#m#m#m#m#m#m#l#k#j#i#n#i.i.i.i.}.[.a   ",
"  a [.}.i.i.i.o#p#q#r#s#t#t#t#t#t#t#t#t#t#t#t#t#t#t#t#t#t#t#t#t#t#t#t#t#t#t#t#t#t#t#t#t#t#t#t#t#t#t#t#t#s#r#u#v#i.i.i.i.}.[.a   ",
"  B.B.a a a a a w#x#x#x#y#x#x#y#x#x#y#x#x#y#x#x#y#x#x#y#x#x#y#x#x#y#x#x#y#x#x#y#x#x#y#x#x#y#x#x#y#x#x#y#x#x#z#A#a a a a a B.B.  ",
"  [.}.i.Q.Q.Q.Q.B#B#B#B#B#B#B#B#B#B#B#B#B#B#B#B#B#B#B#B#B#B#B#B#B#B#B#B#B#B#B#B#B#B#B#B#B#B#B#B#B#B#B#B#B#C#C#D#Q.Q.Q.Q.i.}.[.  ",
"  a [.}.i.i.i.i.i.i.i.i.i.i.i.i.i.i.i.i.i.i.i.i.i.i.i.i.i.i.i.i.i.i.i.i.i.i.i.i.i.i.i.i.i.i.i.i.i.i.i.i.i.i.i.i.i.i.i.i.}.[.a   ",
"  a [.}.i.i.i.i.i.i.i.i.i.i.i.i.i.i.i.i.i.i.i.i.i.i.i.i.i.i.i.i.i.i.i.i.i.i.i.i.i.i.i.i.i.i.i.i.i.i.i.i.i.i.i.i.i.i.i.i.}.[.a   ",
"  a [.}.i.i.i.i.i.i.i.i.i.i.i.i.i.i.i.i.i.i.i.i.i.i.i.i.i.i.i.i.i.i.i.i.i.i.i.i.i.i.i.i.i.i.i.i.i.i.i.i.i.i.i.i.i.i.i.i.}.[.a   ",
"  a [.}.i.i.i.i.i.i.i.i.i.i.i.i.i.i.i.i.i.i.i.i.i.i.i.i.i.i.i.i.i.i.i.i.i.i.i.i.i.i.i.i.i.i.i.i.i.i.i.i.i.i.i.i.i.i.i.i.}.[.a   ",
"  a [.}.i.i.i.i.i.i.i.i.i.i.i.i.i.i.i.i.i.i.i.i.i.i.i.i.i.i.i.i.i.i.i.i.i.i.i.i.i.i.i.i.i.i.i.i.i.i.i.i.i.i.i.i.i.i.i.i.}.[.a   ",
"  a [.}.i.i.i.i.i.i.i.i.i.i.i.i.i.i.i.i.i.i.i.i.i.i.i.i.i.i.i.i.i.i.i.i.i.i.i.i.i.i.i.i.i.i.i.i.i.i.i.i.i.i.i.i.i.i.i.i.}.[.a   ",
"B.B.B.a a a a a a a a a a a a a a a a a a a a a a a a a a a a a a a a a a a a a a a a a a a a a a a a a a a a a a a a a a B.B.B.",
"  [.}.i.Q.Q.Q.Q.Q.Q.Q.Q.Q.Q.Q.Q.Q.Q.Q.Q.Q.Q.Q.Q.Q.Q.Q.Q.Q.Q.Q.Q.Q.Q.Q.Q.Q.Q.Q.Q.Q.Q.Q.Q.Q.Q.Q.Q.Q.Q.Q.Q.Q.Q.Q.Q.Q.Q.Q.Q.i.}.[.  ",
"  a [.}.i.i.i.i.i.i.i.i.i.i.i.i.i.i.i.i.i.i.i.i.i.i.i.i.i.i.i.i.i.i.i.i.i.i.i.i.i.i.i.i.i.i.i.i.i.i.i.i.i.i.i.i.i.i.i.i.}.[.a   ",
"  a [.}.i.i.i.i.i.i.i.i.i.i.i.i.i.i.i.i.i.i.i.i.i.i.i.i.i.i.i.i.i.i.i.i.i.i.i.i.i.i.i.i.i.i.i.i.i.i.i.i.i.i.i.i.i.i.i.i.}.[.a   ",
"  a [.}.i.i.i.i.i.i.i.i.i.i.i.i.i.i.i.i.i.i.i.i.i.i.i.i.i.i.i.i.i.i.i.i.i.i.i.i.i.i.i.i.i.i.i.i.i.i.i.i.i.i.i.i.i.i.i.i.}.[.a   ",
"  a [.}.}.}.}.}.}.}.}.}.}.}.}.}.}.}.}.}.}.}.}.}.}.}.}.}.}.}.}.}.}.}.}.}.}.}.}.}.}.}.}.}.}.}.}.}.}.}.}.}.}.}.}.}.}.}.}.}.}.[.a   ",
"  a [.}.}.}.}.}.}.}.}.}.}.}.}.}.}.}.}.}.}.}.}.}.}.}.}.}.}.}.}.}.}.}.}.}.}.}.}.}.}.}.}.}.}.}.}.}.}.}.}.}.}.}.}.}.}.}.}.}.}.[.a   ",
"  a [.[.[.[.[.[.[.[.[.[.[.[.[.[.[.[.[.[.[.[.[.[.[.[.[.[.[.[.[.[.[.[.[.[.[.[.[.[.[.[.[.[.[.[.[.[.[.[.[.[.[.[.[.[.[.[.[.[.[.[.a   ",
"                                                                                                                                "};
