/* XPM */
static char * crumbling_wall_xpm[] = {
"64 64 110 2",
"  	c #4B4B4B",
". 	c #474747",
"+ 	c #3A3A3A",
"@ 	c #323232",
"# 	c #333333",
"$ 	c #4C4C4C",
"% 	c #4D4D4D",
"& 	c #484848",
"* 	c #3C3C3C",
"= 	c #343434",
"- 	c #353535",
"; 	c #444444",
"> 	c #292929",
", 	c #1D1D1D",
"' 	c #2E2E2E",
") 	c #363636",
"! 	c #3D3D3D",
"~ 	c #494949",
"{ 	c #4E4E4E",
"] 	c #4F4F4F",
"^ 	c #464646",
"/ 	c #2F2F2F",
"( 	c #1C1C1C",
"_ 	c #1E1E1E",
": 	c #202020",
"< 	c #212121",
"[ 	c #222222",
"} 	c #2A2A2A",
"| 	c #393939",
"1 	c #3E3E3E",
"2 	c #3F3F3F",
"3 	c #434343",
"4 	c #4A4A4A",
"5 	c #414141",
"6 	c #404040",
"7 	c #454545",
"8 	c #242424",
"9 	c #282828",
"0 	c #383838",
"a 	c #3B3B3B",
"b 	c #424242",
"c 	c #262626",
"d 	c #2D2D2D",
"e 	c #373737",
"f 	c #272727",
"g 	c #2C2C2C",
"h 	c #2B2B2B",
"i 	c #303030",
"j 	c #505050",
"k 	c #575757",
"l 	c #525252",
"m 	c #686868",
"n 	c #666666",
"o 	c #5A5A5A",
"p 	c #515151",
"q 	c #555555",
"r 	c #717171",
"s 	c #6E6E6E",
"t 	c #565656",
"u 	c #656565",
"v 	c #252525",
"w 	c #747474",
"x 	c #5B5B5B",
"y 	c #585858",
"z 	c #595959",
"A 	c #646464",
"B 	c #737373",
"C 	c #191919",
"D 	c #787878",
"E 	c #727272",
"F 	c #696969",
"G 	c #707070",
"H 	c #171717",
"I 	c #313131",
"J 	c #636363",
"K 	c #6F6F6F",
"L 	c #6D6D6D",
"M 	c #6C6C6C",
"N 	c #626262",
"O 	c #535353",
"P 	c #181818",
"Q 	c #111111",
"R 	c #1A1A1A",
"S 	c #5C5C5C",
"T 	c #545454",
"U 	c #676767",
"V 	c #606060",
"W 	c #5F5F5F",
"X 	c #6B6B6B",
"Y 	c #1B1B1B",
"Z 	c #1F1F1F",
"` 	c #6A6A6A",
" .	c #757575",
"..	c #232323",
"+.	c #797979",
"@.	c #616161",
"#.	c #7A7A7A",
"$.	c #151515",
"%.	c #0B0B0B",
"&.	c #0A0A0A",
"*.	c #131313",
"=.	c #5D5D5D",
"-.	c #121212",
";.	c #161616",
">.	c #0F0F0F",
",.	c #141414",
"'.	c #5E5E5E",
").	c #0E0E0E",
"!.	c #0D0D0D",
"~.	c #0C0C0C",
"  . + @ # + . $ $ $ $ $ % & * = - = = * & $ $ $ $ $ % % % ; > , ' ) ) ! ~ % % { { { ] ^ / ( _ : < [ [ } | 1 ! ! ! * * * * * * * ",
"  & 2 + + 1 3 . 4 $ $ $ $ & * = = ) + 5 ~ $ $ $ $ $ $ % % ; > [ = ! ! 6 7 &   % { { ] ^ ' _ 8 9 > > } / 0 ! ! ! * * * * * * * * ",
"  4 & ^ ^ 3 ! 2 ^   $ $ $ . a # = | b ~ 4 $ $ $ $ $ $ % % 3 9 c 2 ~ ~ 7 2 5 & % % { { 7 d < ' e e ) 0 0 a ! ! * * * * * * * * * ",
"          ^ 2 2 ^     $ $ . a - | 6 ~ $ $         $ $ $ % 3 f 9 3 % % & 5 6 . $ % % { 7 g [ # a * * * * * * * * * * * * * * * * ",
"          ~ 7 7 ~         . + 0 b & 4               $ $ $ 3 f f 3 % %   . . 4 $ $ % % ; h < @ + a a * * * * * * * * * * * * * * ",
"    4 4 4 4 4 4 4 4       ^ | + ^                     $ $ b d d b $ $ $ $       $ $ % 3 i f # | + a a a a a a a a a a a a * * * ",
"4 4 4 4 4 4 4 4 4 4 4 4   ^ | | ^     4 4 4 4 4       $ $ 7 e e 7 $ $               $ ^ | i - 0 | + + + + a a a a a a a a a * * ",
"4 4 4 4 4 4 4 4 4 4 4 4 4 7 0 0 ; 4 4 4 4 4 4 4 4       $ . a + . $     4 4 4 4 4 j k l 5 - ) e 0 | | + + + + + + + + a a a a * ",
"4 4 4 4 4 ~ ~ ~ ~ ~ 4 4 4 7 0 0 7 4 4 4 4 4 4 4 4       $ . + + .     4 4 4 ~ ~ 4 k m n 4 = # ) e 0 0 | | | | | + + + + + a a a ",
"4 4 4 ] k o o o o o o k ] 7 0 1 p q ] ~ & ~ 4 4 4       $ . + + ^     4 4 ~ ~ . ~ o r s ] - 0 ! 1 1 2 2 2 6 6 6 6 6 6 5 5 1 | ) ",
"  4 4 t m r r r r r r m t 3 0 & u m k ~ ~ 4 4 4 4       $ . + + ^   4 4 ~ ~ ~ ~ ~ o r s { 0 5 ~ ~ 4 4 4 4             $ $ ; # v ",
"^ ; 7 p u s s s s s s u p 1 ) { s w u o o o o x x y j $ $ . a + . j y o o o z z z A B s { 0 6 & ~ ~ 4 4 4 4 4 4           b g C ",
"| | 0 1 ~ { { { { { { ~ 2 - # { s D w r r r r r E F k $ % & a a . k F r r G G G G B D s $ = e * * ! ! ! ! 1 1 1 1 1 2 2 2 0 f H ",
"| | | e @ i i I I I @ @ @ i @ & J K K K K L M M M N j 7 . 3 + + b O n s s s M M M s s N . @ I ) + * * ! ! ! ! ! 1 * | | ! a @ g ",
"^ ^ ^ 5 - / / / i i I I # = = a ~ { j ] j $ ^ 3 3 1 I / e a e e + 5 4 ] { { % % % % $ . | @ # | 3 & & & ~ ~ ~ ~ ~ ; * * 7 & . 7 ",
"      & 2 0 = = | | ) = - - - - - - - # ' 9 P Q C , , c I e ) ) - - = # @ # e 0 0 ) @ # 0 0 - a & % % % % % % $ 4 7 6 5 ^ ~ % { ",
"      4 & 5 0 | b 3 + - ) ) ) ) = = = i v P Q C > i i @ ) 0 e e ) ) # @ I ) 2 ; ; 2 - 0 5 b | a & % % % % % % 4 5 6 7 7 6 b 4 { ",
"        $ . 6 5 & & ! ) e e e 0 0 ) @ g _ P _ 9 # | | | | | 0 0 e e ) - = a . $ $ ^ + + 7 . a a . $ $ $ $ $ $ ^ a a & 4 5 5 & % ",
"        $ 4 ~ ~   ~ ! e e 0 0 | | # > : R : ' = 0 + + + | | | | 0 e e ) - * & $ $ . + + . . a a . $ $ $ $ $ $ 7 a a .   ~ .   $ ",
"          $ $ % % ~ ! e 0 0 | e = i 9 8 8 h - + + + + + + + + | | 0 e ) ) * &   ~ ; 1 6 . . + + . $ $ $       ^ 2 1 3 . 4 $ $ $ ",
"          $ $ $ % ~ ! e 0 | | = h > I # - - | a a a a + + + + | | 0 0 e ) ! & & 6 1 3 ~ 4 . + + .             ~ & 3 ! 2 & $ $ $ ",
"            $ $ % ~ ! e 0 | | = h h - a a a a a a a a a + + + + | 0 0 e ) ! & & 6 6 . $ $ ^ + + ^                 ^ 1 2 ^       ",
"4 4         $ $ % & ! e 0 | | 0 - - | a a a a a a a a a + + + + | 0 0 e ) ! &   ~ . 4     ^ | | ^   4 4 4 4 4 4 4 ~ 7 7 ~       ",
"4 4 4 4       $ $ & ! e 0 | | + + a a a a a a a a a a a + + + | | + ! * 0 * & $ $         ^ | 0 7 4 4 4 4 4 ~ 4 4 4 4 4 4 4     ",
"4 4 4 4 4     $ $ & ! ) e 0 | + + + a a a a a a a a a + + + + | | ! 7 7 a * . $       4 4 7 0 0 7 4 ~ ~ ~ ~ ~ ~ ~ ~ ~ 4 4 4 4   ",
"4 4 4 4 4       $ ^ * ) e 0 | | + * 6 5 5 b b 6 * a + + + + | | 0 2 4 ~ * a 7     4 4 4 4 3 e e b ~ ~ ~ ~ & & ~ ~ ~ ~ ~ 4 4 4 4 ",
"4 4 4 4 4 4     $ . * - e 0 0 | + 2 & % % % % & 6 + + + + + | | 0 2 4 ~ * a .   4 4 4 4 ~ ; e ) ; ~ ~ & & & & & & & ~ ~ ~ 4 4   ",
"  4 4 ] k x x x S T 5 - ) e 0 | | 2 . $ % % % 4 7 5 5 5 5 6 6 6 2 b ^ ; + 6 T x o o o o o p * * p z z z z z z z z z z t ] 4 4   ",
"    4 t m r r r E U   - = e 0 0 | a 2 5 5 5 5 7 4 % % $ $ $       . 5 | ) 4 n r r r G G G J . . J G G G G G G G G G G m q 4     ",
"^ ; 7 p u s s K L J ~ = # ) e 0 | | + + + a a 6 & % % $ $ $     4 7 a # # ~ J L s M M L M V 7 7 W M L X L L X X X L M u p 7 ; ^ ",
"| | | 1 ~ { { { ] ~ ! = - ) e e 0 | | + + a a ! 6 b b 5 5 6 6 2 2 * e = # * & { % % % % $ 7 0 0 7 $ $ $ $ $ $ $ $ $ % & 1 | + + ",
"| | | e # I I # 0 + a * * ! 1 1 2 1 a 0 - - = = = = = # # = e 0 e 0 a * a + | | 0 e e e e ) ) ) ) ) ) = / / = ) ) e e 0 | 0 = # ",
"^ ^ ^ 5 - / / ) 2 7 . & & ~ ~ 4 4 ^ 1 = h v c c c c c v 8 } # 0 e * ; & . . ; ; 3 3 3 b b b ; ; b b b ! @ @ ! b 3 3 3 ; ; 5 | = ",
"      & 2 e # + . $ $ $ % % { { ] 4 2 = 8 Y ( Z 8 c c v 8 } # + * 3 4 % $ $       4 4 4 4 4 4 4 4 4 4 ; e e 7 4 4 4     $ . a - ",
"      4 & 5 0 + . $ $ $ $ % % { { 4 2 I 8 Y ( 8 I = = = # = e ! 7   $ % $ $       4 4 4 4 4 4 4 4 4 4 7 0 0 7 4 4       $ . * - ",
"          ^ 2 ! 3 ^ 4 $ $ $ % % { & | / 9 8 v g ) a a a + | 0 2 4 { % % $ 4 & & ~ 4 4 4 4 4 4 4 4 4 4 7 0 0 7 4         $ & * - ",
"          4 & 3 ! 2 ^   $ $ $ $ % ^ I v d @ - ) | a a + + | 0 1 ~ { % $ $ . 2 2 ^ 4 4 4 4 4 4 4 4 4 4 7 0 0 7 4         $ & * - ",
"              ^ 2 2 ^       $ p y p @ Z I | + a a a + + | | 0 1 ~ % % $ $ 7 | | 7 4 4 4 4 4 4 4 4 4 4 3 0 0 7 4         $ . * - ",
"              4 ^ ^ ~         y ` J 1 _ i | + + + + + + | 0 e ! ~ % $ $   ; | | ; 4 4 4 4 ~ ~ ~ ~ ~ 4 ; e 0 7 4 4       $ . * - ",
"        $ $ $ $           ~   x E X 3 , / 0 | + + + + | 0 e ) ! ^ $ $     ^ 1 * b 7 & 4 ~ ~ ~ ~ ~ { q j ! 0 3 4 4 4     $ 7 a - ",
"    $ $ $ $ $ $ $             x E L 3 ( / 0 | | | | | | 0 e ) * & $       ~ . b * ! ; ~ ~ ~ ~ ~ ~ t m u & e 3 4 4 4       . a - ",
"$ $ $ $ $ $ $ $ $ $   j y x x n  .M ^ ..i e 0 | | | 0 0 e ) - 5 O k j     4 4 7 1 ! ; ~ ~ ~ ~ . ~ z G M 4 # 5 4 4 ~ 4 j k l 5 - ",
"$ $ $ $ $ $ $ $ $ $ $ k F E E  .+.s   / @ e 0 0 0 0 0 e e = =   n F y 4 4 4 4 & 7 7 & ~ ~ ~ ~ ~ ~ o G X 3 9 6 4 4 4   y F n   - ",
". . . 7 b b b b b 6 b ] J M M M X @.& - = ) e e 0 0 e e ) # = ] K w u k ] 4 4 4 4 ] k o o o o o o u w X 6 < 1 j y x x n  .K j - ",
"+ + a e d c c f f c c / ! b b b b 2 0 - - ) ) e e e e ) - @ # ] K #.w m t 4 4 4 4 t m r r r r r r w D ` 5 ..2 k F E E  .+.K j - ",
"+ + a e d c f 8 Z C C $.%.&.*., ..d 0 * ! ! ! * 0 ) ) e + 0 - & J s s u p 7 3 ; 7 p n s s s s L M M M =.) ( e ] A M s K G A 4 ) ",
". . . ^ b 3 3 1 @ g g v -.Q 8 @ a 3 ^ & & ~ ~ ; a - - + 3 b 0 + & { { ~ 1 0 | | | 2 4 ] ] ] ] $ 7 b b 0 [ -.[ i 1 ^ % j ] 4 ! e ",
"$ $ $ $ $ % % 4 5 + e ' [ [ ' * & % % % % $ & 7 6 * * 5 ~ ~ 6 + | | 0 0 | | | + + 0 - I d d h f ;.>.P ( ( ( ( ( ( 8 / - ) ) e 0 ",
"  $ $ $ $ $ %   4 3 + @ ' ' @ * & % % % % 4 5 2 7 & & ~   4 & ^ ; ; ; ; ; ^ ^ . . b 0 ' : Y C ;.>.H 9 / / / / / / I # - - - 0 0 ",
"      $ $ $ $   & 7 2 * * + ) a & % $ $ $ . 6 6 . $ $ $ $ $                 $ $ % ^ | > R ,.( Z : 9 @ 0 0 | | 0 0 0 0 0 0 0 | | ",
"        $ $ $ ~ 6 2 ; & & 3 | a . $ $ $ $ 4 . . 4 $ $ $ $                 $ $ $ % 7 i Y $., g I # # e | + + + | | | | | | | + + ",
"            $ . 6 6 . $ $ . a a . $ $ $ $                                 $ $ % % ; } $., 9 # | + + + + + + + + + + + + + + + a ",
"              4 ^ . 4 $ $ . + + . $                                       $ $ % % ; } , } # 0 + + + a a a a a a a a a a a a a a ",
"                          ^ + + ^                                         $ $ % % ; I f # | + + + a a a a a a a a a a a a a a a ",
"      4 4 4 4             ^ | | ^     4 4 4 4 4 4 4 4 4                 $ $ $ % % & + @ e | + + a a a a a a a * * * a a a * * * ",
"    4 4 4 4 4 4 4 4 4 4   ; 0 0 7 4 4 4 4 4 4 4 4 4 4 4                 $ $ $ % % ~ 1 0 | | + + a a a a a * * * * * * * * * * * ",
"      4 4 4 4 4 4 4 4 4 4 7 0 0 7 4 4 4 ~ ~ ~ ~ 4 4 4 4               $ $ $ $ % % ~ 1 0 0 | + + a a a a * * * * * * * * * * * * ",
"        4 4 4 4 4 & 4 ] q p + I 5 4 ~ ~ ~ ~ ~ ~ ~ 4 4 4         $ $ $ $ $ $ % % { & | ) * 1 a + a a a a * * * * * * * * * * * * ",
"          4 4 4 4 4 4 k m N ! 9 2 4 ~ ~ ~ ~ ~ ~ 4 4 4       $ $ $ $ $ $ % % % % { ; I i 3 . 2 + a a a * * * * * ! ! ! ! ! * * * ",
"$ $       j y x o o o u w X 2 h % o x o o o o o o k j   $ $ $ % % % % % % l o W '.l # g ^ % ^ 5 5 b b b 3 5 1 ! ! ! ! ! ! ! ! * ",
"$ $ $ $ $ k F r r r r w D ` 6 0 @.r r r r r r r r F k $ $ % % % { { { { { z X w w A 2 d 7 ] { % % % { { { 4 b ! ! ! ! ! ! ! ! ! ",
"& & & ^ . O J M M M M M M =.0 e '.s s s s s s s K n O ^ 3 ; ; 7 7 7 7 3 7 l n s K V 1 g b $ % % % $   4 4 7 1 | e e | | * ! ! ! ",
"! ! * * * 1 5 3 3 3 3 3 3 e < 9 ; ] ] { { { { ] ]   5 | i h h g d d d d d - 5 . . 2 } > | b b b 3 6 e = # @ ' h h h h i | 1 ! ! ",
") ) ) ) ) i , ).!.!.!.!.!.~.%.Y ' = # # # # # # = - ) I : $.H C C R R R R R R R R Y Y c ) * * * * 0 > < [ ............h | 1 1 ! "};
