/* XPM */
static char * crumbling_peace_xpm[] = {
"64 64 582 2",
"  	c #343434",
". 	c #555555",
"+ 	c #666666",
"@ 	c #898989",
"# 	c #A2A2A2",
"$ 	c #9C9C9C",
"% 	c #B1B1B1",
"& 	c #CECECE",
"* 	c #7D7D7D",
"= 	c #3B3B3B",
"- 	c #202020",
"; 	c #1F1F1F",
"> 	c #363636",
", 	c #161616",
"' 	c #373737",
") 	c #2F2F2F",
"! 	c #545454",
"~ 	c #676767",
"{ 	c #9B9B9B",
"] 	c #A1A1A1",
"^ 	c #868686",
"/ 	c #AEAEAE",
"( 	c #5D5D5D",
"_ 	c #323232",
": 	c #292929",
"< 	c #D0D0D0",
"[ 	c #DFDFDF",
"} 	c #D3D3D3",
"| 	c #CFDDD1",
"1 	c #85B98F",
"2 	c #64C47B",
"3 	c #91C79B",
"4 	c #B4E0BB",
"5 	c #BDDDC2",
"6 	c #D5E3D7",
"7 	c #838383",
"8 	c #ABABAB",
"9 	c #B7B7B7",
"0 	c #C7C7C7",
"a 	c #575757",
"b 	c #474747",
"c 	c #535353",
"d 	c #4F4F4F",
"e 	c #2B2B2B",
"f 	c #404040",
"g 	c #777777",
"h 	c #969696",
"i 	c #727272",
"j 	c #A3A3A3",
"k 	c #979797",
"l 	c #595959",
"m 	c #333333",
"n 	c #282828",
"o 	c #D6D6D6",
"p 	c #9BD1A5",
"q 	c #8DE8A1",
"r 	c #61D37E",
"s 	c #38D269",
"t 	c #64E184",
"u 	c #A0E4AE",
"v 	c #A5E7B2",
"w 	c #83E098",
"x 	c #93EDA6",
"y 	c #BADFC1",
"z 	c #8F8F8F",
"A 	c #6B6B6B",
"B 	c #7B7B7B",
"C 	c #4B4B4B",
"D 	c #828282",
"E 	c #8D8D8D",
"F 	c #818181",
"G 	c #707070",
"H 	c #858585",
"I 	c #444444",
"J 	c #2E2E2E",
"K 	c #262626",
"L 	c #DEDEDE",
"M 	c #88DE9A",
"N 	c #8BEFA0",
"O 	c #8EC698",
"P 	c #6D7D70",
"Q 	c #576A5A",
"R 	c #59E07D",
"S 	c #BACABD",
"T 	c #9CD1A6",
"U 	c #9BEAAB",
"V 	c #6ECA83",
"W 	c #5D6F60",
"X 	c #2D2D2D",
"Y 	c #696969",
"Z 	c #232323",
"` 	c #DADADA",
" .	c #8FCC9B",
"..	c #7CDA92",
"+.	c #89B892",
"@.	c #878787",
"#.	c #414141",
"$.	c #5AD87B",
"%.	c #9DB9A3",
"&.	c #A1B9A5",
"*.	c #53D376",
"=.	c #42B060",
"-.	c #737373",
";.	c #2C2C2C",
">.	c #7F7F7F",
",.	c #5B5B5B",
"'.	c #8A8A8A",
").	c #3A3A3A",
"!.	c #EAEAEA",
"~.	c #7BCB8C",
"{.	c #8DCD9A",
"].	c #A4AEA6",
"^.	c #7E7E7E",
"/.	c #4C4C4C",
"(.	c #526656",
"_.	c #5DD97D",
":.	c #85A58B",
"<.	c #609A6C",
"[.	c #3DBC62",
"}.	c #1C7538",
"|.	c #303030",
"1.	c #717171",
"2.	c #242424",
"3.	c #B8E0BF",
"4.	c #82D794",
"5.	c #808D82",
"6.	c #A8A8A8",
"7.	c #636363",
"8.	c #454545",
"9.	c #484848",
"0.	c #57DA7B",
"a.	c #90AD94",
"b.	c #8C978E",
"c.	c #3FAF5D",
"d.	c #199D47",
"e.	c #8E8E8E",
"f.	c #393939",
"g.	c #585858",
"h.	c #6C6C6C",
"i.	c #747474",
"j.	c #252525",
"k.	c #A3DEAF",
"l.	c #70C884",
"m.	c #8C8C8C",
"n.	c #494949",
"o.	c #4A4A4A",
"p.	c #53D677",
"q.	c #6E9E78",
"r.	c #A9A9A9",
"s.	c #5E5E5E",
"t.	c #42B763",
"u.	c #16A94C",
"v.	c #3E3E3E",
"w.	c #424242",
"x.	c #757575",
"y.	c #6E6E6E",
"z.	c #6D6D6D",
"A.	c #797979",
"B.	c #313131",
"C.	c #353535",
"D.	c #212121",
"E.	c #989898",
"F.	c #8BDC9C",
"G.	c #8ECC9B",
"H.	c #515151",
"I.	c #54D777",
"J.	c #59A169",
"K.	c #3F9E58",
"L.	c #17A74C",
"M.	c #434343",
"N.	c #7A7A7A",
"O.	c #999999",
"P.	c #A5A5A5",
"Q.	c #C7F5CF",
"R.	c #9A9A9A",
"S.	c #26E269",
"T.	c #2CCA61",
"U.	c #222222",
"V.	c #368F4E",
"W.	c #0DA94B",
"X.	c #1E4327",
"Y.	c #272727",
"Z.	c #383838",
"`.	c #9D9D9D",
" +	c #A9E6B4",
".+	c #7BB788",
"++	c #AAAAAA",
"@+	c #808080",
"#+	c #5F5F5F",
"$+	c #325138",
"%+	c #45AD60",
"&+	c #41DC70",
"*+	c #62C67B",
"=+	c #598362",
"-+	c #758378",
";+	c #616161",
">+	c #348F4D",
",+	c #21AC50",
"'+	c #23412A",
")+	c #464646",
"!+	c #505050",
"~+	c #8B8B8B",
"{+	c #3F3F3F",
"]+	c #B0EDBC",
"^+	c #89D198",
"/+	c #2B9F4E",
"(+	c #4AB466",
"_+	c #91BF9A",
":+	c #87B991",
"<+	c #68CD81",
"[+	c #70AF7D",
"}+	c #768479",
"|+	c #686868",
"1+	c #599D68",
"2+	c #2EAE56",
"3+	c #27402C",
"4+	c #3D3D3D",
"5+	c #656565",
"6+	c #565656",
"7+	c #606060",
"8+	c #3C3C3C",
"9+	c #C7E7CC",
"0+	c #8FE6A2",
"a+	c #89958B",
"b+	c #5B8E65",
"c+	c #3EAD5D",
"d+	c #7C897E",
"e+	c #72AB7D",
"f+	c #77BD86",
"g+	c #60C077",
"h+	c #7AB987",
"i+	c #459459",
"j+	c #318E4B",
"k+	c #9F9F9F",
"l+	c #929292",
"m+	c #A4ACA6",
"n+	c #ADE4B8",
"o+	c #7FB189",
"p+	c #97B99E",
"q+	c #4BB466",
"r+	c #4E4E4E",
"s+	c #9BBCA1",
"t+	c #72C484",
"u+	c #92AC96",
"v+	c #7B9B81",
"w+	c #439E5A",
"x+	c #328648",
"y+	c #909090",
"z+	c #A7A7A7",
"A+	c #B4B4B4",
"B+	c #959595",
"C+	c #B0D6B7",
"D+	c #88D297",
"E+	c #65BC79",
"F+	c #79877B",
"G+	c #709C79",
"H+	c #6CCC83",
"I+	c #98C3A0",
"J+	c #79BB86",
"K+	c #439C5A",
"L+	c #41BA63",
"M+	c #319A4F",
"N+	c #888888",
"O+	c #919191",
"P+	c #C9C9C9",
"Q+	c #4D4D4D",
"R+	c #787878",
"S+	c #C2CAC4",
"T+	c #69BE7C",
"U+	c #78DA8E",
"V+	c #78DD90",
"W+	c #9AC0A1",
"X+	c #39BE61",
"Y+	c #4DD272",
"Z+	c #446D4C",
"`+	c #2A2A2A",
" @	c #A0A0A0",
".@	c #B5B5B5",
"+@	c #767676",
"@@	c #525252",
"#@	c #7EC28C",
"$@	c #4DB568",
"%@	c #337C46",
"&@	c #96A198",
"*@	c #5CB873",
"=@	c #81AE8A",
"-@	c #47D16F",
";@	c #50885C",
">@	c #626262",
",@	c #848484",
"'@	c #9E9E9E",
")@	c #939393",
"!@	c #A6A6A6",
"~@	c #949494",
"{@	c #719C79",
"]@	c #39A658",
"^@	c #5EB172",
"/@	c #73C385",
"(@	c #74AA7F",
"_@	c #8CCE9A",
":@	c #78BC86",
"<@	c #58B16D",
"[@	c #86A38C",
"}@	c #646464",
"|@	c #B8B8B8",
"1@	c #B2B2B2",
"2@	c #9BB4A0",
"3@	c #7D9581",
"4@	c #66A273",
"5@	c #62936C",
"6@	c #516655",
"7@	c #5C5C5C",
"8@	c #BDBDBD",
"9@	c #6A6A6A",
"0@	c #D2D2D2",
"a@	c #6F6F6F",
"b@	c #151515",
"c@	c #412A2A",
"d@	c #422B2B",
"e@	c #1B1B1B",
"f@	c #1A1A1A",
"g@	c #684747",
"h@	c #6F3D3D",
"i@	c #6B3838",
"j@	c #6A3B3B",
"k@	c #C6C6C6",
"l@	c #B3B3B3",
"m@	c #A4A4A4",
"n@	c #AFAFAF",
"o@	c #927575",
"p@	c #7B4E4E",
"q@	c #7A5656",
"r@	c #8A6C6C",
"s@	c #825656",
"t@	c #846464",
"u@	c #9B8C8C",
"v@	c #826C6C",
"w@	c #856D6D",
"x@	c #7F4C4C",
"y@	c #733E3E",
"z@	c #592E2E",
"A@	c #633A3A",
"B@	c #959393",
"C@	c #8C7878",
"D@	c #8D6B6B",
"E@	c #625858",
"F@	c #837676",
"G@	c #6A4949",
"H@	c #785757",
"I@	c #743D3D",
"J@	c #722121",
"K@	c #692121",
"L@	c #5F2929",
"M@	c #7A5858",
"N@	c #7B6464",
"O@	c #817171",
"P@	c #7D6161",
"Q@	c #695D5D",
"R@	c #EFEFEF",
"S@	c #BEBEBE",
"T@	c #827878",
"U@	c #7C6262",
"V@	c #704E4E",
"W@	c #604848",
"X@	c #784343",
"Y@	c #723232",
"Z@	c #591C1C",
"`@	c #632D2D",
" #	c #6D4646",
".#	c #9B8E8E",
"+#	c #6B5D5D",
"@#	c #1D1D1D",
"##	c #846868",
"$#	c #6D4444",
"%#	c #6F5E5E",
"&#	c #704747",
"*#	c #6F5353",
"=#	c #362C2C",
"-#	c #4B4646",
";#	c #6A4E4E",
">#	c #6E5050",
",#	c #715E5E",
"'#	c #7A7373",
")#	c #5E5B5B",
"!#	c #6D4848",
"~#	c #725A5A",
"{#	c #6D5D5D",
"]#	c #6D6161",
"^#	c #4B4242",
"/#	c #5D3030",
"(#	c #664444",
"_#	c #614E4E",
":#	c #1C1C1C",
"<#	c #807575",
"[#	c #623B3B",
"}#	c #563232",
"|#	c #585454",
"1#	c #644040",
"2#	c #5D4040",
"3#	c #8E8383",
"4#	c #B9B9B9",
"5#	c #928B8B",
"6#	c #6C4949",
"7#	c #593B3B",
"8#	c #625B5B",
"9#	c #6A4444",
"0#	c #766A6A",
"a#	c #7D7272",
"b#	c #ACACAC",
"c#	c #948F8F",
"d#	c #765959",
"e#	c #604141",
"f#	c #756969",
"g#	c #745050",
"h#	c #675B5B",
"i#	c #766F6F",
"j#	c #E9E9E9",
"k#	c #B0B0B0",
"l#	c #775B5B",
"m#	c #786D6D",
"n#	c #655454",
"o#	c #633D3D",
"p#	c #674949",
"q#	c #928585",
"r#	c #675C5C",
"s#	c #745353",
"t#	c #796565",
"u#	c #6E5E5E",
"v#	c #503737",
"w#	c #4C3939",
"x#	c #5C2E2E",
"y#	c #918A8A",
"z#	c #736B6B",
"A#	c #BFBFBF",
"B#	c #7D6E6E",
"C#	c #6A4242",
"D#	c #673A3A",
"E#	c #592020",
"F#	c #5D3333",
"G#	c #663C3C",
"H#	c #552121",
"I#	c #654C4C",
"J#	c #756565",
"K#	c #9B9595",
"L#	c #CBCBCB",
"M#	c #594E4E",
"N#	c #532020",
"O#	c #5A3434",
"P#	c #5F3636",
"Q#	c #6B4D4D",
"R#	c #827C7C",
"S#	c #5A4747",
"T#	c #D8D8D8",
"U#	c #6E6B6B",
"V#	c #1E1E1E",
"W#	c #CDCDCD",
"X#	c #E6E6E6",
"Y#	c #5A5A5A",
"Z#	c #EEEEEE",
"`#	c #7A6E6E",
" $	c #7B7878",
".$	c #B6B6B6",
"+$	c #9F9A9A",
"@$	c #A69F9F",
"#$	c #AFA5A5",
"$$	c #A7A1A1",
"%$	c #C2C2C2",
"&$	c #9C8D8D",
"*$	c #958282",
"=$	c #968B8B",
"-$	c #918484",
";$	c #ACAAAA",
">$	c #DDDDDD",
",$	c #5A5656",
"'$	c #755B5B",
")$	c #A69595",
"!$	c #B4A1A1",
"~$	c #B8A5A5",
"{$	c #AB9191",
"]$	c #946B6B",
"^$	c #A38686",
"/$	c #B5AFAF",
"($	c #C4C4C4",
"_$	c #A29999",
":$	c #845F5F",
"<$	c #896969",
"[$	c #A39A9A",
"}$	c #C5C5C5",
"|$	c #D4D4D4",
"1$	c #ECECEC",
"2$	c #938383",
"3$	c #9C8989",
"4$	c #A99898",
"5$	c #957979",
"6$	c #865A5A",
"7$	c #7E3A3A",
"8$	c #7F3E3E",
"9$	c #9A9191",
"0$	c #856E6E",
"a$	c #7E5D5D",
"b$	c #918787",
"c$	c #817A7A",
"d$	c #8D8787",
"e$	c #8C8686",
"f$	c #A09797",
"g$	c #7E6363",
"h$	c #7F5A5A",
"i$	c #773C3C",
"j$	c #835252",
"k$	c #755454",
"l$	c #735959",
"m$	c #7D4D4D",
"n$	c #734747",
"o$	c #958686",
"p$	c #988989",
"q$	c #898282",
"r$	c #7B6A6A",
"s$	c #6E5B5B",
"t$	c #4B3131",
"u$	c #412929",
"v$	c #554A4A",
"w$	c #796B6B",
"x$	c #948B8B",
"y$	c #938484",
"z$	c #8F7E7E",
"A$	c #806E6E",
"B$	c #704848",
"C$	c #846060",
"D$	c #783F3F",
"E$	c #8A7272",
"F$	c #7C7C7C",
"G$	c #888282",
"H$	c #857272",
"I$	c #866363",
"J$	c #8E6F6F",
"K$	c #7B5D5D",
"L$	c #785555",
"M$	c #694747",
"N$	c #632929",
"O$	c #611414",
"P$	c #632424",
"Q$	c #724545",
"R$	c #805F5F",
"S$	c #876565",
"T$	c #795050",
"U$	c #774646",
"V$	c #704242",
"W$	c #735656",
"X$	c #7B6E6E",
"Y$	c #705656",
"Z$	c #7D5050",
"`$	c #796262",
" %	c #908787",
".%	c #8E8C8C",
"+%	c #7F7979",
"@%	c #837777",
"#%	c #5E4141",
"$%	c #614444",
"%%	c #704C4C",
"&%	c #786161",
"*%	c #745C5C",
"=%	c #7E6464",
"-%	c #887A7A",
";%	c #9E9191",
">%	c #817575",
",%	c #696161",
"'%	c #654D4D",
")%	c #795656",
"!%	c #746666",
"~%	c #8F7F7F",
"{%	c #706666",
"]%	c #7C6565",
"^%	c #817B7B",
"/%	c #A5A1A1",
"(%	c #A9A7A7",
"_%	c #8A8181",
":%	c #141414",
"<%	c #191919",
"[%	c #DBDBDB",
"}%	c #D5D5D5",
"|%	c #C3C3C3",
"1%	c #DCDCDC",
"  . + @ # $ % & * = - = ; = ; = ; > , ' ; = ; = ; = ; = ; = ; = ; = ; = ; = ; = ; = ; = ; = ; = ; = ; = ; = ; = ; = ; = ; = ; = ",
") ! ~ { ] ^ # / ( _ : < [ [ [ } | 1 2 3 4 5 6 } [ [ [ ; = 7 8 9 } 0 } } 0 } 9 0 8 7 a ; b b b b b b b b b b c d a d a d a d a d ",
"e f g # h i j k l m n o } 0 } p q r s t u v w x y 0 z ; = 7 0 9 z 8 7 z z z z 7 8 d = ; = A z z 7 z z z B A ~ b b b C b b b C b ",
"m e D E F G H { I J K L 0 0 M N O P Q R S 0 9 T U V W ; = 8 } 8 z 8 z 8 7 8 z 8 7 a = ; = z } [ [ [ } [ 9 9 8 z 7 z z z 7 z z z ",
") X H @ Y D @ # =   Z ` }  ...+.@.#.W $.%.8 { 8 &.*.=.; = z 9 z z 7 8 8 8 8 7 z -.d = ; = 7 [ [ 9 0 9 } [ [ [ } [ } 0 } } } 0 } ",
";.J @ >.,.g '.$   ).Z !.9 ~.{.].^./.(._.:.8 7 8 8 <.[.}.= b 8 z 8 8 7 z { z 8 A a c = ; = z } 9 8 z 8 z 8 8 { z z 8 z 8 7 8 z { ",
"_ |.^ B 1.F z D   ).2.!.3.4.5.6.7.8.9.0.a.{ z z 8 b.c.d.= b B e.D 8 z 8 8 7 8 -.f.).= ; = 7 [ 9 z 8 7 { 7 z z 8 7 z { z 8 { z { ",
"_ g.g 1.h.G @.i.f.= j.!.k.l.{ m.1.n.o.p.q.m.E r.e.s.t.u.f.v.w.x.'.'.>.y.z.A A./.) B.C.D.> z [ 8 8 7 { B 8 { B z 8 7 8 8 z B 8 { ",
") f.Y A + i E.x.f ).j.0 F.G.{ # H.9.b I.J.z.+ ~ @.,.K.L.Z C.= > M.|.|.) |.m m C.C.J e D.' -.[ [ z 8 7 7 { -.{ z 8 z z B 8 8 -.z ",
"_   x.e.N.O.P.z.f.).K 8 Q.G.R.e./.|.> S.T.f > w.' U.V.W.X.Y.X X e ;.)   Z.).' ' = w.#.D.D.b 0 0 z z z z { { { 7 z 8 z 8 8 7 8 z ",
"_ C.@.'.e.H `.y.v.C.: z  +.+++@+#+$+%+&+*+=+-+;+A.9.>+,+'+K : : |.m > = ' B.w.,.l )+b !+D.b 0 8 z 8 7 8 z 7 z -.A ~ #+#+~ #+~ #+",
"B.' z.~+D `.6.~ o.{+;.-.]+^+D @ c /+(+_+:+<+[+}+E |+1+2+3+X J B.).4+Z.' 8.5+D @.7 A.g.n.D.C 9 z A -.~ #+~ a c c c b C b C b b C ",
"C I /.6+7+E.`.s.8+f.|.K 9+0+a+D b+c+d+e+f+8 g+h+&.z i+j+Y.|.X C.f.I c 5+B '.k+k l+$ m.;+D.b z A ~ #+c C b b = = = = = ; = ; = ; ",
"8.8.= ).f ,.Y o.f.' _ B.m+n+o+p+q+r+>.s+t+7 u+f+v+-.w+x+: J n J 8+-.D y+z+h h z+{ O.A+B+J D.= = = = = = = = = ; ; ; ; ; ; ; ; ; ",
"n.o.' _ _ ' B.)._ C.m m @+C+D+E+F+g.Y G+H+B z I+J+K+L+M+: |.;.X 9.N+# O+$ O.k+e.y+# P+$ I U.; Z.; ; = ; ; = ; {+{+= = = = = = = ",
"Q+R+' > > > '   D.  _ m 5+S+T+U+G b ~+R.V+5.8 7 W+X+Y+Z+`+n ) > H.i.$  @6.r. @ @R.# .@+@/.m n.8.@@a ; b C b b C b b b b b b b {+",
"^ E H O+>.>.H E.l+; e n.8.0 9 #@$@%@^ &@*@b.z z =@-@;@@@_ 2.X w.>@,@E '@{ )@l+)@!@j m.7.M.|.~@[ } a b c B { { z { { { z { { { { ",
"} 0 } } 0 } 9 8 -.{+Z n.8.z 9 ~+{@]@^@/@t+(@_@:@<@[@A C   : Y.{+}@y+`.l+B+'@|@1@8 N+! ;.m ~+0 0 8 ; b B 0 } [ [ [ } [ [ [ } [ } ",
"8 { z 8 z 8 8 A -.= Z 9.8.-.{ 6.l #+2@3@^+4@o+5@6@-.c C ) _ 2.f.7@$ h !@8@.@'.9@f m v.8+8+0@0 8 7 ; C { } } 9 9 8 9 9 9 8 9 9 9 ",
"8 z { z 8 7 z A -.= D.w.!+b { '.9.9.|+-.c c -.d -.c b ; Y.J 2.X 8.a@D * ( 4+X ' {+4+).' 7@[ 8 z z ; b { [ 8 8 { 8 z 8 z { 7 { { ",
"8 z z 8 7 8 8 A a = ; 8.@@b ~ d C.  . b b b = ; ; ; - - U.Y.2.X f M._ : n _ Z.).f.).).) #+[ 8 8 7 ; C { } 8 z { 7 { z { -.7 z 7 ",
"8 z 8 z 8 7 z -.d = ; b c b ; ' b@X ; ; ; ; ; ; ; ; ; - D.K |.|.Y.e ;.c@d@m m B.X B.8+2.z [ 8 8 z ; b z 0 7 8 { 8 z 8 z { 7 { { ",
"z 8 -.B z z 8 A a = ; = d a C ).e@f@; ; ; ; ; ; C C C r+9.)+v.7+,.o.g@h@i@j@l d 4+j.{+~ 9 [ 8 7 B ; C 7 0 8 7 { z { 7 { B B z z ",
"z 7 7 B z 8 7 ~ b = ; = 7 [ [ [ 0@k@8 8 z #+Z.I H.~ z+8 l@m@k+P.n@o@p@q@r@s@t@D }@- = B [ 0 { 8 -.; b 7 9 8 { z 8 7 8 z B B z z ",
"z z 8 8 7 z z #+C = ; = } 0 8 z { { 8 z { = M.4+g.m@!.P+n@u@v@w@x@y@z@A@B@C@D@E@@@; = z [ 8 { z A ; C A k@7 8 z z { z 7 8 z 8 z ",
"{ 8 7 z 8 7 -.c = = ; = [ { z { 8 8 z { ++; #.f.z.l@9 y.F@G@H@I@J@K@L@M@N@O@P@Q@b ; = z R@8 7 8 a - C b ,@G s.a c c ~ ~ A B z 7 ",
"~ #+~ #+~ c b = = = ; = } 8 8 8 7 ++@.!@! e@> C.z.S@H T@U@V@W@X@Y@Z@`@ #.#+#z+a b ; = 7 R@8 8 z a U.H.).M.I o.C o.n.C 9.b c a c ",
"c C b = = = ; ; ; ; ; = [ 7 8 z 8 6.g ,.8.@#).C.z./ + ##$#%#E.&#*#=#-#;#>#,#'#/.C ; = z R@7 8 z d j.c f Z.m C.> ' > '   |.{+4+)+",
"; ; ; ; ; ; ; D.; C C b [ 8 { 7 z+B #+/.C ; |.> }@N.)#!#~#;+i {#]#f.!+^#/#(#_#v.8.:#Z.7 R@8 8 7 a e !+Z.).8+{+4+8+4+v.{+{+{+).' ",
"b ~ ~ A z { 7 +@z z b ; [ 8 -.~@}@)+r+a@5+f.- Z.l / <#[#}#7+N.m.g.d h.|#1#2#3#C M.@#Z.z R@z 8 8 d |.9.> ).8.)+)+)+)+b b b )+8.M.",
"~ z 9 [ } ` .@4#0 8 -.; [ ++`.s.  C B+F ~ ).; ' ( 9 5#6#7#a x.'@o.c h.8#9#0#a#a = ; = z } z z 8 C m f > f b )+)+)+)+)+)+)+)+9.C ",
"~ 8 } 0 0 b#F @+{ 8 {+; R@'.Y a )+Y z+{ A b ; > c 8 c#d#e#c 7@;+J !+~+f#g#h#i#d = ; = z [ 8 z z C   Z.> w.)+)+b )+)+)+)+b b )+Q+",
"~ [ 9 8 8 ~ m.9@l+7 -.; j#+@}@C 7 !@7 8 A C ; J Z.n@k#l#d#m#g g.4+g n#o#p#q#r#a = ; {+z } z 8 z )+m f.> 9.)+)+)+)+)+)+)+)+b 9.n.",
"~ } 9 { B ^.R+H Y z+-.; 0 |+c g !@z 8 7 ~ c ; @#{+j 4#@.s#t#u#v#e w#x#/#y#z#-.b = ; C z } 8 8 7 n.) Z.f.b )+)+b b )+)+)+b )+)+8.",
"~ [ 8 m.k |+e.l+s. @r+e@|@y.@+j z z z 8 ~ d ; C.> m.A## B#C#D#E#F#G#H#I#J#K##+b ; = {+z } { z 8 8.X ' 4+b b b 9.b b b )+b )+)+b ",
"~ [ 8 ] -.h.H z N++@! @#L#A.7@N+N.8 8 { #+a ; - 4+7+4#~+>.M#N#O#P#Q#R#S#c N.s.= ; ; C z } z 8 C @@X ' w.b )+b b 9.9.b b b )+)+9.",
"~ } 9 F B ^ 9@] ~ R.c @#S@ @a >.# e.z z #+a ; ; f c 9 T#a@Y.C.C U#z#~++@>@r+/.).; = D.B 8 B d Z.> m f.I b )+b b 9.9.b b b )+)+)+",
"~ [ 9 @ g |+@.F ^.^ d V## 8 b -.x.'.e.8 A a ; ;   d e.8 a C.s.a Q+Q+M.I > > Z.= ; = {+D.D.= = m > ).= 8.9.)+I 9.b b )+)+)+)+)+8.",
"~ [ z+h.* ^.y.m.s.R.c ; )@1@x.b N.k+>.z A a ; ; ' c M.x.B . c b = ; ; ; - - - - - J C.).> > = v.I ).).f.).f.Z.).Z.).= = ).8+M.b ",
"~ } r.A ,.^.l+A.E.B H.; R+W#~@,.#+~ @.z+~ d ; ; ; d M.> ; = ; ; ; ; = ; = ; ;   - |.C.= v.    '   J X   _     m _ _ m m m m   ' ",
"~ [ R.@+@+h.z N+m.] r+; a X#>.>.d 6+@.A.}@c ; ; = b I I = = = = = C b C {+d C b C b )+H.Q+G 9@>@6+#.= v.o.H.a Y#;+;+Y#Y#l . B.4+",
"~ [ ^ y.* z+}@O+z }@a ; b Z#'@F Y b ,.y+5+6+; ; ; {+~ B B B B B `# $-.z.Y }@5+-.z z z { 8 .$k+h 7@o.5++$@$% #$$$1@z 1@m@1@y.> )+",
"~ 0 )@)@l+F '.@ R.o.; ; Q+R@O.>.`.G @@l #+r+= ; ; = B 0 9 0 9 %$&$*$=$-$;$P.!@m.% 9 } [ [ >$m.,.,$'$)$!$~${$]$^$/$($} } z ~ ; C ",
"~ & h i N+R+H R.@+a ;   4+R@z # 9@m.7.Y Q+o.= ; ; ; B 0 0 T#%$A#n@_$:$<$[$++] b#9 }$|$1$} * . H.+#2$3$4$5$6$7$8$9$j 0 b#-.a ; d ",
"~ 9 b#7 R+B+B z z d ; |.)+[ 8 8 @+$ @+h.o.C = ; ; ; B 0 0 l@%$r.] ,@0$X@a$b$c$d$c#z+k+^ 9@C.M.|+^ ++e$f$g$h$i$j$k$] * `.a H.= = ",
"C 0 B ^ z++@-.A -.c - ) #.} 7 z 8 >.O.@ 5+H.= ; ; ; ~ 9 [ l@7 N.G 9@G l$m$n$o$p$q$r$s$t$u$v$'#w$x$ $y$z$A$B$C$D$E$] l+F |+c ; = ",
"b 9 8 h l+m.a c c ; - B.b 9 8 7 z 8 e.F$i r+).; ; ; b 0 P+E.N.7 ^ `.^ G$H$I$J$K$L$M$N$O$P$Q$R$S$T$U$V$W$`#X$Y$Z$`$ %^ 8 A a = = ",
"I i G Y I 8.Q+c c ; |.B.{+{ { 8 7 z z 5+~ H.' ; ; ; ; 9 ` & 8 8 7 z z z  $.%+%@%#%1#$%%%&%*%=%-%;%>%@ R.z ,%'%)%!%~%.%z -.c ; = ",
"> ) - - - n.d d r+- ) 8+C B ~ #+~ ~ #+~ c c Z.@#; ; = 8 } } z 7 8 z 8 7 z z+z.Z.= >.h ^.z+z 8 z z z++@m.1.{%]%^%/%e$-.7 A a ; = ",
"{+f 8+C.J - - - - _ B.{+= = = = = ).= = = = = ; ; ; ; z } 9 8 z z 8 7 8 +@h.f.;+1.R.z { B 8 7 z -.x.* F B (%_%B z z 7 B A a ; = ",
"> ).' > C.Z.> |.- - m )+= = ; ; :#b@f@; ; ; ; ; ; ; = 7 { A -.-.A -.i ~ ,@9.x.m@7 z B 7 z z B ^ >.E.7 8 z z 8 7 z z z { A a ; = ",
"M.G m@~+* ^.A z.! 8.)+/.= = V#f@Z :%@#= ; ; > - ' ;   9.{+Z.f.; Z.; > :#> 7+|+B z B B B B B B B B B B B B B B B B B B B ~ d ; = ",
"b 8 0 } [ } [ ` l@8 ] z A ,.w.K <%X ).= > m ) J J ) B.#.' > ) |.C.' ).C.; n.d Q+@@c a c a c a c c c a c a c c a c a c c c ; = = ",
"b 8 } 8 8 z 9 } [ [ [ 9 z+,@. 8+#+y+{ E.F i.~ #+( d Q+/.8+M.= {+{+8+4+2.  D.C.D.Z.) ' ;.).2.= ; = ; ; ; ; ; ; ; ; ; ; ; ; ; = {+",
"b 8 [ 8 8 8 9 8 z 8 9 [%/ F$n.|+B+A#W#[ ` }%}%|%& |%l@m@m@m@m@z+7 D.Z.' = w.M.M.M.8.n 9.8.;.j.).; = ; = ; = ; = ; = ; = = = b C ",
"b 8 [ 8 7 8 B B 8 { E + ,.) C 7.y+@.++8 7 8 z 8 8 8 0 } [ } } 9 i.> J 4+b )+)+)+)+)+8.9.)+f.  f.= = = = = = = = = = = = {+b C c ",
"b 8 0 8 8 8 z 8 z E B ,.#.> Y#z G i z 8 B z 7 z 8 7 8 z 8 8 8 B s.`+e #.)+b b b b b )+b )+' Z.M.w.)+{+b b b {+b b {+b b d a c c ",
"b 8 0 8 7 8 B B R.~@/.b b 7+7.a@z+B z B { 7 8 z 8 z 8 7 8 8 { ~ C K e w.)+b b )+b b b b b > ' e m@1%[ } [ [ [ } } 0 8 { B C b c ",
"b 8 7 ~ #+~ #+~ ( . J J ' b #+;+#+~ #+~ #+~ ~ #+~ #+~ #+~ #+~ a C ;.: f )+)+b 9.b b n.)+b ).4+A [%{ 8 8 z 8 7 8 { 8 z 8 } { ; c ",
"b z ~ = = = = = Z.B.J n e C.Z.= = = = = = = = = = = = = = = = =   e X M.)+b b n.9.b b b o.v.Z m@++z 8 7 8 8 8 7 8 z 8 7 8 c ; a ",
"b ).; ; ; ; ; V#@#V#:#, f@:#; ; ; ; ; ; ; ; ; ; ; ; ; ; ; ; ; ; - j.m {+)+)+)+)+b b )+b 9.{+= 6.R.{ { 8 8 z { 8 { { 8 z z d ; a ",
"H.I m m m - C.- - m @#:#f.V#; = ; = ; ; = ; ; = ; ; = ; ; = ; ; |.K Z.4+)+)+)+8.)+b b )+)+#.K I a c c c c c a d c a c a d a ; c ",
"f 8.4+w.Z.> > f.).' Z.8+m _ C.C.C.Z.= = = = = = = = = = = = = = ' C.Z.M.I )+b )+9.C 9.)+)+M.  2.D.; ; ; ; ; ; ; ; ; ; ; ; ; ; a ",
") ) ) J J J J J J J J ) ) ) ) ) |.C.= = = = = = = = = = = = = = = > {+#.#.#.w.8.9.o.C 9.8.#.> 8+v.= = = = = = = = = = = = = = = "};
