/* XPM */
static char * crumbling_wall2_xpm[] = {
"64 64 196 2",
"  	c #3C3C3C",
". 	c #494949",
"+ 	c #444444",
"@ 	c #4A4A4A",
"# 	c #424242",
"$ 	c #363636",
"% 	c #3D3D3D",
"& 	c #282828",
"* 	c #3A3A3A",
"= 	c #202020",
"- 	c #3B3B3B",
"; 	c #1F1F1F",
"> 	c #161616",
", 	c #373737",
"' 	c #4F4F4F",
") 	c #484848",
"! 	c #464646",
"~ 	c #454545",
"{ 	c #292929",
"] 	c #D0D0D0",
"^ 	c #DFDFDF",
"/ 	c #D3D3D3",
"( 	c #D9D9D9",
"_ 	c #989898",
": 	c #818181",
"< 	c #A9A9A9",
"[ 	c #D1D1D1",
"} 	c #D2D2D2",
"| 	c #838383",
"1 	c #ABABAB",
"2 	c #B7B7B7",
"3 	c #C7C7C7",
"4 	c #575757",
"5 	c #474747",
"6 	c #535353",
"7 	c #3F3F3F",
"8 	c #404040",
"9 	c #2B2B2B",
"0 	c #D6D6D6",
"a 	c #C9C9C9",
"b 	c #8A8A8A",
"c 	c #595959",
"d 	c #9D9D9D",
"e 	c #CDCDCD",
"f 	c #8F8F8F",
"g 	c #6B6B6B",
"h 	c #7B7B7B",
"i 	c #676767",
"j 	c #4B4B4B",
"k 	c #4D4D4D",
"l 	c #262626",
"m 	c #DEDEDE",
"n 	c #A6A6A6",
"o 	c #707070",
"p 	c #909090",
"q 	c #C3C3C3",
"r 	c #5F5F5F",
"s 	c #212121",
"t 	c #DADADA",
"u 	c #9A9A9A",
"v 	c #878787",
"w 	c #414141",
"x 	c #888888",
"y 	c #9B9B9B",
"z 	c #737373",
"A 	c #3E3E3E",
"B 	c #EAEAEA",
"C 	c #A8A8A8",
"D 	c #7E7E7E",
"E 	c #4C4C4C",
"F 	c #545454",
"G 	c #8C8C8C",
"H 	c #8E8E8E",
"I 	c #222222",
"J 	c #636363",
"K 	c #828282",
"L 	c #393939",
"M 	c #232323",
"N 	c #717171",
"O 	c #7F7F7F",
"P 	c #797979",
"Q 	c #8D8D8D",
"R 	c #5E5E5E",
"S 	c #757575",
"T 	c #6E6E6E",
"U 	c #6D6D6D",
"V 	c #2F2F2F",
"W 	c #313131",
"X 	c #353535",
"Y 	c #A2A2A2",
"Z 	c #515151",
"` 	c #808080",
" .	c #666666",
"..	c #5B5B5B",
"+.	c #323232",
"@.	c #333333",
"#.	c #2D2D2D",
"$.	c #434343",
"%.	c #EFEFEF",
"&.	c #303030",
"*.	c #141414",
"=.	c #343434",
"-.	c #383838",
";.	c #AAAAAA",
">.	c #555555",
",.	c #787878",
"'.	c #616161",
").	c #2C2C2C",
"!.	c #252525",
"~.	c #505050",
"{.	c #898989",
"].	c #A4A4A4",
"^.	c #999999",
"/.	c #686868",
"(.	c #656565",
"_.	c #4E4E4E",
":.	c #2A2A2A",
"<.	c #A5A5A5",
"[.	c #7C7C7C",
"}.	c #585858",
"|.	c #696969",
"1.	c #7A7A7A",
"2.	c #8B8B8B",
"3.	c #939393",
"4.	c #858585",
"5.	c #919191",
"6.	c #868686",
"7.	c #929292",
"8.	c #979797",
"9.	c #626262",
"0.	c #6A6A6A",
"a.	c #727272",
"b.	c #151515",
"c.	c #272727",
"d.	c #242424",
"e.	c #1B1B1B",
"f.	c #1A1A1A",
"g.	c #646464",
"h.	c #5C5C5C",
"i.	c #C6C6C6",
"j.	c #A7A7A7",
"k.	c #C5C5C5",
"l.	c #D7D7D7",
"m.	c #C4C4C4",
"n.	c #9E9E9E",
"o.	c #ADADAD",
"p.	c #525252",
"q.	c #B3B3B3",
"r.	c #848484",
"s.	c #BEBEBE",
"t.	c #949494",
"u.	c #777777",
"v.	c #1D1D1D",
"w.	c #C1C1C1",
"x.	c #6F6F6F",
"y.	c #767676",
"z.	c #1C1C1C",
"A.	c #959595",
"B.	c #CECECE",
"C.	c #B5B5B5",
"D.	c #CACACA",
"E.	c #2E2E2E",
"F.	c #E9E9E9",
"G.	c #565656",
"H.	c #A3A3A3",
"I.	c #B8B8B8",
"J.	c #6C6C6C",
"K.	c #CBCBCB",
"L.	c #A0A0A0",
"M.	c #DDDDDD",
"N.	c #9F9F9F",
"O.	c #1E1E1E",
"P.	c #B2B2B2",
"Q.	c #E6E6E6",
"R.	c #5A5A5A",
"S.	c #EEEEEE",
"T.	c #B6B6B6",
"U.	c #969696",
"V.	c #B0B0B0",
"W.	c #B1B1B1",
"X.	c #C2C2C2",
"Y.	c #AFAFAF",
"Z.	c #747474",
"`.	c #ECECEC",
" +	c #7D7D7D",
".+	c #B4B4B4",
"++	c #9C9C9C",
"@+	c #5D5D5D",
"#+	c #606060",
"$+	c #A1A1A1",
"%+	c #191919",
"&+	c #DBDBDB",
"*+	c #AEAEAE",
"=+	c #BFBFBF",
"-+	c #D5D5D5",
";+	c #DCDCDC",
"  . + @ # + $ % & * = - ; - ; - ; $ > , ; - ; - ; - ; - ; - ; - ; - ; - ; - ; - ; - ; - ; - ; - ; - ; - ; - ; - ; - ; - ; - ; - ",
"' . . ) . ) ) ! . ~ { ] ^ ^ ^ / ( _ : < [ } ^ / ^ ^ ^ ; - | 1 2 / 3 / / 3 / 2 3 1 | 4 ; 5 5 5 5 5 5 5 5 5 5 6 ' 4 ' 4 ' 4 ' 4 ' ",
". . 5 ! 5 ) 5 ~ 7 8 9 0 / 3 / 2 a b c d e / 2 / / 3 f ; - | 3 2 f 1 | f f f f | 1 ' - ; - g f f | f f f h g i 5 5 5 j 5 5 5 j 5 ",
"k . . ) . . ) ! $ $ l m 3 3 2 } n o c p q 3 2 2 / f r ; - 1 / 1 f 1 f 1 | 1 f 1 | 4 - ; - f / ^ ^ ^ / ^ 2 2 1 f | f f f | f f f ",
"j j @ 5 5 5 5 + $ * s t / 1 1 u v w r x < 1 y 1 1 h 6 ; - f 2 f f | 1 1 1 1 | f z ' - ; - | ^ ^ 2 3 2 / ^ ^ ^ / ^ / 3 / / / 3 / ",
"5 ) ! ! ! 5 ! w 7 A s B 2 y 1 C D E F G H 1 | 1 1 g 6 ; - 5 1 f 1 1 | f y f 1 g 4 6 - ; - f / 2 1 f 1 f 1 1 y f f 1 f 1 | 1 f y ",
"5 5 ! ! ! ! ! ~ + % I B / 1 | C J ~ ) v u y f f 1 f ' ; - 5 h H K 1 f 1 1 | 1 z L * - ; - | ^ 2 f 1 | y | f f 1 | f y f 1 y f y ",
"5 5 ! ! 5 5 5 # w - M B 3 f y G N . @ O P G Q < H R 4 ; L A # S b b O T U g P E V W X s $ f ^ 1 1 | y h 1 y h f 1 | 1 1 f h 1 y ",
") 5 5 5 5 5 ! # ! X M 3 2 1 y Y Z ) 5 `  .U  .i v ..j ; M X - , 5 +.+.+.+.@.@.X $ #.9 s , z ^ ^ f 1 | | y z y f 1 f f h 1 1 z f ",
"@ ) 5 5 5 ! . $.~ - s 1 %.1 u H E &.$ k ! 8 $ # , I A *.; { +.=.=.X -.  7 8 $.~ ) . # s s 5 3 3 f f f f y y y | f 1 f 1 1 | 1 f ",
") ) 5 5 ! ! ! 8 ) @.s f / f ;.` r @.>.T ` r ,.'.P )   ).!.9 +.@.7 $.$.~ ! ! ! ! ! ) E ~.s 5 3 1 f 1 | 1 f | f z g i r r i r i r ",
"! 5 5 ! ! ! ~ 8 w -.s z ^ 1 K {.6 X R ].^.Q : P Q /.(.  9 -.% w $.! ! ! ! ! ! ! ! ! . E s j 2 f g z i r i 4 6 6 6 5 j 5 j 5 5 j ",
"~ 5 ! 5 ! ! w w , $ s s ^ 3 G K J _.O : f 1 h f 1 f ' L :., - ! ! ! ! 5 . 5 . 5 ! ! ! @ s 5 f g i r 6 j 5 5 - - - - - ; - ; - ; ",
"+ ! ! ! 5 ! $.$.-.$ s s 1 / f <.r _.O < f | y f | z ' -.{ L % 5 ! ! ! 5 5 5 5 ) 5 ! ! j s s - - - - - - - - - ; ; ; ; ; ; ; ; ; ",
"    - -.* - * - W =.s s v 3 1 D [.}.|.1.f h f 1 f ' 4 - :.A , ) 5 ! ! ! ! 5 ! ) 5 ! ! j + I ; - ; ; - ; ; - ; 7 7 - - - - - - - ",
"+ L @.W &.V V &.= =.s s U 3 | n o 5 2.u 1 | 1 | 1 ' z 5 :.L -.) 5 5 5 5 5 5 5 ! 5 ! ! @ $.5 4 6 4 4 ; 5 j 5 5 j 5 5 5 5 5 5 5 7 ",
"^.3.4.5.6.4.G _ 7.; ; 4 5 3 2 8.9.-.6.u z f f f f g 4 6 9 -.L . . 5 ) ) ) ) 5 ! 5 ! 5 @ $.0.1 ^ / 4 5 6 h y y f y y y f y y y y ",
"/ 3 / / 3 / 2 1 z 7 ; 4 5 f 2 2.h 5 a.f f | 1 f g f g j & X L . ) 5 ) 5 5 ) 5 5 5 ) 5 . $.< / 3 1 ; 5 h 3 / ^ ^ ^ / ^ ^ ^ / ^ / ",
"1 y f 1 f 1 1 g z - ; 6 5 z y C c r <.| 1 z f g 6 z 6 j & L % ) 5 ! 5 . 5 ) @ 5 5 ) 5 ~ w } 3 1 | ; j y / / 2 2 1 2 2 2 1 2 2 2 ",
"1 f y f 1 | f g z - ; 5 6 5 y b ) ) /.z 6 6 z ' z 6 5 ; & -.8 5 ! ! ! . ) ) ) ! ! ! ~   R ^ 1 f f ; 5 y ^ 1 1 y 1 f 1 f y | y y ",
"1 f f 1 | 1 1 g 4 - ; 5 6 5 i ' X =.>.5 5 5 - ; ; ; = = M :.&.X =.=., L * 7 # $.~ # % V r ^ 1 1 | ; j y / 1 f y | y f y z | f | ",
"1 f 1 f 1 | f z ' - ; 5 6 5 ; , b.#.; ; ; ; ; ; ; ; ; = s c.X , -., -., $ X @.$ +.W   d.f ^ 1 1 f ; 5 f 3 | 1 y 1 f 1 f y | y y ",
"f 1 z h f f 1 g 4 - ; - ' 4 j * e.f.; ; ; ; ; ; j j j _.) ! 8 g...>.g.|.h.}.c ' % !.7 i 2 ^ 1 | h ; j | 3 1 | y f y | y h h f f ",
"f | | h f 1 | i 5 - ; - | ^ ^ ^ } i.1 1 f r -.+ Z i j.1 2 3 k.t l.m.Q v n.u 7.K g.= - h ^ 3 y 1 z ; 5 | 2 1 y f 1 | 1 f h h f f ",
"f f 1 1 | f f r j - ; - / 3 1 f y y 1 f y - $.% }.].B ^ ^ 3 2 2 k.v + R n _ o.R p.; - f ^ 1 y f g ; j g i.| 1 f f y f | 1 f 1 f ",
"y 1 | f 1 | z 6 - - ; - ^ y f y 1 1 f y ;.; w L U q.q f 1 | 1 y [.' k : 8.H K  .5 ; - f %.1 | 1 4 = j 5 r.o R 4 6 6 i i g h f | ",
"i r i r i 6 5 - - - ; - / 1 1 1 | ;.v n F e.$ X U s.1 y 1 f h ;.t.w 9.: < K 1 4 5 ; - | %.1 1 f 4 I Z * $.+ @ j @ . j ) 5 6 4 6 ",
"6 j 5 - - - ; ; ; ; ; - ^ | 1 f 1 C u...~ v.* X U w.: ;.f y 1 | K w x.5.6.: 6.E j ; - f %.| 1 f ' !.6 8 -.@.X $ , $ , =.&.7 % ! ",
"; ; ; ; ; ; ; s ; j j 5 ^ 1 y | j.h r E j ; &.$ g 5.g ` j.| f 1.y.~ T /.J z '.A ~ z.-.| %.1 1 | 4 9 ~.-.*   7 %   % A 7 7 7 * , ",
"5 i i g f y f | f f 5 ; ^ 1 z t.g.! _.x.(.L = -. .q _ o R {.1.G }.Z 4.z : N _ j $.v.-.f %.f 1 1 ' &.) $ * ~ ! ! ! ! 5 5 5 ! ~ $.",
"i f 2 ^ / ^ / / 3 1 z ; ^ ;.d R =.j A.: i * ; -./.B.C.G g T ,.n.@ 6 ,.1.H ;.K 4 - ; - f / f f 1 j @.8 $ 8 5 ! ! ! ! ! ! ! ! ) j ",
"i 1 / 3 3 2 1 1 y 1 7 ; %.b |.4 ! |.j.y g 5 ; * c D.3 < y.|.R '.E.p.<.f 1 | | ' - ; - f ^ 1 f f j =.-.$ # ! ! 5 ! ! ! ! 5 5 ! k ",
"i ^ 2 1 1 | 1 f 1 | z ; F.y.g.j | n | 1 g j ; +.  s.^ 1 ;._ r.R % r.u.1.G C g 4 - ; 7 f / f 1 f ! @.L $ ) ! ! ! ! ! ! ! ! 5 ) . ",
"i / 2 y | 1 f 1 | 1 z ; 3 /.6 u.n f 1 | i 6 ; = $.j.%.1 1 u O _.- G.r J H.| z 5 - ; j f / 1 1 | . V -.L 5 ! ! 5 5 ! ! ! 5 ! ! ~ ",
"i ^ 1 f 1 f 1 1 h 1 _.e.I.T ` H.f f f 1 i ' ; X 7 f %.2 1 b ,.!  .O 5 J.[.< r 5 ; - 7 f / y f 1 ~ #., % 5 5 5 ) 5 5 5 ! 5 ! ! 5 ",
"i ^ 1 1 f f y y 1 | F v.K.P h.x 1.1 1 y r 4 ; = % g / 2 C S 8 '.g 6.r.c 6 1.R - ; ; j f / f 1 j p.#., # 5 ! 5 5 ) ) 5 5 5 ! ! ) ",
"i / 2 f 1 1 f 1 | 1 6 v.s.L.4 O Y H f f r 4 ; ; 8 6 2 M.4.=.k  .1.P N.P 9._.E * ; - s h 1 h ' -.$ @.L + 5 ! 5 5 ) ) 5 5 5 ! ! ! ",
"i ^ 2 1 y f 1 f 1 f ' O.Y 1 5 z S b H 1 g 4 ; ; =.' H 1 4 X R '.c p.$.+ $ $ -.- ; - 7 s s - - @.$ * - ~ ) ! + ) 5 5 ! ! ! ! ! ~ ",
"i ^ 1 f 1 1 | 1 h 1 6 ; 3.P.S 5 1.N.O f g 4 ; ; , 6 $.S h >.6 5 - ; ; ; = = = = = E.X * $ $ - A + * * L * L -.* -.* - - *   $.5 ",
"i / 2 f | y 1 f 1 | 4 ; ,.e t...r i v j.i ' ; ; ; ' $.$ ; - ; ; ; ; - ; - ; ; =.= &.X - A =.=., =.E.#.=.+.=.=.@.+.+.@.@.@.@.=., ",
"i ^ 2 1 1 | y 1 f 1 6 ; 4 Q.O O ' G.v P g.6 ; ; - 5 + + - - - - - j 5 j 7 ' j 5 j 5 ! Z k o 0.9.G.w - A @ Z 4 R.'.'.R.R.c >.W % ",
"i ^ 1 f f 1 | 1 f g 4 ; 5 S.n.: |.5 ..p (.G.; ; ; 7 i h h h h h h h h h h h h h f f f y 1 T.N.U.h.@ (.].V.W.X.Y.P.].P.].P.T $ ! ",
"i 3 2 1 1 f 1 f 1 ' ; ; k %.^.O d o p.c r _.- ; ; - h 3 2 3 2 3 2 3 3 2 3 2 3 2 3 2 / ^ ^ M.G ..}.Z.w.F.%.%.%.%./ ^ / / f i ; j ",
"i / 2 f 1 f 1 1 | 4 ; =.% %.f Y 0.G J |.k @ - ; ; ; h 3 3 %.%.%.%.%.^ ^ %.%.^ %.%.%.S.`./  +>.Z /.L..+3 2 1 2 3 2 2 3 2 h 4 ; ' ",
"i 2 2 1 f 1 | f f ' ; &.! ^ 1 1 ` ++` J.@ j - ; ; ; h 3 3 2 3 2 3 2 3 1 2 3 1 2 3 C.< 6.0.X $./.6.;.f 1 | f f 1 | 1 f 1 g 4 - - ",
"j 3 | f 1 | z g z 6 = V w / | f 1 O ^.{.(.Z - ; ; ; i 2 ^ 2 f f | f f f 1 | 1 1 Q  +g -.#.' h P y | 1 1 y | 1 f 1 1 y f g 6 ; - ",
"5 2 1 1 y G 4 6 6 ; = W 5 2 1 | f 1 H [.a._.* ; ; ; 5 3 ^ 2 f f f 1 f y f y 1 ` 1.@+8 !.- g G y f f h | y y f 1 | 1 f 1 g 4 - - ",
"+ a.o |.. ~ k 6 6 ; &.W 7 y y 1 | f f (.i Z , ; ; ; ; 2 ^ / 1 1 | f f f h f O v ' 6 6 |.1.z | f 1 | f 1 f h z f h y f f z 6 ; - ",
"$ V = = = . ' ' _.= V   j h i r i i r i 6 6 -.v.; ; - 1 / / f | 1 f 1 | f j.U -.- O U.D j.f 1 f f 1 | f h f f | 1 f z | g 4 ; - ",
"7 8   X E.= = = = +.W 7 - - - - - * - - - - - ; ; ; ; f / 2 1 f f 1 | 1 y.J.L '.N u f y h 1 | f h f f f | 1 f h f f | h g 4 ; - ",
"$ * , $ X -.$ &.= = @.! - - ; ; z.b.f.; ; ; ; ; ; ; - | y g z z g z a.i r.) S ].| f h | f f h f f 1 | 1 f f 1 | f f f y g 4 ; - ",
"$.o ].2. +D g U F ~ ! E - - O.f.M *.v.- ; ; $ = , ; =.) 7 -.L ; -.; $ z.$ #+/.h f h h h h h h h h h h h h h h h h h h h i ' ; - ",
"5 1 3 / ^ / ^ t q.1 $+f g ..# l %+#.* - $ @.V E.E.V W w , $ V &.X , * X ; . ' k p.6 4 6 4 6 4 6 6 6 4 6 4 6 6 4 6 4 6 6 6 ; - - ",
"5 1 / 1 1 f 2 / ^ ^ ^ 2 j.r.>.  r p y _ : Z.i r @+' k E   $.- 7 7   % d.=.s X s -.V , ).* d.- ; - ; ; ; ; ; ; ; ; ; ; ; ; ; - 7 ",
"5 1 ^ 1 1 1 2 1 f 1 2 &+*+[.. /.A.=+e ^ t -+-+q B.q q.].].].].j.| s -., - # $.$.$.~ & ) ~ ).!.* ; - ; - ; - ; - ; - ; - - - 5 j ",
"5 1 ^ 1 | 1 h h 1 y Q  ...V j J p v ;.1 | 1 f 1 1 1 3 / ^ / / 2 Z.$ E.% 5 ! ! ! ! ! ~ ) ! L =.L - - - - - - - - - - - - 7 5 j 6 ",
"5 1 3 1 1 1 f 1 f Q h ..w $ R.f o a.f 1 h f | f 1 | 1 f 1 1 1 h R :.9 w ! 5 5 5 5 5 ! 5 ! , -.$.# ! 7 5 5 5 7 5 5 7 5 5 ' 4 6 6 ",
"5 1 3 1 | 1 h h u t.E 5 5 #+J x.j.h f h y | 1 f 1 f 1 | 1 1 y i j l 9 # ! 5 5 ! 5 5 5 5 5 $ , 9 ].;+^ / ^ ^ ^ / / 3 1 y h j 5 6 ",
"5 1 | i r i r i @+>.E.E., 5 r '.r i r i r i i r i r i r i r i 4 j ).{ 8 ! ! 5 ) 5 5 . ! 5 * % g &+y 1 1 f 1 | 1 y 1 f 1 / y ; 6 ",
"5 f i - - - - - -.W E.& 9 X -.- - - - - - - - - - - - - - - - - =.9 #.$.! 5 5 . ) 5 5 5 @ A M ].;.f 1 | 1 1 1 | 1 f 1 | 1 6 ; 4 ",
"5 * ; ; ; ; ; O.v.O.z.> f.z.; ; ; ; ; ; ; ; ; ; ; ; ; ; ; ; ; ; = !.@.7 ! ! ! ! 5 5 ! 5 ) 7 - C u y y 1 1 f y 1 y y 1 f f ' ; 4 ",
"Z + @.@.@.= X = = @.v.z.L O.; - ; - ; ; - ; ; - ; ; - ; ; - ; ; &.l -.% ! ! ! ~ ! 5 5 ! ! w l + 4 6 6 6 6 6 4 ' 6 4 6 4 ' 4 ; 6 ",
"8 ~ % # -.$ $ L * , -.  @.+.X X X -.- - - - - - - - - - - - - - , X -.$.+ ! 5 ! ) j ) ! ! $.=.d.s ; ; ; ; ; ; ; ; ; ; ; ; ; ; 4 ",
"V V V E.E.E.E.E.E.E.E.V V V V V &.X - - - - - - - - - - - - - - - $ 7 w w w # ~ ) @ j ) ~ w $   A - - - - - - - - - - - - - - - "};
