/* XPM */
static char * door_closed_xpm[] = {
"64 64 653 2",
"  	c #372B21",
". 	c #3F3125",
"+ 	c #3D2F24",
"@ 	c #3C2F24",
"# 	c #392D22",
"$ 	c #372B20",
"% 	c #392C22",
"& 	c #403226",
"* 	c #7B6149",
"= 	c #705844",
"- 	c #6F5743",
"; 	c #6D5541",
"> 	c #574434",
", 	c #7C624A",
"' 	c #6B5441",
") 	c #3F3126",
"! 	c #534131",
"~ 	c #453728",
"{ 	c #8F7755",
"] 	c #866B50",
"^ 	c #84694F",
"/ 	c #81664D",
"( 	c #5F4C39",
"_ 	c #907856",
": 	c #80654D",
"< 	c #443528",
"[ 	c #594635",
"} 	c #493C2A",
"| 	c #9F8B5E",
"1 	c #967E59",
"2 	c #957C58",
"3 	c #64523B",
"4 	c #A08B5E",
"5 	c #47392A",
"6 	c #5B4A36",
"7 	c #A18D74",
"8 	c #4D402D",
"9 	c #B19B69",
"0 	c #A79262",
"a 	c #A59061",
"b 	c #A18C5F",
"c 	c #7A6449",
"d 	c #B39C6A",
"e 	c #A08C5E",
"f 	c #5A4935",
"g 	c #735D45",
"h 	c #AF9E7A",
"i 	c #524530",
"j 	c #C3AA75",
"k 	c #AD9966",
"l 	c #AA9664",
"m 	c #A69262",
"n 	c #846C4F",
"o 	c #C5AC76",
"p 	c #A59161",
"q 	c #614F39",
"r 	c #7D654B",
"s 	c #B3A27C",
"t 	c #544732",
"u 	c #CCB27B",
"v 	c #C7AE77",
"w 	c #C6AD76",
"x 	c #B9A26E",
"y 	c #B49D6B",
"z 	c #876F51",
"A 	c #CEB47C",
"B 	c #B29C6A",
"C 	c #63513B",
"D 	c #7E664C",
"E 	c #BFAC82",
"F 	c #4B3D2C",
"G 	c #AA9166",
"H 	c #B2976B",
"I 	c #B1976B",
"J 	c #AA9167",
"K 	c #9E875F",
"L 	c #957F59",
"M 	c #725C44",
"N 	c #AC9267",
"O 	c #AC9368",
"P 	c #B1966A",
"Q 	c #947E58",
"R 	c #534231",
"S 	c #6B5640",
"T 	c #A49275",
"U 	c #413327",
"V 	c #80644D",
"W 	c #7D624B",
"X 	c #7B604A",
"Y 	c #725945",
"Z 	c #705744",
"` 	c #604B3A",
" .	c #584535",
"..	c #81654D",
"+.	c #7C614B",
"@.	c #735945",
"#.	c #7A604A",
"$.	c #604B39",
"%.	c #554232",
"&.	c #5F4A39",
"*.	c #554333",
"=.	c #7A6C62",
"-.	c #423327",
";.	c #755C47",
">.	c #745B46",
",.	c #735A45",
"'.	c #634E3B",
").	c #564434",
"!.	c #82674E",
"~.	c #624D3A",
"{.	c #3E3025",
"].	c #564333",
"^.	c #7C6E63",
"/.	c #7B614A",
"(.	c #765C47",
"_.	c #5A4636",
":.	c #7C624B",
"<.	c #7E634B",
"[.	c #544132",
"}.	c #7D634B",
"|.	c #524031",
"1.	c #765D47",
"2.	c #715944",
"3.	c #513F31",
"4.	c #584534",
"5.	c #3E3228",
"6.	c #785F49",
"7.	c #745C46",
"8.	c #755C46",
"9.	c #544232",
"0.	c #534132",
"a.	c #7F644C",
"b.	c #786C62",
"c.	c #2F2D2C",
"d.	c #4A4241",
"e.	c #6C5544",
"f.	c #81664E",
"g.	c #715844",
"h.	c #5F4B3B",
"i.	c #656261",
"j.	c #343233",
"k.	c #625E64",
"l.	c #484140",
"m.	c #604D3C",
"n.	c #80664D",
"o.	c #7F654C",
"p.	c #433C3A",
"q.	c #676566",
"r.	c #323031",
"s.	c #585459",
"t.	c #524E53",
"u.	c #453E3C",
"v.	c #624E3C",
"w.	c #503E30",
"x.	c #513F30",
"y.	c #503F30",
"z.	c #624E3D",
"A.	c #47403F",
"B.	c #555155",
"C.	c #716E71",
"D.	c #3A3839",
"E.	c #7F7C80",
"F.	c #6A666C",
"G.	c #504C51",
"H.	c #443C39",
"I.	c #614D3B",
"J.	c #524133",
"K.	c #7E644D",
"L.	c #745C47",
"M.	c #735B47",
"N.	c #725A46",
"O.	c #745C48",
"P.	c #725A47",
"Q.	c #634E3D",
"R.	c #524134",
"S.	c #7E644E",
"T.	c #755C48",
"U.	c #614D3C",
"V.	c #3E3126",
"W.	c #564435",
"X.	c #503F32",
"Y.	c #6F5744",
"Z.	c #634F3D",
"`.	c #473F3C",
" +	c #676369",
".+	c #817E83",
"++	c #363436",
"@+	c #6D6A70",
"#+	c #5A565B",
"$+	c #464345",
"%+	c #333031",
"&+	c #49413F",
"*+	c #554D4E",
"=+	c #534C4F",
"-+	c #5E5453",
";+	c #5A5151",
">+	c #5B5252",
",+	c #625A5B",
"'+	c #5B5353",
")+	c #5E575A",
"!+	c #544E51",
"~+	c #655C5C",
"{+	c #5C5353",
"]+	c #635A5C",
"^+	c #625A5C",
"/+	c #60595C",
"(+	c #5D575B",
"_+	c #675E5E",
":+	c #645C5D",
"<+	c #645B5D",
"[+	c #554E4F",
"}+	c #3D3838",
"|+	c #524B4D",
"1+	c #5F5554",
"2+	c #635B5C",
"3+	c #635B5D",
"4+	c #564E50",
"5+	c #524C4E",
"6+	c #584F50",
"7+	c #49423F",
"8+	c #363334",
"9+	c #59555A",
"0+	c #6F6C72",
"a+	c #767377",
"b+	c #302E2E",
"c+	c #4C484B",
"d+	c #474345",
"e+	c #423E3F",
"f+	c #302D2D",
"g+	c #3A3738",
"h+	c #464244",
"i+	c #474346",
"j+	c #474446",
"k+	c #4A4649",
"l+	c #4A4749",
"m+	c #484446",
"n+	c #4B474A",
"o+	c #4A474A",
"p+	c #4B484B",
"q+	c #3F3C3E",
"r+	c #323030",
"s+	c #3E3B3E",
"t+	c #484447",
"u+	c #322F30",
"v+	c #4F4B4E",
"w+	c #696768",
"x+	c #4B474B",
"y+	c #444041",
"z+	c #413E3E",
"A+	c #2F2D2D",
"B+	c #373435",
"C+	c #433F40",
"D+	c #4A4648",
"E+	c #787579",
"F+	c #636065",
"G+	c #433F3F",
"H+	c #787479",
"I+	c #4A4647",
"J+	c #2E2C2C",
"K+	c #4E4A4E",
"L+	c #312E2F",
"M+	c #504C50",
"N+	c #454142",
"O+	c #757277",
"P+	c #5F5B60",
"Q+	c #403C3E",
"R+	c #514D51",
"S+	c #686566",
"T+	c #302E2F",
"U+	c #433F41",
"V+	c #413D3E",
"W+	c #3C393A",
"X+	c #3E3B3C",
"Y+	c #4F4B4F",
"Z+	c #444043",
"`+	c #393537",
" @	c #3C3839",
".@	c #504D51",
"+@	c #676565",
"@@	c #373536",
"#@	c #716E72",
"$@	c #5E5A5E",
"%@	c #444042",
"&@	c #2F2E2F",
"*@	c #2E2C2D",
"=@	c #2F2D2E",
"-@	c #2D2B2B",
";@	c #312F30",
">@	c #555156",
",@	c #736F74",
"'@	c #787679",
")@	c #393738",
"!@	c #7A777C",
"~@	c #646066",
"{@	c #413D3F",
"]@	c #302D2C",
"^@	c #493C32",
"/@	c #4A3D32",
"(@	c #3E332C",
"_@	c #4A3C32",
":@	c #4B3D32",
"<@	c #352D28",
"[@	c #41352D",
"}@	c #312E2E",
"|@	c #4D494D",
"1@	c #7B787D",
"2@	c #7D7A7F",
"3@	c #59565B",
"4@	c #494649",
"5@	c #363233",
"6@	c #4A3D33",
"7@	c #68523F",
"8@	c #624D3B",
"9@	c #4F3D2F",
"0@	c #68523E",
"a@	c #6B5440",
"b@	c #6A5440",
"c@	c #4E3D2F",
"d@	c #614D3A",
"e@	c #715943",
"f@	c #6C5540",
"g@	c #69523F",
"h@	c #383535",
"i@	c #575459",
"j@	c #6D6B6D",
"k@	c #3C3939",
"l@	c #353132",
"m@	c #473B32",
"n@	c #725A45",
"o@	c #775E48",
"p@	c #785E48",
"q@	c #564433",
"r@	c #343131",
"s@	c #646263",
"t@	c #453931",
"u@	c #67513E",
"v@	c #5A4635",
"w@	c #5F5E5E",
"x@	c #302B28",
"y@	c #42372F",
"z@	c #66503D",
"A@	c #7E644C",
"B@	c #514031",
"C@	c #7E634C",
"D@	c #67615D",
"E@	c #644F3C",
"F@	c #755B46",
"G@	c #7A614B",
"H@	c #6F5845",
"I@	c #6E5744",
"J@	c #6D5643",
"K@	c #5F4B3A",
"L@	c #5F4C3B",
"M@	c #3F3936",
"N@	c #403937",
"O@	c #3E3837",
"P@	c #6D5644",
"Q@	c #7F654D",
"R@	c #3D3836",
"S@	c #3B3636",
"T@	c #413A37",
"U@	c #715945",
"V@	c #443B37",
"W@	c #403C3D",
"X@	c #463D38",
"Y@	c #735B46",
"Z@	c #38322F",
"`@	c #343132",
" #	c #4F4B50",
".#	c #6F5844",
"+#	c #393330",
"@#	c #3B383A",
"##	c #656168",
"$#	c #37312E",
"%#	c #4E423B",
"&#	c #5D595E",
"*#	c #403C3F",
"=#	c #3C383A",
"-#	c #3F3A3B",
";#	c #4A3E35",
">#	c #413226",
",#	c #50433B",
"'#	c #5C595E",
")#	c #524E51",
"!#	c #353334",
"~#	c #3F3B3C",
"{#	c #4B3E35",
"]#	c #5E4A39",
"^#	c #52453C",
"/#	c #4D4036",
"(#	c #775D47",
"_#	c #83674E",
":#	c #705845",
"<#	c #413C3B",
"[#	c #67636A",
"}#	c #3B393A",
"|#	c #353232",
"1#	c #3A3635",
"2#	c #5D4A38",
"3#	c #554233",
"4#	c #433D3C",
"5#	c #3D3736",
"6#	c #785F48",
"7#	c #705945",
"8#	c #59555B",
"9#	c #2A292A",
"0#	c #4E4A4F",
"a#	c #3F3939",
"b#	c #5D4A39",
"c#	c #6E5643",
"d#	c #423B3A",
"e#	c #7A6049",
"f#	c #796049",
"g#	c #413B3A",
"h#	c #322F2F",
"i#	c #3D332B",
"j#	c #4D3F33",
"k#	c #4E4033",
"l#	c #4C3E33",
"m#	c #363333",
"n#	c #5C585E",
"o#	c #413B3B",
"p#	c #343030",
"q#	c #4E4034",
"r#	c #4E3F33",
"s#	c #795F48",
"t#	c #373333",
"u#	c #4B3B2D",
"v#	c #6B543F",
"w#	c #6D5641",
"x#	c #695340",
"y#	c #3F3938",
"z#	c #433D3D",
"A#	c #765E48",
"B#	c #433C3B",
"C#	c #3C3635",
"D#	c #6A5340",
"E#	c #6C5541",
"F#	c #4A3A2D",
"G#	c #3A3637",
"H#	c #453F3E",
"I#	c #454143",
"J#	c #453932",
"K#	c #5F4C3E",
"L#	c #604D3E",
"M#	c #5F4D41",
"N#	c #565154",
"O#	c #5F5C62",
"P#	c #484345",
"Q#	c #5F4D40",
"R#	c #604D3F",
"S#	c #534337",
"T#	c #443933",
"U#	c #534F53",
"V#	c #403A39",
"W#	c #795F49",
"X#	c #392E27",
"Y#	c #624E3E",
"Z#	c #735A46",
"`#	c #493D33",
" $	c #3E3A3A",
".$	c #4C484C",
"+$	c #434043",
"@$	c #4E4B4F",
"#$	c #514E53",
"$$	c #4A464A",
"%$	c #483C34",
"&$	c #5E4A38",
"*$	c #4C3F35",
"=$	c #4E4B50",
"-$	c #524F53",
";$	c #6E5642",
">$	c #746962",
",$	c #4C4749",
"'$	c #665242",
")$	c #6F5843",
"!$	c #534031",
"~$	c #453A32",
"{$	c #3E3A3B",
"]$	c #49464A",
"^$	c #4C494D",
"/$	c #5E5A60",
"($	c #463B33",
"_$	c #65503D",
":$	c #614C3A",
"<$	c #49454A",
"[$	c #4C484D",
"}$	c #5E5B60",
"|$	c #4F3E2F",
"1$	c #6E5743",
"2$	c #59483A",
"3$	c #646161",
"4$	c #615D63",
"5$	c #464142",
"6$	c #5B493B",
"7$	c #423830",
"8$	c #362F2B",
"9$	c #3D352F",
"0$	c #3E352F",
"a$	c #433830",
"b$	c #725944",
"c$	c #36302C",
"d$	c #5B493A",
"e$	c #423D3D",
"f$	c #686667",
"g$	c #333132",
"h$	c #5E5A5F",
"i$	c #575358",
"j$	c #443F3F",
"k$	c #5D4B3B",
"l$	c #503E2F",
"m$	c #4D3C2E",
"n$	c #644E3B",
"o$	c #67513D",
"p$	c #65503C",
"q$	c #614C39",
"r$	c #654F3C",
"s$	c #5D4B3C",
"t$	c #4B4647",
"u$	c #5E5B5F",
"v$	c #747275",
"w$	c #807D82",
"x$	c #6A666D",
"y$	c #5E4B3C",
"z$	c #5F4D3E",
"A$	c #504136",
"B$	c #6E5747",
"C$	c #705948",
"D$	c #705A48",
"E$	c #715B4A",
"F$	c #6F5948",
"G$	c #625042",
"H$	c #504137",
"I$	c #6F5949",
"J$	c #705A49",
"K$	c #715B4B",
"L$	c #705A4A",
"M$	c #52433A",
"N$	c #6E5949",
"O$	c #3E3229",
"P$	c #534338",
"Q$	c #635042",
"R$	c #56463A",
"S$	c #6F5947",
"T$	c #614E3F",
"U$	c #56453A",
"V$	c #6D5746",
"W$	c #5F4C3D",
"X$	c #423C3C",
"Y$	c #68646B",
"Z$	c #838085",
"`$	c #817F83",
" %	c #524C4F",
".%	c #514D50",
"+%	c #554F52",
"@%	c #5D585C",
"#%	c #565054",
"$%	c #5C575B",
"%%	c #5E595D",
"&%	c #5D585D",
"*%	c #5F595D",
"=%	c #5F5A5E",
"-%	c #514C4F",
";%	c #4F4A4E",
">%	c #5F595E",
",%	c #544F53",
"'%	c #534E51",
")%	c #524D50",
"!%	c #534D50",
"~%	c #453F3F",
"{%	c #69656B",
"]%	c #727073",
"^%	c #393536",
"/%	c #454243",
"(%	c #4C484A",
"_%	c #494547",
":%	c #474344",
"<%	c #464243",
"[%	c #4D494C",
"}%	c #4D4A4C",
"|%	c #3B3839",
"1%	c #302D2E",
"2%	c #3A3739",
"3%	c #4B4849",
"4%	c #7E7B80",
"5%	c #68646A",
"6%	c #464344",
"7%	c #4B4749",
"8%	c #4F4C50",
"9%	c #6E6A70",
"0%	c #3D3A3C",
"a%	c #413E3F",
"b%	c #464346",
"c%	c #3F3B3E",
"d%	c #383536",
"e%	c #3A3737",
"f%	c #393637",
"g%	c #686666",
"h%	c #79767B",
"i%	c #2F2C2D",
"j%	c #2C2B2B",
"k%	c #312F2F",
"l%	c #565257",
"m%	c #7B787C",
"n%	c #7D7B7F",
"o%	c #383637",
"p%	c #747177",
"q%	c #3E3B3D",
"r%	c #312E2C",
"s%	c #524235",
"t%	c #534335",
"u%	c #44372D",
"v%	c #534235",
"w%	c #544435",
"x%	c #524234",
"y%	c #382E27",
"z%	c #47392E",
"A%	c #322E2D",
"B%	c #484448",
"C%	c #757177",
"D%	c #79777B",
"E%	c #524E52",
"F%	c #353131",
"G%	c #6C5440",
"H%	c #363232",
"I%	c #6B696A",
"J%	c #2E2B2B",
"K%	c #504134",
"L%	c #4F4034",
"M%	c #332F2F",
"N%	c #636162",
"O%	c #2C2A2B",
"P%	c #5F5D5D",
"Q%	c #332C27",
"R%	c #6E5742",
"S%	c #69533F",
"T%	c #6C645F",
"U%	c #68513E",
"V%	c #705843",
"W%	c #6F5742",
"X%	c #604C39",
"Y%	c #3B2E23",
"Z%	c #5D4937",
"`%	c #5F4B39",
" &	c #5D4938",
".&	c #4B3A2C",
"+&	c #5C4837",
"@&	c #7B6D63",
"#&	c #362A20",
"$&	c #3A2D22",
"%&	c #3A2E23",
"&&	c #382C21",
"*&	c #372A20",
"  . + + + + @ # . + + + + + @ # . + + + + + @ # . + + + + + @ $ % . + + + + + @ # . + + + + + @ # . + + + + + @ # . + + + + # # ",
"& * = - - - ; > , = - - - - ; > , = - - - - ; > , = - - - - ' ) ! , = - - - - ; > , = - - - - ; > , = - - - - ; > , = - - - * # ",
"~ { ] ^ ^ ^ / ( _ ] ^ ^ ^ ^ / ( _ ] ^ ^ ^ ^ / ( _ ] ^ ^ ^ ^ : < [ _ ] ^ ^ ^ ^ / ( _ ] ^ ^ ^ ^ / ( _ ] ^ ^ ^ ^ / ( _ ] ^ ^ ^ { # ",
"} | 1 2 2 2 _ 3 4 1 2 2 2 2 _ 3 4 1 2 2 2 2 _ 3 4 1 2 2 2 2 { 5 6 4 1 2 2 2 2 _ 3 4 1 2 2 2 2 _ 3 4 1 2 2 2 2 _ 3 4 1 2 2 2 7 # ",
"8 9 0 a a a b c d 0 a a a a b c d 0 a a a a b c d 0 a a a a e f g d 0 a a a a b c d 0 a a a a b c d 0 a a a a b c d 0 a a a h # ",
"i j k l l l m n o k l l l l m n o k l l l l m n o k l l l l p q r o k l l l l m n o k l l l l m n o k l l l l m n o k l l l s # ",
"t u v w o x y z A v w w o x y z A v w w o x y z A v w w o x B C D A v w w o x y z A v w w o x y z A v w w o x y z A v w o x E # ",
"F G H I J K L M N I O P J K L M N I O P J K L M N I O P J K Q R S N I O P J K L M N I O P J K L M N I O P J K L M N H I J K T # ",
"U V W X Y Z `  ...+.@.#.Y Z $.%.: +.@.#.Y Z $.%.: +.@.#.Y Z &.+ *...+.@.#.Y Z $.%.: +.@.#.Y Z $.%.: +.@.#.Y Z $.%.: W X Y Z =.# ",
"-./ ;.>.>.,.'.).!.;.>.>.>.,.'.*.!.;.>.>.>.,.'.*.!.;.>.>.>.,.~.{.].!.;.>.>.>.,.'.*.!.;.>.>.>.,.'.*.!.;.>.>.>.,.'.*.!.;.>.>.,.^.# ",
"& /.;.>.>.,.'.%.!.(.>.>.>.,.'.> !.(.>.>.>.,.'._.!.(.>.>.>.,.~.{.].!.(.>.>.>.,.'.> !.(.>.>.>.,.'._.!.(.>.>.>.,.'.].:.;.>.>.,.^.# ",
". ;.>.>.>.,.'.[ <.;.>.>.>.,.'.[.}.;.>.>.>.,.'.> }.;.>.>.>.,.~.{.].<.;.>.>.>.,.'.[.}.;.>.>.>.,.'.> }.;.>.>.>.,.'.|.1.>.>.>.,.^.# ",
"-./ (.>.>.,.'.*.2.>.>.>.>.,.'.*.2.>.>.>.>.,.'.3.2.>.>.>.>.,.~.{.[.Y >.>.>.>.,.'.*.2.>.>.>.>.,.'.3.2.>.>.>.>.,.'.4.!.(.>.>.,.^.# ",
"5.6.;.>.>.,.'.|.7.>.>.>.>.,.'.|.7.>.>.>.>.,.'.].8.>.>.>.>.,.~.{.9.8.>.>.>.>.,.'.|.7.>.>.>.>.,.'.> 8.>.>.>.>.,.'.0.a.;.>.>.= b.# ",
"c.d.e.Y >.,.'. .f.(.>.>.>.,.'. .f.(.>.>.>.,.'.0./ (.>.>.>.,.~.{.].f.(.>.>.>.,.'. .f.(.>.>.>.,.'. .f.(.>.>.>.,.'.> 8.>.>.g.h.i.# ",
"j.k.l.m.2.,.'.|.: (.>.>.>.,.'.|.: (.>.>.>.,.'. .n.(.>.>.>.,.~.{.]./ (.>.>.>.,.'.|.: (.>.>.>.,.'.|.: (.>.>.>.,.'. .o.;.2.m.p.q.# ",
"r.s.t.u.v.= '.w.>.>.>.>.>.,.'.w.>.>.>.>.>.,.'.x.>.>.>.>.>.,.~.{.9.8.>.>.>.>.,.'.w.>.>.>.>.>.,.'.w.>.>.>.>.>.,.'.y.,.Y z.A.B.C.# ",
"D.E.F.G.H.v.I.J.K.L.M.M.M.N.z.J.K.O.M.M.M.P.Q.R.S.T.M.M.M.P.U.V.W.K.T.M.M.M.P.Q.R.S.T.M.M.M.N.z.J.K.O.M.M.M.N.v.X.Y.Z.`. +.+.+# ",
"++@+#+$+%+&+*+=+-+;+;+>+,+'+)+!+~+{+]+]+{+^+/+(+_+:+<+<+<+^+[+}+|+1+2+<+<+<+3+/+(+_+2+{+]+]+'+)+!+~+{+,+>+;+;+4+5+6+7+8+9+0+a+# ",
"b+c+d+e+f+g+h+i+$+d+j+j+k+j+l+m+k+j+n+n+j+o+n+n+n+n+p+n+n+k+q+r+s+$+o+n+p+n+n+n+n+n+o+j+n+n+j+l+m+k+j+k+t+i+d+i+i+h+g+u+G.v+w+# ",
"b+x+y+z+A+B+e+C+C+D+E+F+h+C+G+C+G+D+H+F+h+G+G+G+G+I+H+F+h+e+B+J+B+e+G+I+H+F+h+G+G+G+G+D+H+F+h+G+C+G+C+I+E+F+h+C+C+e+B+u+G.K+q.# ",
"L+M+N+z+A+B+e+C+C+D+O+P+Q+C+C+C+C+D+O+P+Q+C+C+C+C+D+O+P+Q+e+B+J+B+e+C+D+O+P+Q+C+C+C+C+D+O+P+Q+C+C+C+C+D+O+P+Q+C+C+e+B+u+R+t.S+# ",
"T+K+U+V+A+B+W+W+W+X+Y+Z+`+W+W+W+W+X+Y+Z+`+W+W+W+W+X+Y+Z+`+ @B+J+B+W+W+X+Y+Z+`+W+W+W+W+X+Y+Z+`+W+W+W+W+X+Y+Z+`+W+W+W+B+u+.@G.+@# ",
"@@#@$@%@A+&@T+T+&@&@*@=@T+&@&@T+&@&@*@=@T+&@&@T+&@&@*@=@T+&@&@-@T+&@&@&@*@=@T+T+T+&@&@&@*@=@T+T+T+&@&@&@*@=@T+T+T+T+&@;@>@,@'@# ",
")@!@~@{@]@^@/@(@_@:@:@:@:@:@/@(@_@:@:@:@:@:@/@(@_@:@:@:@:@:@_@<@[@_@:@:@:@:@:@/@(@_@:@:@:@:@:@/@(@_@:@:@:@:@:@/@(@_@^@}@|@1@2@# ",
"r.3@4@5@6@7@8@9@0@a@a@a@a@b@8@9@0@a@a@a@a@b@8@c@0@a@a@a@a@b@d@{.9.e@f@a@a@a@b@8@c@0@a@a@a@a@b@8@9@0@a@a@a@a@b@8@9@0@g@6@h@i@j@# ",
"J+k@l@m@7@n@'.y.o@8.>.>.>.,.'.y.o@8.>.>.>.,.'.0.p@8.>.>.>.,.~.{.q@!.1.>.>.>.,.'.0.p@8.>.>.>.,.'.y.o@8.>.>.>.,.'.y.o@>.7@m@r@s@# ",
"-@r@t@u@,.,.'.|.!.(.>.>.>.,.'.9.!.(.>.>.>.,.'.v@!.(.>.>.>.,.~.{.].!.(.>.>.>.,.'.> !.(.>.>.>.,.'.|.!.(.>.>.>.,.'.9.!.(.,.u@t@w@# ",
"x@y@z@,.>.,.'.9.!.(.>.>.>.,.'.4.!.(.>.>.>.,.'.> A@;.>.>.>.,.~.{.].!.(.>.>.>.,.'.B@C@;.>.>.>.,.'.9.!.(.>.>.>.,.'.[ !.(.>.,.z@D@# ",
"@ E@,.>.>.,.'.4.!.(.>.>.>.,.'.|.!.(.>.>.>.,.'.|.8.F@>.>.>.,.~.{.].o.;.>.>.>.,.'.|.8.>.>.>.>.,.'.4.!.(.>.>.>.,.'.4.a.;.>.>.n@^.# ",
". n@>.>.>.,.'.0.: ;.>.>.>.,.'.! : ;.>.>.>.,.'.W.G@H@I@>.>.,.~.{.9.8.>.>.>.I@J@K@W.o.;.>.>.>.,.'.0.: ;.>.>.>.,.'.3.>.>.>.>.,.^.# ",
"U : (.>.>.,.'.].8.>.>.>.>.,.'.].,.>.>.>.>.n@L@M@N@O@H.P@>.,.~.{.].Q@;.>.P@H.R@S@T@I@>.>.>.>.,.'.].,.>.>.>.>.,.'. ./ (.>.>.,.^.# ",
"-./ (.>.>.,.'.! a.;.>.>.>.,.'.x.n@>.>.>.>.U@V@W@g+g+W@X@U@,.~.{.9.Y@>.U@X@W@g+g+W@X@U@>.>.>.,.'.x.n@>.>.>.>.,.'.0.!.(.>.>.,.^.# ",
"-./ (.>.>.,.'.).8.>.>.>.>.,.'. .: ;.>.>.>.= Z@`@ # #`@Z@= ,.~.{.[.n@>.= Z@`@ # #`@Z@= >.>.>.,.'. .o.;.>.>.>.,.'. .f.(.>.>.,.^.# ",
"-./ (.>.>.,.'.[ a.;.>.>.>.,.'.[ !.(.>.>.>..#+#@#####@#$#Y.,.~.{.].a.;..#+#@#####@#$#Y.>.>.>.,.'.> 8.>.>.>.>.,.'.B@8.>.>.>.,.^.# ",
". 8.>.>.>.,.'.|.(.>.>.>.>.,.'.9.!.(.>.>.U@%#&#*#s.s.=#-#;#.#~.{.9.1.U@%#&#*#s.s.=#-#;#2.>.>.,.'.3.2.>.>.>.>.,.'.B@C@;.>.>.,.^.# ",
">#:.;.>.>.,.'.> }.;.>.>.>.,.'.].1.>.>.U@,#'#)#8+h+h+!#c+~#{#]#{.*./.^#'#)#8+h+h+!#c+~#/#U@>.,.'.> <.;.>.>.>.,.'.].(#F@>.>.,.^.# ",
"-./ (.>.>.,.'._._#1.>.>.>.,.'.9.:.;.>.:#<#[#}#`@|#|#j.s+x+1#2#{.3#L.4#[#}#`@|#|#j.s+x+5#:#>.,.'. .p@8.>.>.>.,.'.> 2.>.>.>.,.^.# ",
"-.f.(.>.>.,.'.0.6#8.>.>.>.,.'.|.!.1.>.7#4#8#r.=@9#9#=@T+0#a#b#{.[.c#4#8#r.=@9#9#=@T+0#d#7#>.,.'.> 2.>.>.>.>.,.'.9., ;.>.>.,.^.# ",
"& 6#8.>.>.,.'.3#e#;.>.>.>.,.'.3#f#8.>.7#g#0#h#i#j#k#l#m#n#o#b#{.[.c#g#0#p#l#q#r#i#`@n#4#7#>.,.'.0.2.>.>.>.>.,.'.y.e#8.>.>.,.^.# ",
"& s#8.>.>.,.'._.!.(.>.>.>.,.'.[.g.>.>.7#d# #t#u#v#w#x#y#[#z#b#{.3#A#B# #C#D#E#'.F#G#[#H#7#>.,.'.x.e#8.>.>.>.,.'.0.g.>.>.>.,.^.# ",
">#/.;.>.>.,.'.> !.(.>.>.>.,.'.y.6#8.>.= 5#n+I#J#K#L#M#N#O#}+2#{.q@Q@T@n+P#Q#R#S#T#U#O#V#= >.,.'.x./.;.>.>.>.,.'. .W#8.>.>.,.^.# ",
"X#Y#Z#>.>.,.'.x., ;.>.>.>.,.'.9.:.;.>.2.`# $.$Z++$@$#$k.$$%$&${.].: *$ $.$+$+$=$-$k.$$;#2.>.,.'.0.o@8.>.>.>.,.'.].W ;.>.>.;$>$# ",
"=@,$'$)$>.,.'.!$1.F@>.>.>.,.'.4.(#F@>.,.u@~${$]$^$/$/$x+($_$:${.*.W 7@~${$<$[$/$}$x+($u@,.>.,.'.[ <.;.>.>.>.,.'.|$2.>.>.1$2$3$# ",
"j.4$5$6$- ,.'.> A@;.>.>.>.,.'.> A@;.>.>.,.z@7$8$9$0$0$a$z@b$~.{.9.1.Y@z@a$0$0$0$c$7$z@,.>.>.,.'.*.Y >.>.>.>.,.'.|$2.>.- d$e$f$# ",
"g$h$i$j$k$- 8@l$b$>.>.>.>.,.'.l$b$>.>.>.>.n@~.m$n$z@z@o$,.,.~.{.].a.;.,.o$z@p$q$m$r$,.>.>.>.,.'.x.2.>.>.>.>.,.'.x.2.= s$t$u$v$# ",
"}#w$x$R+y#y$z$A$B$C$C$D$E$F$G$H$I$J$K$K$J$L$G$M$N$E$E$E$K$L$R#O$P$F$K$K$E$E$L$G$M$N$E$J$K$K$F$Q$R$I$J$E$D$C$S$T$U$V$W$X$Y$Z$`$# ",
"!# +>@%@h#j$ %.%!+!+!++%@%#%$%U#@%#%%%%%#%%%%%&%*%=%=%=%=%%%-% @;%+%%%=%=%=%>%%%&%*%%%#%%%%%#%$%,%@%#%@%+%!+!+'%)%!%~%`@>@{%]%# ",
"A+i+I#e+f+^%y+N+N+/%(%_%:%I#h+I#h+<%[%D+I#h+:%:%:%d+}%k+d+<%|%1%2%%@h+d+}%k+d+:%:%:%h+<%[%D+I#h+I#h+I#d+(%_%I#N+N+y+^%u+M+k+f$# ",
"T+K+%@z+A+B+e+C+C+3%4%5%6%C+C+C+C+3%4%5%:%C+C+C+C+7%4%5%6%e+B+J+B+e+C+7%4%5%6%C+C+C+C+3%4%5%:%C+C+C+C+7%4%5%:%C+C+e+B+u+.@M+q.# ",
"L+8%N+z+A+B+e+C+C+m+9%9+0%e+C+C+C+m+9%9+0%e+C+C+C+m+9%9+0%V+B+J+B+e+C+m+9%9+0%e+C+C+C+m+9%9+0%e+C+C+C+m+9%9+0%e+C+e+B+u+R+t.S+# ",
"L+M+N+a%A+8+g+g+g+|%b%c%d%e%g+g+g+|%b%c%d%e%g+g+g+|%b%c%d%f%8+J+8+g+g+|%b%c%d%e%g+g+g+|%b%c%d%e%g+g+g+|%b%c%d%e%g+g+8+u+R+t.g%# ",
")@h%~@I#i%A+A+A+A+A+J+*@A+A+A+A+A+A+J+*@A+A+A+A+A+A+J+*@A+A+A+j%A+A+A+A+J+*@A+A+A+A+A+A+J+*@A+A+A+A+A+A+J+*@A+A+A+A+A+k%l%m%n%# ",
"o%p%}$q%r%s%t%u%v%w%w%w%w%w%t%u%v%w%w%w%w%w%t%u%v%w%w%w%w%w%x%y%z%t%w%w%w%w%w%t%u%v%w%w%w%w%w%t%u%v%w%w%w%w%w%t%u%v%s%A%B%C%D%# ",
";@E%Z+F%s%a@'.9@G%;$;$;$;$w#'.|$G%;$;$;$;$w#'.9@G%;$;$;$;$w#~.{.0.E#;$;$;$;$w#'.|$G%;$;$;$;$w#'.|$G%;$;$;$;$w#'.9@G%E#s%H%@$I%# ",
"J%G#p#K%E#n@'.[.Y >.>.>.>.Z#'.|$2.>.>.>.>.Z#'.[.Y >.>.>.>.Z#~.{.[.Y >.>.>.>.Z#'.|$2.>.>.>.>.Z#'.|$2.>.>.>.>.Z#'.[.Y >.E#L%M%N%# ",
"O%M%l#'.,.,.'.> Y >.>.>.Y@E#8@0.2.>.>.>.Y@E#8@[.2.>.>.>.Y@E#:${.[.Y >.>.>.Y@E#8@0.2.>.>.>.Y@E#8@0.2.>.>.>.Y@E#'.> Y Y@w#D#j#P%# ",
"Q%/@g@a@Z#,.'.[.2.Y@R%Y@Z#a@8@9.2.Y@R%Y@Z#a@~.!$2.Y@R%Y@Z#a@:${.[.Y Y@R%Y@Z#a@8@9.2.Y@R%Y@Z#a@8@> Y Y@R%Y@Z#a@~.[.2.Z#E#,.S%T%# ",
"@ U%,.V%>.,.'.|.2.,.a@,.>.;$8@|.2.,.a@,.>.;$'.9.2.,.a@,.>.;$d@{.[.Y ,.a@,.>.;$8@|.2.,.a@,.>.;$'.9.2.,.a@,.>.;$8@|.2.>.V%>.,.^.# ",
"{.= ,.z@n@- '.3#2.>.= Y@- g@~.3#2.>.= Y@- g@~.|.2.>.= Y@- g@:${.[.Y >.= Y@- g@8@> Y >.= Y@- g@~.|$2.>.= Y@- g@~.3#2.,.z@n@- ^.# ",
"{.= ,.z@W%0@~.3.2.,.z@W%S%R%8@|$2.,.z@W%S%R%'.*.Y ,.z@W%S%R%d@{.[.Y ,.z@W%S%R%'.*.Y ,.z@W%S%R%8@|$2.,.z@W%S%R%8@|$2.,.z@W%0@^.# ",
"{.;$= E@r$- '.*.- = E@r$- r$d@|$- = E@r$- r$d@|$- = E@r$- r$X%{.0.- = E@r$- r$d@|$- = E@r$- r$d@|$- = E@r$- r$d@|$- = E@r$- ^.# ",
"Y%Z%`%&$&$`%Z%u# &`%&$&$`%&$Z%.& &`%&$&$`%&$Z%.& &`%&$&$`%&$+&+ 9@&$`%&$&$`%&$Z%.& &`%&$&$`%&$Z%.& &`%&$&$`%&$Z%.& &`%&$&$`%@&# ",
"#&$&%&%&%&%&$&&&$&%&%&%&%&%&$&&&$&%&%&%&%&%&$&&&$&%&%&%&%&%&$&*&&&$&%&%&%&%&%&$&&&$&%&%&%&%&%&$&&&$&%&%&%&%&%&$&&&$&%&%&%&# # # "};
