/* XPM */
static char * door_opened_xpm[] = {
"64 64 372 2",
"  	c #372B21",
". 	c #3F3125",
"+ 	c #3D2F24",
"@ 	c #3C2F24",
"# 	c #392D22",
"$ 	c #FF00FF",
"% 	c #403226",
"& 	c #7B6149",
"* 	c #705844",
"= 	c #6F5743",
"- 	c #6D5541",
"; 	c #574434",
"> 	c #7C624A",
", 	c #837367",
"' 	c #453728",
") 	c #8F7755",
"! 	c #866B50",
"~ 	c #84694F",
"{ 	c #81664D",
"] 	c #5F4C39",
"^ 	c #907856",
"/ 	c #947F6E",
"( 	c #493C2A",
"_ 	c #9F8B5E",
": 	c #967E59",
"< 	c #957C58",
"[ 	c #64523B",
"} 	c #A08B5E",
"| 	c #A18D74",
"1 	c #4D402D",
"2 	c #B19B69",
"3 	c #A79262",
"4 	c #A59061",
"5 	c #A18C5F",
"6 	c #7A6449",
"7 	c #B39C6A",
"8 	c #AF9E7A",
"9 	c #524530",
"0 	c #C3AA75",
"a 	c #AD9966",
"b 	c #AA9664",
"c 	c #A69262",
"d 	c #846C4F",
"e 	c #C5AC76",
"f 	c #B3A27C",
"g 	c #544732",
"h 	c #CCB27B",
"i 	c #C7AE77",
"j 	c #C6AD76",
"k 	c #B9A26E",
"l 	c #B49D6B",
"m 	c #876F51",
"n 	c #CEB47C",
"o 	c #BFAC82",
"p 	c #4B3D2C",
"q 	c #AA9166",
"r 	c #B2976B",
"s 	c #B1976B",
"t 	c #AA9167",
"u 	c #9E875F",
"v 	c #957F59",
"w 	c #725C44",
"x 	c #AC9267",
"y 	c #A49275",
"z 	c #413327",
"A 	c #80644D",
"B 	c #7D624B",
"C 	c #7B604A",
"D 	c #725945",
"E 	c #705744",
"F 	c #604B3A",
"G 	c #584535",
"H 	c #554232",
"I 	c #80654D",
"J 	c #7A6C62",
"K 	c #423327",
"L 	c #755C47",
"M 	c #745B46",
"N 	c #735A45",
"O 	c #634E3B",
"P 	c #564434",
"Q 	c #554333",
"R 	c #82674E",
"S 	c #7C6E63",
"T 	c #7B614A",
"U 	c #564333",
"V 	c #7C624B",
"W 	c #594635",
"X 	c #524031",
"Y 	c #765D47",
"Z 	c #765C47",
"` 	c #584534",
" .	c #3E3228",
"..	c #785F49",
"+.	c #534132",
"@.	c #7F644C",
"#.	c #786C62",
"$.	c #2F2D2C",
"%.	c #4A4241",
"&.	c #6C5544",
"*.	c #755C46",
"=.	c #715844",
"-.	c #5F4B3B",
";.	c #656261",
">.	c #343233",
",.	c #625E64",
"'.	c #484140",
").	c #604D3C",
"!.	c #715944",
"~.	c #7F654C",
"{.	c #433C3A",
"].	c #676566",
"^.	c #323031",
"/.	c #585459",
"(.	c #524E53",
"_.	c #453E3C",
":.	c #624E3C",
"<.	c #503E30",
"[.	c #503F30",
"}.	c #624E3D",
"|.	c #47403F",
"1.	c #555155",
"2.	c #716E71",
"3.	c #3A3839",
"4.	c #7F7C80",
"5.	c #6A666C",
"6.	c #504C51",
"7.	c #443C39",
"8.	c #614D3B",
"9.	c #524133",
"0.	c #503F32",
"a.	c #6F5744",
"b.	c #634F3D",
"c.	c #473F3C",
"d.	c #676369",
"e.	c #817E83",
"f.	c #363436",
"g.	c #6D6A70",
"h.	c #5A565B",
"i.	c #464345",
"j.	c #333031",
"k.	c #49413F",
"l.	c #554D4E",
"m.	c #534C4F",
"n.	c #524C4E",
"o.	c #584F50",
"p.	c #49423F",
"q.	c #363334",
"r.	c #59555A",
"s.	c #6F6C72",
"t.	c #767377",
"u.	c #302E2E",
"v.	c #4C484B",
"w.	c #474345",
"x.	c #423E3F",
"y.	c #302D2D",
"z.	c #3A3738",
"A.	c #464244",
"B.	c #474346",
"C.	c #322F30",
"D.	c #4F4B4E",
"E.	c #696768",
"F.	c #4B474B",
"G.	c #444041",
"H.	c #413E3E",
"I.	c #2F2D2D",
"J.	c #373435",
"K.	c #433F40",
"L.	c #4E4A4E",
"M.	c #312E2F",
"N.	c #504C50",
"O.	c #454142",
"P.	c #514D51",
"Q.	c #686566",
"R.	c #302E2F",
"S.	c #433F41",
"T.	c #413D3E",
"U.	c #3C393A",
"V.	c #504D51",
"W.	c #676565",
"X.	c #373536",
"Y.	c #716E72",
"Z.	c #5E5A5E",
"`.	c #444042",
" +	c #2F2E2F",
".+	c #312F30",
"++	c #555156",
"@+	c #736F74",
"#+	c #787679",
"$+	c #393738",
"%+	c #7A777C",
"&+	c #646066",
"*+	c #413D3F",
"=+	c #302D2C",
"-+	c #493C32",
";+	c #4A3D32",
">+	c #3E332C",
",+	c #4A3C32",
"'+	c #312E2E",
")+	c #4D494D",
"!+	c #7B787D",
"~+	c #7D7A7F",
"{+	c #59565B",
"]+	c #494649",
"^+	c #363233",
"/+	c #4A3D33",
"(+	c #68523F",
"_+	c #624D3B",
":+	c #4F3D2F",
"<+	c #68523E",
"[+	c #69523F",
"}+	c #383535",
"|+	c #575459",
"1+	c #6D6B6D",
"2+	c #2E2C2C",
"3+	c #3C3939",
"4+	c #353132",
"5+	c #473B32",
"6+	c #725A45",
"7+	c #775E48",
"8+	c #343131",
"9+	c #646263",
"0+	c #2D2B2B",
"a+	c #453931",
"b+	c #67513E",
"c+	c #544232",
"d+	c #5F5E5E",
"e+	c #302B28",
"f+	c #42372F",
"g+	c #66503D",
"h+	c #67615D",
"i+	c #644F3C",
"j+	c #513F31",
"k+	c #534131",
"l+	c #81664E",
"m+	c #514031",
"n+	c #7E634C",
"o+	c #413226",
"p+	c #775D47",
"q+	c #755B46",
"r+	c #5A4636",
"s+	c #785F48",
"t+	c #554233",
"u+	c #7A6049",
"v+	c #795F48",
"w+	c #795F49",
"x+	c #392E27",
"y+	c #624E3E",
"z+	c #735A46",
"A+	c #513F30",
"B+	c #6E5642",
"C+	c #746962",
"D+	c #2F2D2E",
"E+	c #4C4749",
"F+	c #665242",
"G+	c #6F5843",
"H+	c #534031",
"I+	c #4F3E2F",
"J+	c #6E5743",
"K+	c #59483A",
"L+	c #646161",
"M+	c #615D63",
"N+	c #464142",
"O+	c #5B493B",
"P+	c #5B493A",
"Q+	c #423D3D",
"R+	c #686667",
"S+	c #333132",
"T+	c #5E5A5F",
"U+	c #575358",
"V+	c #443F3F",
"W+	c #5D4B3B",
"X+	c #503E2F",
"Y+	c #5D4B3C",
"Z+	c #4B4647",
"`+	c #5E5B5F",
" @	c #747275",
".@	c #3B393A",
"+@	c #807D82",
"@@	c #6A666D",
"#@	c #3F3938",
"$@	c #5E4B3C",
"%@	c #5F4D3E",
"&@	c #504136",
"*@	c #56453A",
"=@	c #6D5746",
"-@	c #5F4C3D",
";@	c #423C3C",
">@	c #68646B",
",@	c #838085",
"'@	c #817F83",
")@	c #353334",
"!@	c #322F2F",
"~@	c #524C4F",
"{@	c #514D50",
"]@	c #524D50",
"^@	c #534D50",
"/@	c #453F3F",
"(@	c #343132",
"_@	c #69656B",
":@	c #727073",
"<@	c #454143",
"[@	c #393536",
"}@	c #4A4649",
"|@	c #4F4C50",
"1@	c #413E3F",
"2@	c #686666",
"3@	c #79767B",
"4@	c #2F2C2D",
"5@	c #312F2F",
"6@	c #565257",
"7@	c #7B787C",
"8@	c #7D7B7F",
"9@	c #383637",
"0@	c #747177",
"a@	c #5E5B60",
"b@	c #3E3B3D",
"c@	c #312E2C",
"d@	c #524235",
"e@	c #534335",
"f@	c #44372D",
"g@	c #534235",
"h@	c #322E2D",
"i@	c #484448",
"j@	c #757177",
"k@	c #79777B",
"l@	c #524E52",
"m@	c #444043",
"n@	c #353131",
"o@	c #6B5440",
"p@	c #6C5440",
"q@	c #6C5541",
"r@	c #363232",
"s@	c #4E4B4F",
"t@	c #6B696A",
"u@	c #2E2B2B",
"v@	c #3A3637",
"w@	c #343030",
"x@	c #504134",
"y@	c #544132",
"z@	c #4F4034",
"A@	c #332F2F",
"B@	c #636162",
"C@	c #2C2A2B",
"D@	c #4C3E33",
"E@	c #735B46",
"F@	c #6D5641",
"G@	c #6A5340",
"H@	c #4D3F33",
"I@	c #5F5D5D",
"J@	c #332C27",
"K@	c #69533F",
"L@	c #6C645F",
"M@	c #68513E",
"N@	c #705843",
"O@	c #3E3025",
"P@	c #6F5742",
"Q@	c #624D3A",
"R@	c #7B6D63",
"S@	c #654F3C",
"T@	c #3B2E23",
"U@	c #5D4937",
"V@	c #5F4B39",
"W@	c #5E4A38",
"X@	c #4B3B2D",
"Y@	c #4B3A2C",
"Z@	c #5D4938",
"`@	c #786B61",
" #	c #362A20",
".#	c #3A2D22",
"+#	c #3A2E23",
"@#	c #382C21",
"  . + + + + @ # $ $ $ $ $ $ $ $ $ $ $ $ $ $ $ $ $ $ $ $ $ $ $ $ $ $ $ $ $ $ $ $ $ $ $ $ $ $ $ $ $ $ $ $ $ $ $ $ # . + + + +   . ",
"% & * = = = - ; $ $ $ $ $ $ $ $ $ $ $ $ $ $ $ $ $ $ $ $ $ $ $ $ $ $ $ $ $ $ $ $ $ $ $ $ $ $ $ $ $ $ $ $ $ $ $ $ ; > * = = = , % ",
"' ) ! ~ ~ ~ { ] $ $ $ $ $ $ $ $ $ $ $ $ $ $ $ $ $ $ $ $ $ $ $ $ $ $ $ $ $ $ $ $ $ $ $ $ $ $ $ $ $ $ $ $ $ $ $ $ ] ^ ! ~ ~ ~ / ' ",
"( _ : < < < ^ [ $ $ $ $ $ $ $ $ $ $ $ $ $ $ $ $ $ $ $ $ $ $ $ $ $ $ $ $ $ $ $ $ $ $ $ $ $ $ $ $ $ $ $ $ $ $ $ $ [ } : < < < | ( ",
"1 2 3 4 4 4 5 6 $ $ $ $ $ $ $ $ $ $ $ $ $ $ $ $ $ $ $ $ $ $ $ $ $ $ $ $ $ $ $ $ $ $ $ $ $ $ $ $ $ $ $ $ $ $ $ $ 6 7 3 4 4 4 8 1 ",
"9 0 a b b b c d $ $ $ $ $ $ $ $ $ $ $ $ $ $ $ $ $ $ $ $ $ $ $ $ $ $ $ $ $ $ $ $ $ $ $ $ $ $ $ $ $ $ $ $ $ $ $ $ d e a b b b f 9 ",
"g h i j e k l m $ $ $ $ $ $ $ $ $ $ $ $ $ $ $ $ $ $ $ $ $ $ $ $ $ $ $ $ $ $ $ $ $ $ $ $ $ $ $ $ $ $ $ $ $ $ $ $ m n i j e k o g ",
"p q r s t u v w $ $ $ $ $ $ $ $ $ $ $ $ $ $ $ $ $ $ $ $ $ $ $ $ $ $ $ $ $ $ $ $ $ $ $ $ $ $ $ $ $ $ $ $ $ $ $ $ w x r s t u y p ",
"z A B C D E F G $ $ $ $ $ $ $ $ $ $ $ $ $ $ $ $ $ $ $ $ $ $ $ $ $ $ $ $ $ $ $ $ $ $ $ $ $ $ $ $ $ $ $ $ $ $ $ $ H I B C D E J z ",
"K { L M M N O P $ $ $ $ $ $ $ $ $ $ $ $ $ $ $ $ $ $ $ $ $ $ $ $ $ $ $ $ $ $ $ $ $ $ $ $ $ $ $ $ $ $ $ $ $ $ $ $ Q R L M M N S K ",
"% T L M M N O H $ $ $ $ $ $ $ $ $ $ $ $ $ $ $ $ $ $ $ $ $ $ $ $ $ $ $ $ $ $ $ $ $ $ $ $ $ $ $ $ $ $ $ $ $ $ $ $ U V L M M N S % ",
". L M M M N O W $ $ $ $ $ $ $ $ $ $ $ $ $ $ $ $ $ $ $ $ $ $ $ $ $ $ $ $ $ $ $ $ $ $ $ $ $ $ $ $ $ $ $ $ $ $ $ $ X Y M M M N S . ",
"K { Z M M N O Q $ $ $ $ $ $ $ $ $ $ $ $ $ $ $ $ $ $ $ $ $ $ $ $ $ $ $ $ $ $ $ $ $ $ $ $ $ $ $ $ $ $ $ $ $ $ $ $ ` R Z M M N S K ",
" ...L M M N O X $ $ $ $ $ $ $ $ $ $ $ $ $ $ $ $ $ $ $ $ $ $ $ $ $ $ $ $ $ $ $ $ $ $ $ $ $ $ $ $ $ $ $ $ $ $ $ $ +.@.L M M * #. .",
"$.%.&.D M N O G $ $ $ $ $ $ $ $ $ $ $ $ $ $ $ $ $ $ $ $ $ $ $ $ $ $ $ $ $ $ $ $ $ $ $ $ $ $ $ $ $ $ $ $ $ $ $ $ ; *.M M =.-.;.$.",
">.,.'.).!.N O X $ $ $ $ $ $ $ $ $ $ $ $ $ $ $ $ $ $ $ $ $ $ $ $ $ $ $ $ $ $ $ $ $ $ $ $ $ $ $ $ $ $ $ $ $ $ $ $ G ~.L !.).{.].>.",
"^./.(._.:.* O <.$ $ $ $ $ $ $ $ $ $ $ $ $ $ $ $ $ $ $ $ $ $ $ $ $ $ $ $ $ $ $ $ $ $ $ $ $ $ $ $ $ $ $ $ $ $ $ $ [.N D }.|.1.2.^.",
"3.4.5.6.7.:.8.9.$ $ $ $ $ $ $ $ $ $ $ $ $ $ $ $ $ $ $ $ $ $ $ $ $ $ $ $ $ $ $ $ $ $ $ $ $ $ $ $ $ $ $ $ $ $ $ $ 0.a.b.c.d.e.e.3.",
"f.g.h.i.j.k.l.m.$ $ $ $ $ $ $ $ $ $ $ $ $ $ $ $ $ $ $ $ $ $ $ $ $ $ $ $ $ $ $ $ $ $ $ $ $ $ $ $ $ $ $ $ $ $ $ $ n.o.p.q.r.s.t.f.",
"u.v.w.x.y.z.A.B.$ $ $ $ $ $ $ $ $ $ $ $ $ $ $ $ $ $ $ $ $ $ $ $ $ $ $ $ $ $ $ $ $ $ $ $ $ $ $ $ $ $ $ $ $ $ $ $ B.A.z.C.6.D.E.u.",
"u.F.G.H.I.J.x.K.$ $ $ $ $ $ $ $ $ $ $ $ $ $ $ $ $ $ $ $ $ $ $ $ $ $ $ $ $ $ $ $ $ $ $ $ $ $ $ $ $ $ $ $ $ $ $ $ K.x.J.C.6.L.].u.",
"M.N.O.H.I.J.x.K.$ $ $ $ $ $ $ $ $ $ $ $ $ $ $ $ $ $ $ $ $ $ $ $ $ $ $ $ $ $ $ $ $ $ $ $ $ $ $ $ $ $ $ $ $ $ $ $ K.x.J.C.P.(.Q.M.",
"R.L.S.T.I.J.U.U.$ $ $ $ $ $ $ $ $ $ $ $ $ $ $ $ $ $ $ $ $ $ $ $ $ $ $ $ $ $ $ $ $ $ $ $ $ $ $ $ $ $ $ $ $ $ $ $ U.U.J.C.V.6.W.R.",
"X.Y.Z.`.I. +R.R.$ $ $ $ $ $ $ $ $ $ $ $ $ $ $ $ $ $ $ $ $ $ $ $ $ $ $ $ $ $ $ $ $ $ $ $ $ $ $ $ $ $ $ $ $ $ $ $ R.R. +.+++@+#+X.",
"$+%+&+*+=+-+;+>+$ $ $ $ $ $ $ $ $ $ $ $ $ $ $ $ $ $ $ $ $ $ $ $ $ $ $ $ $ $ $ $ $ $ $ $ $ $ $ $ $ $ $ $ $ $ $ $ >+,+-+'+)+!+~+$+",
"^.{+]+^+/+(+_+:+$ $ $ $ $ $ $ $ $ $ $ $ $ $ $ $ $ $ $ $ $ $ $ $ $ $ $ $ $ $ $ $ $ $ $ $ $ $ $ $ $ $ $ $ $ $ $ $ :+<+[+/+}+|+1+^.",
"2+3+4+5+(+6+O [.$ $ $ $ $ $ $ $ $ $ $ $ $ $ $ $ $ $ $ $ $ $ $ $ $ $ $ $ $ $ $ $ $ $ $ $ $ $ $ $ $ $ $ $ $ $ $ $ [.7+M (+5+8+9+2+",
"0+8+a+b+N N O X $ $ $ $ $ $ $ $ $ $ $ $ $ $ $ $ $ $ $ $ $ $ $ $ $ $ $ $ $ $ $ $ $ $ $ $ $ $ $ $ $ $ $ $ $ $ $ $ c+R Z N b+a+d+0+",
"e+f+g+N M N O c+$ $ $ $ $ $ $ $ $ $ $ $ $ $ $ $ $ $ $ $ $ $ $ $ $ $ $ $ $ $ $ $ $ $ $ $ $ $ $ $ $ $ $ $ $ $ $ $ W R Z M N g+h+e+",
"@ i+N M M N O ` $ $ $ $ $ $ $ $ $ $ $ $ $ $ $ $ $ $ $ $ $ $ $ $ $ $ $ $ $ $ $ $ $ $ $ $ $ $ $ $ $ $ $ $ $ $ $ $ ` @.L M M 6+S @ ",
". 6+M M M N O +.$ $ $ $ $ $ $ $ $ $ $ $ $ $ $ $ $ $ $ $ $ $ $ $ $ $ $ $ $ $ $ $ $ $ $ $ $ $ $ $ $ $ $ $ $ $ $ $ j+M M M M N S . ",
"z I Z M M N O U $ $ $ $ $ $ $ $ $ $ $ $ $ $ $ $ $ $ $ $ $ $ $ $ $ $ $ $ $ $ $ $ $ $ $ $ $ $ $ $ $ $ $ $ $ $ $ $ G { Z M M N S z ",
"K { Z M M N O k+$ $ $ $ $ $ $ $ $ $ $ $ $ $ $ $ $ $ $ $ $ $ $ $ $ $ $ $ $ $ $ $ $ $ $ $ $ $ $ $ $ $ $ $ $ $ $ $ +.R Z M M N S K ",
"K { Z M M N O P $ $ $ $ $ $ $ $ $ $ $ $ $ $ $ $ $ $ $ $ $ $ $ $ $ $ $ $ $ $ $ $ $ $ $ $ $ $ $ $ $ $ $ $ $ $ $ $ G l+Z M M N S K ",
"K { Z M M N O W $ $ $ $ $ $ $ $ $ $ $ $ $ $ $ $ $ $ $ $ $ $ $ $ $ $ $ $ $ $ $ $ $ $ $ $ $ $ $ $ $ $ $ $ $ $ $ $ m+*.M M M N S K ",
". *.M M M N O X $ $ $ $ $ $ $ $ $ $ $ $ $ $ $ $ $ $ $ $ $ $ $ $ $ $ $ $ $ $ $ $ $ $ $ $ $ $ $ $ $ $ $ $ $ $ $ $ m+n+L M M N S . ",
"o+V L M M N O ; $ $ $ $ $ $ $ $ $ $ $ $ $ $ $ $ $ $ $ $ $ $ $ $ $ $ $ $ $ $ $ $ $ $ $ $ $ $ $ $ $ $ $ $ $ $ $ $ U p+q+M M N S o+",
"K { Z M M N O r+$ $ $ $ $ $ $ $ $ $ $ $ $ $ $ $ $ $ $ $ $ $ $ $ $ $ $ $ $ $ $ $ $ $ $ $ $ $ $ $ $ $ $ $ $ $ $ $ ; !.M M M N S K ",
"K l+Z M M N O +.$ $ $ $ $ $ $ $ $ $ $ $ $ $ $ $ $ $ $ $ $ $ $ $ $ $ $ $ $ $ $ $ $ $ $ $ $ $ $ $ $ $ $ $ $ $ $ $ c+> L M M N S K ",
"% s+*.M M N O t+$ $ $ $ $ $ $ $ $ $ $ $ $ $ $ $ $ $ $ $ $ $ $ $ $ $ $ $ $ $ $ $ $ $ $ $ $ $ $ $ $ $ $ $ $ $ $ $ [.u+*.M M N S % ",
"% v+*.M M N O r+$ $ $ $ $ $ $ $ $ $ $ $ $ $ $ $ $ $ $ $ $ $ $ $ $ $ $ $ $ $ $ $ $ $ $ $ $ $ $ $ $ $ $ $ $ $ $ $ +.=.M M M N S % ",
"o+T L M M N O ; $ $ $ $ $ $ $ $ $ $ $ $ $ $ $ $ $ $ $ $ $ $ $ $ $ $ $ $ $ $ $ $ $ $ $ $ $ $ $ $ $ $ $ $ $ $ $ $ G w+*.M M N S o+",
"x+y+z+M M N O A+$ $ $ $ $ $ $ $ $ $ $ $ $ $ $ $ $ $ $ $ $ $ $ $ $ $ $ $ $ $ $ $ $ $ $ $ $ $ $ $ $ $ $ $ $ $ $ $ U B L M M B+C+x+",
"D+E+F+G+M N O H+$ $ $ $ $ $ $ $ $ $ $ $ $ $ $ $ $ $ $ $ $ $ $ $ $ $ $ $ $ $ $ $ $ $ $ $ $ $ $ $ $ $ $ $ $ $ $ $ I+!.M M J+K+L+D+",
">.M+N+O+= N O ; $ $ $ $ $ $ $ $ $ $ $ $ $ $ $ $ $ $ $ $ $ $ $ $ $ $ $ $ $ $ $ $ $ $ $ $ $ $ $ $ $ $ $ $ $ $ $ $ I+!.M = P+Q+R+>.",
"S+T+U+V+W+= _+X+$ $ $ $ $ $ $ $ $ $ $ $ $ $ $ $ $ $ $ $ $ $ $ $ $ $ $ $ $ $ $ $ $ $ $ $ $ $ $ $ $ $ $ $ $ $ $ $ A+!.* Y+Z+`+ @S+",
".@+@@@P.#@$@%@&@$ $ $ $ $ $ $ $ $ $ $ $ $ $ $ $ $ $ $ $ $ $ $ $ $ $ $ $ $ $ $ $ $ $ $ $ $ $ $ $ $ $ $ $ $ $ $ $ *@=@-@;@>@,@'@.@",
")@d.++`.!@V+~@{@$ $ $ $ $ $ $ $ $ $ $ $ $ $ $ $ $ $ $ $ $ $ $ $ $ $ $ $ $ $ $ $ $ $ $ $ $ $ $ $ $ $ $ $ $ $ $ $ ]@^@/@(@++_@:@)@",
"I.B.<@x.y.[@G.O.$ $ $ $ $ $ $ $ $ $ $ $ $ $ $ $ $ $ $ $ $ $ $ $ $ $ $ $ $ $ $ $ $ $ $ $ $ $ $ $ $ $ $ $ $ $ $ $ O.G.[@C.N.}@R+I.",
"R.L.`.H.I.J.x.K.$ $ $ $ $ $ $ $ $ $ $ $ $ $ $ $ $ $ $ $ $ $ $ $ $ $ $ $ $ $ $ $ $ $ $ $ $ $ $ $ $ $ $ $ $ $ $ $ K.x.J.C.V.N.].R.",
"M.|@O.H.I.J.x.K.$ $ $ $ $ $ $ $ $ $ $ $ $ $ $ $ $ $ $ $ $ $ $ $ $ $ $ $ $ $ $ $ $ $ $ $ $ $ $ $ $ $ $ $ $ $ $ $ K.x.J.C.P.(.Q.M.",
"M.N.O.1@I.q.z.z.$ $ $ $ $ $ $ $ $ $ $ $ $ $ $ $ $ $ $ $ $ $ $ $ $ $ $ $ $ $ $ $ $ $ $ $ $ $ $ $ $ $ $ $ $ $ $ $ z.z.q.C.P.(.2@M.",
"$+3@&+<@4@I.I.I.$ $ $ $ $ $ $ $ $ $ $ $ $ $ $ $ $ $ $ $ $ $ $ $ $ $ $ $ $ $ $ $ $ $ $ $ $ $ $ $ $ $ $ $ $ $ $ $ I.I.I.5@6@7@8@$+",
"9@0@a@b@c@d@e@f@$ $ $ $ $ $ $ $ $ $ $ $ $ $ $ $ $ $ $ $ $ $ $ $ $ $ $ $ $ $ $ $ $ $ $ $ $ $ $ $ $ $ $ $ $ $ $ $ f@g@d@h@i@j@k@9@",
".+l@m@n@d@o@O :+$ $ $ $ $ $ $ $ $ $ $ $ $ $ $ $ $ $ $ $ $ $ $ $ $ $ $ $ $ $ $ $ $ $ $ $ $ $ $ $ $ $ $ $ $ $ $ $ :+p@q@d@r@s@t@.+",
"u@v@w@x@q@6+O y@$ $ $ $ $ $ $ $ $ $ $ $ $ $ $ $ $ $ $ $ $ $ $ $ $ $ $ $ $ $ $ $ $ $ $ $ $ $ $ $ $ $ $ $ $ $ $ $ y@D M q@z@A@B@u@",
"C@A@D@O N N O ; $ $ $ $ $ $ $ $ $ $ $ $ $ $ $ $ $ $ $ $ $ $ $ $ $ $ $ $ $ $ $ $ $ $ $ $ $ $ $ $ $ $ $ $ $ $ $ $ ; D E@F@G@H@I@C@",
"J@;+[+o@z+N O y@$ $ $ $ $ $ $ $ $ $ $ $ $ $ $ $ $ $ $ $ $ $ $ $ $ $ $ $ $ $ $ $ $ $ $ $ $ $ $ $ $ $ $ $ $ $ $ $ y@!.z+q@N K@L@J@",
"@ M@N N@M N O X $ $ $ $ $ $ $ $ $ $ $ $ $ $ $ $ $ $ $ $ $ $ $ $ $ $ $ $ $ $ $ $ $ $ $ $ $ $ $ $ $ $ $ $ $ $ $ $ X !.M N@M N S @ ",
"O@* N g+6+= O t+$ $ $ $ $ $ $ $ $ $ $ $ $ $ $ $ $ $ $ $ $ $ $ $ $ $ $ $ $ $ $ $ $ $ $ $ $ $ $ $ $ $ $ $ $ $ $ $ t+!.N g+6+= S O@",
"O@* N g+P@<+Q@j+$ $ $ $ $ $ $ $ $ $ $ $ $ $ $ $ $ $ $ $ $ $ $ $ $ $ $ $ $ $ $ $ $ $ $ $ $ $ $ $ $ $ $ $ $ $ $ $ I+!.N g+P@<+R@O@",
"O@B+* i+S@= O Q $ $ $ $ $ $ $ $ $ $ $ $ $ $ $ $ $ $ $ $ $ $ $ $ $ $ $ $ $ $ $ $ $ $ $ $ $ $ $ $ $ $ $ $ $ $ $ $ I+= * i+S@= S O@",
"T@U@V@W@W@V@U@X@$ $ $ $ $ $ $ $ $ $ $ $ $ $ $ $ $ $ $ $ $ $ $ $ $ $ $ $ $ $ $ $ $ $ $ $ $ $ $ $ $ $ $ $ $ $ $ $ Y@Z@V@W@W@V@`@T@",
" #.#+#+#+#+#.#@#$ $ $ $ $ $ $ $ $ $ $ $ $ $ $ $ $ $ $ $ $ $ $ $ $ $ $ $ $ $ $ $ $ $ $ $ $ $ $ $ $ $ $ $ $ $ $ $ @#.#+#+#+#+#  . "};
