/* XPM */
static char * tree_border_xpm[] = {
"64 64 101 2",
"  	c #0E15E5",
". 	c #1626D7",
"+ 	c #E50E0E",
"@ 	c #FABB3E",
"# 	c #00DFC6",
"$ 	c #245A28",
"% 	c #2E5638",
"& 	c #2B6635",
"* 	c #00DE8B",
"= 	c #288D4E",
"- 	c #0AC260",
"; 	c #365348",
"> 	c #343D3D",
", 	c #21A382",
"' 	c #0FC096",
") 	c #00D6A7",
"! 	c #00DCBB",
"~ 	c #1DAA87",
"{ 	c #00D7A9",
"] 	c #EBC266",
"^ 	c #CC5434",
"/ 	c #ECB240",
"( 	c #00DEC1",
"_ 	c #00D9B0",
": 	c #00DDBE",
"< 	c #16B58E",
"[ 	c #10BE93",
"} 	c #09C89A",
"| 	c #00D5A4",
"1 	c #1FA683",
"2 	c #1CAB86",
"3 	c #17B38C",
"4 	c #06CC9C",
"5 	c #00DAB4",
"6 	c #22A07F",
"7 	c #20A482",
"8 	c #0DC296",
"9 	c #05CE9F",
"0 	c #00D7AB",
"a 	c #27977A",
"b 	c #259B7C",
"c 	c #1BAD89",
"d 	c #14B890",
"e 	c #10C28A",
"f 	c #279779",
"g 	c #26997B",
"h 	c #249D7E",
"i 	c #22A181",
"j 	c #02D2A1",
"k 	c #00DEC3",
"l 	c #00DB86",
"m 	c #00DB85",
"n 	c #279679",
"o 	c #249D7D",
"p 	c #1EA885",
"q 	c #13BD87",
"r 	c #11C088",
"s 	c #0DC68C",
"t 	c #313133",
"u 	c #299376",
"v 	c #299275",
"w 	c #19B384",
"x 	c #00D989",
"y 	c #00D988",
"z 	c #13BC89",
"A 	c #289578",
"B 	c #323133",
"C 	c #474B46",
"D 	c #299377",
"E 	c #00DC88",
"F 	c #22A27E",
"G 	c #17B687",
"H 	c #1EA983",
"I 	c #16B888",
"J 	c #00DA8D",
"K 	c #00DB8F",
"L 	c #14B88F",
"M 	c #19B08A",
"N 	c #586647",
"O 	c #369B2F",
"P 	c #366D5B",
"Q 	c #20A581",
"R 	c #0FC28D",
"S 	c #1CAC85",
"T 	c #10BE94",
"U 	c #0CFF89",
"V 	c #366E5C",
"W 	c #22A180",
"X 	c #2F8A6B",
"Y 	c #35725F",
"Z 	c #02D39D",
"` 	c #2B9371",
" .	c #347763",
"..	c #0CC497",
"+.	c #00DCBA",
"@.	c #00E7D2",
"#.	c #00F1D0",
"$.	c #16B771",
"%.	c #337B66",
"&.	c #DAC266",
"*.	c #C7C676",
"                                                            . . .                                                               ",
"  + + + + + + + + + + + + + + + + + + + + + + + + + + + + + + + + + + + + + + + + + + + + + + + + + + + + + + + + + + + + + +   ",
"  + @ @ @ @ @ @ @ @ @ @ @ @ @ @ @ @ @ @ @ @ @ @ @ @ @ @ @ @ @ @ @ @ @ @ @ @ @ @ @ @ @ @ @ @ @ @ @ @ @ @ @ @ @ @ @ @ @ @ @ @ +   ",
"  + @ # # # # # # # # # # # # # # # # $ % & * & * = - * * - * = = = & & & $ % ; ; ; > > , , ' ) ! # # # # # # # # # # # # @ +   ",
"  + @ # # # # # # # # # # # # # $ $ $ % & = & - = - * * * * - - = - = & = & $ % $ $ ; > > > > ~ { # # # # # # # # # # # # @ +   ",
"  + @ # # # # # # # # # # # # $ & & % $ = & - = = - - * * - * - * = & = & & $ % $ $ $ ; > % % ; { # # # # # # # # # # # # @ +   ",
"  + @ # # # # # # # # # # $ $ & = & & & $ = * - = - * * * * - * - - - = & & $ $ & & & $ ; > % % ; > # # # # # # # # # # # @ +   ",
"  + @ # # # # # # # # # $ & = - = $ & & & * - = & = - - * * * - - - = = = & $ & = = & & $ ; ; $ $ % ; # # # # # # # # # # @ +   ",
"  + @ # # # # # # # # $ & * * = & & $ & = - * - = & = & - * - - - = = = = & & & = = = & $ $ ; ; % $ % ; # # # # # # # # # @ +   ",
"  + @ # # # # # # # # $ - * - = & = & = - * * - = $ & = - - = - = - = = & $ & & & = & = & $ % > ; % ; ; # # # # # # # # # @ +   ",
"  + @ # # # # # # # $ & * - * & = & & = * * * * = & = - - = = = = = = & & & = = & & = & & $ ; $ % $ % ; > # # # # # # # # @ +   ",
"  + @ # # # # # # # $ & - = = & & = & = * * * * - = * - * - - = = & & = & = - = & = & & $ % $ $ % $ $ % % > # # # # # # # @ +   ",
"  + @ # # # # # # % $ % = = & & = = = - = * - * * - - * - - = = = = = - - - = - = & & $ $ $ % $ ; $ $ $ % > > # # # # # # @ +   ",
"  + @ # # # # # # % % & & & = = & = * - & = * - - = = - - = & = = = & = = - - = & & $ % $ $ $ % % % $ $ % ; > # # # # # # @ +   ",
"  + @ # # # # # # % $ $ & = - = $ - - * = & = = & = - - - - = & & = & & $ = & & = & & & $ & $ % $ % $ $ $ ; > > # # # # # @ +   ",
"  + @ # # # # # % $ & & = - * = $ - * * * = & & = - - * - = - = = & = & & & = = & & = = & $ & $ $ $ % ; % % ; > > # # # # @ +   ",
"  + @ # # # # # $ & & = = * - = & = * * - = = = - - * - * - - - = = & $ & = & - - = = & & & $ $ $ & $ % ; % > ; > # # # # @ +   ",
"  + @ # # # # # $ & = & - * * - = & = * * = & = - * - * * * * * - = = & & & - * = = & $ & $ % $ & & & $ % ; > % ; # # # # @ +   ",
"  + @ # # # # $ & & = = * * * * - = & - * - = & = - * * * * * - * = & & $ & & = = & $ & $ % % & & & & & $ % ; $ % ; # # # @ +   ",
"  + @ # # # $ & & $ & = * * - = = & = - - - - & $ = = - * * - * = = & & % $ & & $ $ $ $ $ % $ & & & & $ $ % % % $ ; > # # @ +   ",
"  + @ # # $ & - & $ & & = * - = & $ & = * - * = & & = = & = = & = & & $ % % $ $ & $ & & & $ % $ & & & & $ % % % $ % > # # @ +   ",
"  + @ # # $ = = & & $ & & = - & = & & = - * * * - = & $ & & & & & & $ $ & $ % & & & & = & & & $ $ & $ & $ % ; % $ $ ; > # @ +   ",
"  + @ # % & - = $ & & $ $ & = = - = = & = - * - * * - = & = & = & & & & & $ & & & & = = - = & & $ $ & $ $ % ; ; % % ; > # @ +   ",
"  + @ # % & - & $ & $ & & = - - = = & & = = - * - = & & = - - = = = & = = = = & = = = * = - = & & $ $ $ $ % > ; ; % ; > # @ +   ",
"  + @ # % & = & & & $ & = - * * - = = & & = = = & = = - - * * - - = = & = = & = & = - - * = = & = & % $ % ; > ; % ; ; > # @ +   ",
"  + @ # % & & $ & = $ & = * * * * * - = = & = = = = * * - - * * * = = = = = = & = - - * - = & = & & % % % % ; ; ; ; > > # @ +   ",
"  + @ $ = $ & $ $ = & & = - * * * - * - = = = = = - * * * - * - * - = = & = & & = = & = & & = = & $ $ % $ % ; > ; ; > > # @ +   ",
"  + @ $ = $ $ $ & = = $ & - - * - * = & = = & = - * - * - = - * - = & = & = & & & & = & & = = & $ $ % % $ % ; ; > > ; > # @ +   ",
"  + @ $ = & % $ = - = = & = - - - = & = - = = = = - - - - = - = = = = & $ & & $ & & & & = & & $ & % $ $ $ > % % ; ; > > > @ +   ",
"  + ] $ & & % & - * - = = & = = & = = - * - - = = & = = = = = = & = & $ & & $ % $ & & $ & $ $ & % $ % $ % ; % % % ; > ; > @ +   ",
"  + @ ; & & $ = * * * - = = - = & & - * - * * - = = & = & = = & & & $ & $ $ % ; % $ $ $ $ $ % $ % % $ % ; % $ % % > % ; ; @ +   ",
"  + @ ; $ & & = * * * - - = - - & $ - * * * - * - = = & & & & & & & & & $ % $ $ $ & & % % % $ % % $ % % % $ & % % ; % ; ; @ +   ",
"  + @ ; $ = & & = * - * - = - = = & = - * - * - - - = = & & $ $ & & & = & = & & $ = = & % % % % $ % ; % $ & $ $ % ; % ; ; @ +   ",
"  + @ $ % = & & = - * - * - = - - = & = - = - * - = & = = & = & & = = = = & = & = = = = $ ; % % ; % $ $ & & $ $ ; % ; % ; @ +   ",
"  + @ $ % & & $ & = - - = & - * - & = & $ & = - = & - - - = - - = - * * = = & & & = & & $ % ; > ; $ $ & $ $ $ ; ; % ; % ; @ ^   ",
"  + @ $ % & = $ & & = = & = * * = - - * - = & & $ & = * * * - = - * - * * - = & $ & $ $ % ; > ; % & & $ & $ % ; % % ; % ; @ +   ",
"  + / % $ $ & $ $ & & = = - * - - - * * * - = = & = = = * - - = = - * - = = & & $ $ $ % ; ; % ; % $ & & $ $ % % $ % ; > ; @ +   ",
"  + / % $ ; $ & $ $ & & & = - - - * * * * - = - = & & & = = = $ $ & = = = & $ % % % % $ $ % % % $ $ $ $ $ % % $ $ ; ; ; > @ +   ",
"  + @ ; % $ % $ & & = & = & = - = * - * - = - * - = & = & & $ & = = = = & = & & % ; $ & & & & $ $ % % % % ; $ % % % ; ; > @ +   ",
"  + @ > ; % ; $ $ & = = = = & = = = - - = - * - - - = = - = - = = - * - = & & & & % $ & = = & & & $ % ; ; % % % ; ; ; > # @ +   ",
"  + @ # > > % % $ $ & = = & & & = & = & = - - = - = & - - - = - - - * - * = & = & $ & = * - & = & % $ % > ; ; ; ; ; > > # @ +   ",
"  + @ # # ; ; % $ $ $ & & & $ & $ & & = & = = = = = = = - = - * * - - - - - = & = $ = * - = & & $ $ % % ; ; % ; > ; > # # @ +   ",
"  + @ # # # > ; % $ % % % & $ $ % $ & & & & = & & = & = = = = - - = - = = = & = $ $ & $ = & $ $ $ % % ; ; > ; ; > > # # # @ +   ",
"  + @ # # # # > ; % $ $ % % $ $ % $ $ & $ & & $ & & $ & = & = = = & = & & & & $ $ $ $ & & $ % % % $ ; % > > ; > > > ( # # @ +   ",
"  + @ # # # # > > ; % $ ; $ % % % % $ $ $ $ $ & $ % $ $ & & & = & = & $ & & $ $ $ % $ $ $ % % % $ % % ; > > > > > ) _ : # @ +   ",
"  + @ # # # # # > > > % $ $ $ $ $ % % % % $ $ $ % $ $ % $ % = & & & & $ $ $ & $ ; % ; % % $ % ; ; ; ; ; > ; > < [ } | _ ( @ +   ",
"  + @ # # # # # # > ; ; % % % $ $ % % ; ; % % % $ $ & $ $ % $ $ & $ $ $ $ % % ; % ; > ; ; % % ; ; ; ; > ; > 1 2 3 [ 4 ) 5 @ +   ",
"  + @ # # # # # # > ; > ; ; % % % ; % % ; % $ $ & & $ $ % $ $ $ $ % $ % % ; ; % % $ % ; ; > > ; > ; ; ; ; > 6 7 2 < 8 9 0 @ +   ",
"  + @ # # # # # # # > % % % ; > > > ; % % % % $ $ $ % % % % $ $ % % % % ; % % $ $ % % % ; ; > > ; ; ; ; > a b 6 1 c d } | @ +   ",
"  + @ # # # # # # # # _ ; % % % % ; ; ; % ; % % % % ; ; % % % % ; ; > > ; ; % % % % % ; ; ; ; > ; ; > > e f g h i 2 < 8 j @ +   ",
"  + @ # # # # # # # k _ j ; > % % % % % % ; % ; ; > > ; ; ; % % % % ; % % ; ; ; % % ; ; > ; ; > > > l m e f n o i p 3 8 j @ +   ",
"  + @ # # # # # # # # _ j 8 ; > > ; % % % ; ; ; % % ; > ; % % % % % ; ; % % ; > ; ; ; ; > > > l q r l m e f g h i 2 < 8 j @ +   ",
"  + @ # # # # # # # # 5 | } d c 1 ; > > ; > ; > ; ; > > > ; ; % % ; % % ; ; ; > > ; ; > > q l l r r l l s a g 6 1 c d } | @ +   ",
"  + @ # # # # # # # # ! 0 9 8 < 2 7 6 o > > > > > > > > t > > > ; ; ; ; > ; > > > > u v u r m l e w x y z o 6 7 2 < 8 9 0 @ +   ",
"  + @ # # # # # # # # # 5 ) 4 [ 3 2 1 i h b b a f f f A B C C C C C C B A A A A A A A D A e E E s F G z H i 1 2 3 [ 4 ) 5 @ +   ",
"  + @ # # # # # # # # # ( _ | } [ < c p 7 i h h b b g a B C C C C C C B A A A A f f f f f I J K z h h i 7 p c < [ } | _ ( @ +   ",
"  + @ # # # # # # # # # # : _ ) 4 8 L M c p 1 i i 6 B B B N O O N C C B B B P g g b b b o Q R R S i 7 p c M L 8 4 ) _ : # @ +   ",
"  + @ # # # # # # # # # # # ( 5 { j } T L 3 M 2 p B C O N O U O O N C C C C B V h 6 W i i i 7 1 p 2 M 3 L T } j { 5 ( # # @ +   ",
"  + @ # # # # # # # # # # # # # ! _ | 9 } 8 d L 3 X B C O U U O O N O N C B Y 1 1 p p p 2 2 c M 3 L d 8 } 9 | _ ! # # # # @ +   ",
"  + @ # # # # # # # # # # # # # # : 5 0 ) j 4 Z ` B N O U U O U O N N U O C B  .M M M 3 < L d [ 8 ..4 j ) 0 5 : # # # # # @ +   ",
"  + @ # # # # # # # # # # # # # # # # : +._ { @.#.$.B N N O N U N N C C C B %.d d [ [ 8 8 ..} 4 j | { _ 5 : # # # # # # # @ +   ",
"  + @ @ @ @ @ @ @ @ @ @ @ @ @ @ @ @ @ @ @ @ @ @ @ @ @ @ @ @ @ @ @ @ @ @ @ @ @ @ @ @ @ @ @ @ &.*.@ @ @ @ @ @ @ @ @ @ @ @ @ @ +   ",
"  + + + + + + + + + + + + + + + + + + + + + + + + + + + + + + + + + + + + + + + + + + + + + + + + + + + + + + + + + + + + + +   ",
"                                                                                                                                "};
